<svg width="341" height="187" viewBox="0 0 341 187" fill="none" xmlns="http://www.w3.org/2000/svg">
<path d="M134.4 71.9052C134.4 58.6136 145.175 47.8386 158.467 47.8386H182.533C195.825 47.8386 206.6 58.6136 206.6 71.9052V115.972C206.6 129.264 195.825 140.039 182.533 140.039H158.467C145.175 140.039 134.4 129.264 134.4 115.972V71.9052Z" fill="#E17324" fill-opacity="0.5"/>
<path d="M220.667 74.1325C220.667 65.163 225.644 57.0171 233.444 52.8774C234.966 52.0695 236.515 51.2999 237.942 50.3337L305.848 4.36061C307.275 3.39445 308.793 2.53953 310.451 2.07001C325.533 -2.20027 341 9.10485 341 25.2525V162.625C341 178.772 325.533 190.077 310.451 185.807C308.793 185.338 307.275 184.483 305.848 183.517L237.942 137.543C236.515 136.577 234.966 135.808 233.444 135C225.644 130.86 220.667 122.714 220.667 113.745V74.1325Z" fill="#E17324" fill-opacity="0.5"/>
<path d="M0 24.2525C0 8.14423 15.3919 -3.14511 30.4385 1.03905C32.1721 1.52111 33.752 2.42338 35.2324 3.44613L102.977 50.2482C104.458 51.271 106.072 52.0803 107.657 52.9314C115.399 57.0877 120.333 65.2018 120.333 74.1325V113.745C120.333 122.714 115.356 130.86 107.556 135C106.034 135.808 104.485 136.577 103.058 137.543L35.1517 183.517C33.7246 184.483 32.2071 185.338 30.5489 185.807C15.4672 190.077 0 178.772 0 162.625V24.2525Z" fill="#E17324" fill-opacity="0.5"/>
</svg>
