<svg width="542" height="294" viewBox="0 0 542 294" fill="none" xmlns="http://www.w3.org/2000/svg">
<path d="M0.59375 221.781V283.969C0.59375 289.492 5.0709 293.969 10.5937 293.969H532C537.523 293.969 542 289.492 542 283.969V5.96875L460.61 14.8779C458.761 15.0803 457.005 15.7945 455.539 16.9401L378.452 77.2027C376.606 78.6465 374.31 79.3956 371.967 79.319L317.739 77.5478C314.975 77.4575 312.297 78.5159 310.341 80.4714L268.92 121.892C266.637 124.176 263.391 125.216 260.205 124.685L197.62 114.254C194.747 113.775 191.807 114.573 189.57 116.439L124.814 170.459C122.359 172.507 119.072 173.258 115.971 172.479L77.7135 162.864C74.6142 162.086 71.3294 162.835 68.8744 164.881L0.59375 221.781Z" fill="#F0D996" fill-opacity="0.5"/>
<path d="M77.9718 55.939C74.7621 54.3342 70.9385 54.5722 67.9527 56.5628L9.49975 95.5314C3.93577 99.2407 0.59375 105.485 0.59375 112.172V221.781L68.8744 164.881C71.3294 162.835 74.6142 162.086 77.7135 162.864L115.971 172.479C119.072 173.258 122.359 172.507 124.814 170.459L189.57 116.439C191.807 114.573 194.747 113.775 197.62 114.254L260.205 124.685C263.391 125.216 266.637 124.176 268.92 121.892L310.341 80.4714C312.297 78.5159 314.975 77.4575 317.739 77.5478L371.967 79.319C374.31 79.3956 376.606 78.6465 378.452 77.2027L455.539 16.9401C457.005 15.7945 458.761 15.0803 460.61 14.8779L542 5.96875L460.512 0.223742C458.724 0.0977313 456.936 0.454268 455.333 1.25607L379.325 39.2893C376.937 40.484 374.171 40.6743 371.642 39.8178L318.642 21.867C315.384 20.7635 311.787 21.4121 309.12 23.5842L271.338 54.3493C267.779 57.2476 262.703 57.3506 259.029 54.5991L200.031 10.4141C196.05 7.43251 190.482 7.8301 186.965 11.3472L126.003 72.3097C122.959 75.3533 118.309 76.1079 114.46 74.1829L77.9718 55.939Z" fill="#F0D996" fill-opacity="0.75"/>
</svg>
