<svg width="161" height="282" viewBox="0 0 161 282" fill="none" xmlns="http://www.w3.org/2000/svg">
<path d="M72.5844 281.267V0.487793H91.7013V281.267H72.5844ZM80.0519 247.812C64.1212 247.812 48.8874 245.423 34.3506 240.644C19.8138 235.665 8.36363 229.293 0 221.527L11.0519 198.228C19.0173 205.198 29.1732 210.973 41.5195 215.553C53.8658 220.133 66.7099 222.423 80.0519 222.423C92.1991 222.423 102.056 221.029 109.623 218.241C117.19 215.453 122.766 211.67 126.351 206.89C129.935 201.912 131.727 196.336 131.727 190.163C131.727 182.994 129.338 177.219 124.558 172.838C119.978 168.457 113.905 164.973 106.338 162.384C98.9697 159.596 90.8052 157.206 81.8441 155.215C72.8831 153.224 63.8225 150.934 54.6623 148.345C45.7013 145.557 37.4372 142.072 29.8701 137.89C22.5022 133.709 16.5281 128.133 11.948 121.163C7.36796 113.994 5.07792 104.834 5.07792 93.6826C5.07792 82.9293 7.8658 73.0722 13.4416 64.1111C19.2164 54.951 27.9783 47.6826 39.7273 42.306C51.6753 36.7302 66.8095 33.9423 85.1298 33.9423C97.277 33.9423 109.325 35.5354 121.273 38.7215C133.221 41.9077 143.576 46.4878 152.338 52.4618L142.48 76.3579C133.519 70.3839 124.061 66.1025 114.104 63.5137C104.147 60.7259 94.4891 59.3319 85.1298 59.3319C73.3809 59.3319 63.7229 60.8254 56.1558 63.8124C48.5887 66.7995 43.013 70.7821 39.4286 75.7605C36.0433 80.7389 34.3506 86.3146 34.3506 92.4878C34.3506 99.8557 36.6407 105.73 41.2208 110.111C46 114.492 52.0736 117.977 59.4415 120.566C67.0086 123.154 75.2727 125.544 84.2337 127.734C93.1948 129.726 102.156 132.016 111.117 134.605C120.277 137.193 128.541 140.579 135.909 144.76C143.476 148.942 149.55 154.518 154.13 161.488C158.71 168.457 161 177.418 161 188.371C161 198.925 158.112 208.782 152.338 217.942C146.563 226.903 137.602 234.172 125.454 239.747C113.506 245.124 98.3723 247.812 80.0519 247.812Z" fill="#F0D996" fill-opacity="0.75"/>
</svg>
