<svg width="998" height="546" viewBox="0 0 998 546" fill="none" xmlns="http://www.w3.org/2000/svg">
<path d="M393.243 209.914C393.243 171.024 424.77 139.497 463.66 139.497H534.077C572.967 139.497 604.494 171.024 604.494 209.914V338.85C604.494 377.74 572.967 409.267 534.077 409.267H463.66C424.77 409.267 393.243 377.74 393.243 338.85V209.914Z" fill="white" fill-opacity="0.75"/>
<path d="M645.652 216.431C645.652 190.187 660.215 166.353 683.037 154.24C687.491 151.876 692.022 149.625 696.198 146.798L894.886 12.2845C899.062 9.45756 903.502 6.95611 908.354 5.58236C952.481 -6.91211 997.737 26.1657 997.737 73.4124V475.351C997.737 522.598 952.481 555.676 908.354 543.181C903.502 541.808 899.062 539.306 894.886 536.479L696.198 401.966C692.022 399.139 687.491 396.887 683.037 394.523C660.215 382.411 645.652 358.577 645.652 332.333V216.431Z" fill="white" fill-opacity="0.75"/>
<path d="M0 70.4865C0 23.355 45.0353 -9.67666 89.0605 2.56585C94.1327 3.97633 98.7555 6.61629 103.087 9.60875L301.302 146.548C305.634 149.54 310.358 151.908 314.996 154.398C337.648 166.559 352.085 190.301 352.085 216.431V332.333C352.085 358.577 337.522 382.411 314.7 394.523C310.246 396.887 305.714 399.139 301.539 401.966L102.851 536.479C98.6752 539.306 94.2351 541.808 89.3833 543.181C45.2558 555.676 0 522.598 0 475.351V70.4865Z" fill="white" fill-opacity="0.75"/>
</svg>
