<svg width="2707" height="1501" viewBox="0 0 2707 1501" fill="none" xmlns="http://www.w3.org/2000/svg">
<rect x="0.0834961" y="0.5" width="2706.23" height="1499.9" rx="80.2083" fill="#F2F2F2"/>
<path d="M862.898 194.708V122.842H870.496V194.708H862.898ZM919.853 140.295C924.234 140.295 928.067 141.15 931.352 142.862C934.706 144.504 937.307 147.037 939.155 150.459C941.071 153.881 942.029 158.193 942.029 163.395V194.708H934.74V164.114C934.74 158.433 933.303 154.155 930.428 151.28C927.622 148.337 923.652 146.866 918.519 146.866C914.686 146.866 911.332 147.653 908.457 149.227C905.651 150.733 903.461 152.957 901.887 155.9C900.381 158.775 899.628 162.266 899.628 166.372V194.708H892.339V140.808H899.32V155.592L898.191 152.82C899.902 148.919 902.64 145.873 906.404 143.683C910.169 141.424 914.652 140.295 919.853 140.295ZM974.576 194.708L950.655 140.808H958.252L980.223 190.807H976.63L998.908 140.808H1006.1L982.071 194.708H974.576ZM1037.75 195.222C1032.14 195.222 1027.21 194.058 1022.97 191.731C1018.72 189.335 1015.4 186.084 1013.01 181.978C1010.61 177.802 1009.42 173.046 1009.42 167.707C1009.42 162.368 1010.55 157.646 1012.8 153.539C1015.13 149.432 1018.28 146.215 1022.25 143.888C1026.29 141.493 1030.8 140.295 1035.8 140.295C1040.87 140.295 1045.35 141.458 1049.25 143.786C1053.22 146.044 1056.33 149.261 1058.59 153.436C1060.85 157.543 1061.98 162.3 1061.98 167.707C1061.98 168.049 1061.95 168.426 1061.88 168.836C1061.88 169.178 1061.88 169.555 1061.88 169.966H1014.96V164.524H1057.98L1055.1 166.68C1055.1 162.779 1054.25 159.322 1052.54 156.311C1050.89 153.231 1048.63 150.835 1045.76 149.124C1042.89 147.413 1039.57 146.558 1035.8 146.558C1032.11 146.558 1028.79 147.413 1025.84 149.124C1022.9 150.835 1020.61 153.231 1018.96 156.311C1017.32 159.391 1016.5 162.916 1016.5 166.886V168.015C1016.5 172.122 1017.39 175.749 1019.17 178.898C1021.02 181.978 1023.55 184.407 1026.77 186.187C1030.05 187.898 1033.78 188.754 1037.96 188.754C1041.24 188.754 1044.29 188.172 1047.09 187.008C1049.97 185.845 1052.43 184.065 1054.49 181.67L1058.59 186.392C1056.2 189.267 1053.19 191.457 1049.56 192.963C1046 194.469 1042.06 195.222 1037.75 195.222ZM1104.33 140.295C1108.71 140.295 1112.55 141.15 1115.83 142.862C1119.19 144.504 1121.79 147.037 1123.63 150.459C1125.55 153.881 1126.51 158.193 1126.51 163.395V194.708H1119.22V164.114C1119.22 158.433 1117.78 154.155 1114.91 151.28C1112.1 148.337 1108.13 146.866 1103 146.866C1099.17 146.866 1095.81 147.653 1092.94 149.227C1090.13 150.733 1087.94 152.957 1086.37 155.9C1084.86 158.775 1084.11 162.266 1084.11 166.372V194.708H1076.82V140.808H1083.8V155.592L1082.67 152.82C1084.38 148.919 1087.12 145.873 1090.88 143.683C1094.65 141.424 1099.13 140.295 1104.33 140.295ZM1163.24 195.222C1158.18 195.222 1154.27 193.853 1151.54 191.115C1148.8 188.377 1147.43 184.51 1147.43 179.514V128.899H1154.72V179.103C1154.72 182.251 1155.51 184.681 1157.08 186.392C1158.72 188.103 1161.05 188.959 1164.06 188.959C1167.28 188.959 1169.95 188.035 1172.07 186.187L1174.64 191.423C1173.2 192.723 1171.45 193.682 1169.4 194.298C1167.42 194.914 1165.36 195.222 1163.24 195.222ZM1137.78 146.866V140.808H1171.15V146.866H1137.78ZM1207.97 195.222C1202.77 195.222 1198.08 194.058 1193.91 191.731C1189.8 189.335 1186.55 186.084 1184.15 181.978C1181.76 177.802 1180.56 173.046 1180.56 167.707C1180.56 162.3 1181.76 157.543 1184.15 153.436C1186.55 149.33 1189.8 146.113 1193.91 143.786C1198.01 141.458 1202.7 140.295 1207.97 140.295C1213.31 140.295 1218.03 141.458 1222.14 143.786C1226.32 146.113 1229.57 149.33 1231.89 153.436C1234.29 157.543 1235.49 162.3 1235.49 167.707C1235.49 173.046 1234.29 177.802 1231.89 181.978C1229.57 186.084 1226.32 189.335 1222.14 191.731C1217.97 194.058 1213.24 195.222 1207.97 195.222ZM1207.97 188.754C1211.87 188.754 1215.33 187.898 1218.34 186.187C1221.35 184.407 1223.71 181.943 1225.43 178.795C1227.21 175.578 1228.09 171.882 1228.09 167.707C1228.09 163.463 1227.21 159.767 1225.43 156.619C1223.71 153.47 1221.35 151.041 1218.34 149.33C1215.33 147.55 1211.91 146.66 1208.07 146.66C1204.24 146.66 1200.82 147.55 1197.81 149.33C1194.8 151.041 1192.4 153.47 1190.62 156.619C1188.84 159.767 1187.95 163.463 1187.95 167.707C1187.95 171.882 1188.84 175.578 1190.62 178.795C1192.4 181.943 1194.8 184.407 1197.81 186.187C1200.82 187.898 1204.21 188.754 1207.97 188.754ZM1250.37 194.708V140.808H1257.35V155.49L1256.63 152.923C1258.14 148.816 1260.67 145.702 1264.23 143.58C1267.79 141.39 1272.2 140.295 1277.47 140.295V147.379C1277.2 147.379 1276.93 147.379 1276.65 147.379C1276.38 147.31 1276.1 147.276 1275.83 147.276C1270.15 147.276 1265.7 149.022 1262.48 152.512C1259.27 155.934 1257.66 160.828 1257.66 167.194V194.708H1250.37ZM1293.49 215.139C1290.96 215.139 1288.53 214.728 1286.2 213.907C1283.94 213.086 1281.99 211.854 1280.35 210.211L1283.74 204.77C1285.11 206.07 1286.58 207.062 1288.15 207.747C1289.79 208.5 1291.61 208.876 1293.59 208.876C1295.99 208.876 1298.04 208.192 1299.75 206.823C1301.53 205.522 1303.21 203.195 1304.78 199.842L1308.27 191.936L1309.1 190.807L1331.27 140.808H1338.46L1311.46 201.176C1309.95 204.667 1308.27 207.439 1306.43 209.492C1304.65 211.546 1302.7 212.983 1300.57 213.804C1298.45 214.694 1296.09 215.139 1293.49 215.139ZM1307.86 196.248L1283.02 140.808H1290.62L1312.59 190.294L1307.86 196.248ZM1383.91 157.646H1421.9V164.216H1383.91V157.646ZM1384.73 194.708H1377.13V122.842H1426.41V129.412H1384.73V194.708ZM1460.73 195.222C1455.53 195.222 1450.84 194.058 1446.66 191.731C1442.56 189.335 1439.31 186.084 1436.91 181.978C1434.51 177.802 1433.32 173.046 1433.32 167.707C1433.32 162.3 1434.51 157.543 1436.91 153.436C1439.31 149.33 1442.56 146.113 1446.66 143.786C1450.77 141.458 1455.46 140.295 1460.73 140.295C1466.07 140.295 1470.79 141.458 1474.9 143.786C1479.07 146.113 1482.32 149.33 1484.65 153.436C1487.05 157.543 1488.24 162.3 1488.24 167.707C1488.24 173.046 1487.05 177.802 1484.65 181.978C1482.32 186.084 1479.07 189.335 1474.9 191.731C1470.72 194.058 1466 195.222 1460.73 195.222ZM1460.73 188.754C1464.63 188.754 1468.09 187.898 1471.1 186.187C1474.11 184.407 1476.47 181.943 1478.18 178.795C1479.96 175.578 1480.85 171.882 1480.85 167.707C1480.85 163.463 1479.96 159.767 1478.18 156.619C1476.47 153.47 1474.11 151.041 1471.1 149.33C1468.09 147.55 1464.66 146.66 1460.83 146.66C1457 146.66 1453.58 147.55 1450.56 149.33C1447.55 151.041 1445.16 153.47 1443.38 156.619C1441.6 159.767 1440.71 163.463 1440.71 167.707C1440.71 171.882 1441.6 175.578 1443.38 178.795C1445.16 181.943 1447.55 184.407 1450.56 186.187C1453.58 187.898 1456.96 188.754 1460.73 188.754ZM1503.13 194.708V140.808H1510.11V155.49L1509.39 152.923C1510.89 148.816 1513.43 145.702 1516.99 143.58C1520.54 141.39 1524.96 140.295 1530.23 140.295V147.379C1529.96 147.379 1529.68 147.379 1529.41 147.379C1529.13 147.31 1528.86 147.276 1528.59 147.276C1522.91 147.276 1518.46 149.022 1515.24 152.512C1512.02 155.934 1510.41 160.828 1510.41 167.194V194.708H1503.13ZM1565.92 195.222C1560.31 195.222 1555.38 194.058 1551.14 191.731C1546.9 189.335 1543.58 186.084 1541.18 181.978C1538.79 177.802 1537.59 173.046 1537.59 167.707C1537.59 162.368 1538.72 157.646 1540.98 153.539C1543.3 149.432 1546.45 146.215 1550.42 143.888C1554.46 141.493 1558.98 140.295 1563.97 140.295C1569.04 140.295 1573.52 141.458 1577.42 143.786C1581.39 146.044 1584.51 149.261 1586.76 153.436C1589.02 157.543 1590.15 162.3 1590.15 167.707C1590.15 168.049 1590.12 168.426 1590.05 168.836C1590.05 169.178 1590.05 169.555 1590.05 169.966H1543.13V164.524H1586.15L1583.27 166.68C1583.27 162.779 1582.42 159.322 1580.71 156.311C1579.06 153.231 1576.81 150.835 1573.93 149.124C1571.06 147.413 1567.74 146.558 1563.97 146.558C1560.28 146.558 1556.96 147.413 1554.01 149.124C1551.07 150.835 1548.78 153.231 1547.14 156.311C1545.49 159.391 1544.67 162.916 1544.67 166.886V168.015C1544.67 172.122 1545.56 175.749 1547.34 178.898C1549.19 181.978 1551.72 184.407 1554.94 186.187C1558.22 187.898 1561.95 188.754 1566.13 188.754C1569.41 188.754 1572.46 188.172 1575.27 187.008C1578.14 185.845 1580.6 184.065 1582.66 181.67L1586.76 186.392C1584.37 189.267 1581.36 191.457 1577.73 192.963C1574.17 194.469 1570.24 195.222 1565.92 195.222ZM1627.37 195.222C1622.03 195.222 1617.24 194.058 1613 191.731C1608.82 189.335 1605.54 186.084 1603.14 181.978C1600.75 177.802 1599.55 173.046 1599.55 167.707C1599.55 162.3 1600.75 157.543 1603.14 153.436C1605.54 149.33 1608.82 146.113 1613 143.786C1617.24 141.458 1622.03 140.295 1627.37 140.295C1631.96 140.295 1636.1 141.185 1639.79 142.964C1643.49 144.744 1646.4 147.413 1648.52 150.972L1643.08 154.668C1641.23 151.93 1638.94 149.911 1636.2 148.611C1633.46 147.31 1630.49 146.66 1627.27 146.66C1623.44 146.66 1619.98 147.55 1616.9 149.33C1613.82 151.041 1611.39 153.47 1609.61 156.619C1607.83 159.767 1606.94 163.463 1606.94 167.707C1606.94 171.95 1607.83 175.646 1609.61 178.795C1611.39 181.943 1613.82 184.407 1616.9 186.187C1619.98 187.898 1623.44 188.754 1627.27 188.754C1630.49 188.754 1633.46 188.103 1636.2 186.803C1638.94 185.502 1641.23 183.518 1643.08 180.848L1648.52 184.544C1646.4 188.035 1643.49 190.704 1639.79 192.552C1636.1 194.332 1631.96 195.222 1627.37 195.222ZM1696.62 194.708V182.799L1696.31 180.848V160.931C1696.31 156.345 1695.01 152.82 1692.41 150.356C1689.88 147.892 1686.08 146.66 1681.01 146.66C1677.52 146.66 1674.2 147.242 1671.05 148.406C1667.9 149.569 1665.24 151.109 1663.05 153.026L1659.76 147.584C1662.5 145.257 1665.78 143.478 1669.62 142.246C1673.45 140.945 1677.49 140.295 1681.73 140.295C1688.71 140.295 1694.08 142.04 1697.85 145.531C1701.68 148.953 1703.6 154.189 1703.6 161.239V194.708H1696.62ZM1678.03 195.222C1674 195.222 1670.47 194.571 1667.46 193.271C1664.52 191.902 1662.26 190.054 1660.68 187.727C1659.11 185.331 1658.32 182.594 1658.32 179.514C1658.32 176.707 1658.97 174.175 1660.27 171.916C1661.64 169.589 1663.83 167.741 1666.84 166.372C1669.92 164.935 1674.03 164.216 1679.16 164.216H1697.75V169.658H1679.37C1674.17 169.658 1670.54 170.582 1668.49 172.43C1666.5 174.278 1665.51 176.57 1665.51 179.308C1665.51 182.388 1666.71 184.852 1669.1 186.7C1671.5 188.548 1674.85 189.472 1679.16 189.472C1683.27 189.472 1686.8 188.548 1689.74 186.7C1692.75 184.784 1694.94 182.046 1696.31 178.487L1697.95 183.518C1696.58 187.077 1694.19 189.917 1690.77 192.039C1687.41 194.161 1683.17 195.222 1678.03 195.222ZM1737.87 195.222C1733.42 195.222 1729.22 194.606 1725.25 193.374C1721.28 192.073 1718.16 190.465 1715.9 188.548L1719.19 182.799C1721.38 184.442 1724.18 185.879 1727.61 187.111C1731.03 188.274 1734.62 188.856 1738.39 188.856C1743.52 188.856 1747.22 188.069 1749.47 186.495C1751.73 184.852 1752.86 182.696 1752.86 180.027C1752.86 178.042 1752.21 176.502 1750.91 175.407C1749.68 174.243 1748.04 173.388 1745.98 172.84C1743.93 172.224 1741.64 171.711 1739.11 171.3C1736.57 170.89 1734.04 170.41 1731.51 169.863C1729.04 169.315 1726.79 168.528 1724.73 167.502C1722.68 166.406 1721 164.935 1719.7 163.087C1718.47 161.239 1717.85 158.775 1717.85 155.695C1717.85 152.752 1718.67 150.117 1720.32 147.79C1721.96 145.462 1724.36 143.649 1727.5 142.348C1730.72 140.979 1734.62 140.295 1739.21 140.295C1742.7 140.295 1746.19 140.774 1749.68 141.732C1753.17 142.622 1756.05 143.82 1758.3 145.326L1755.12 151.178C1752.73 149.535 1750.16 148.371 1747.42 147.687C1744.68 146.934 1741.95 146.558 1739.21 146.558C1734.35 146.558 1730.76 147.413 1728.43 149.124C1726.17 150.767 1725.04 152.889 1725.04 155.49C1725.04 157.543 1725.66 159.151 1726.89 160.315C1728.19 161.478 1729.87 162.402 1731.92 163.087C1734.04 163.703 1736.33 164.216 1738.8 164.627C1741.33 165.038 1743.83 165.551 1746.29 166.167C1748.82 166.714 1751.12 167.502 1753.17 168.528C1755.29 169.486 1756.97 170.89 1758.2 172.738C1759.5 174.517 1760.15 176.878 1760.15 179.822C1760.15 182.97 1759.26 185.708 1757.48 188.035C1755.77 190.294 1753.24 192.073 1749.89 193.374C1746.6 194.606 1742.6 195.222 1737.87 195.222ZM1790.57 195.222C1785.51 195.222 1781.6 193.853 1778.87 191.115C1776.13 188.377 1774.76 184.51 1774.76 179.514V128.899H1782.05V179.103C1782.05 182.251 1782.84 184.681 1784.41 186.392C1786.05 188.103 1788.38 188.959 1791.39 188.959C1794.61 188.959 1797.28 188.035 1799.4 186.187L1801.97 191.423C1800.53 192.723 1798.78 193.682 1796.73 194.298C1794.75 194.914 1792.69 195.222 1790.57 195.222ZM1765.11 146.866V140.808H1798.48V146.866H1765.11ZM1829.71 195.222C1825.26 195.222 1821.05 194.606 1817.08 193.374C1813.11 192.073 1810 190.465 1807.74 188.548L1811.03 182.799C1813.22 184.442 1816.02 185.879 1819.45 187.111C1822.87 188.274 1826.46 188.856 1830.23 188.856C1835.36 188.856 1839.05 188.069 1841.31 186.495C1843.57 184.852 1844.7 182.696 1844.7 180.027C1844.7 178.042 1844.05 176.502 1842.75 175.407C1841.52 174.243 1839.88 173.388 1837.82 172.84C1835.77 172.224 1833.48 171.711 1830.94 171.3C1828.41 170.89 1825.88 170.41 1823.35 169.863C1820.88 169.315 1818.62 168.528 1816.57 167.502C1814.52 166.406 1812.84 164.935 1811.54 163.087C1810.31 161.239 1809.69 158.775 1809.69 155.695C1809.69 152.752 1810.51 150.117 1812.16 147.79C1813.8 145.462 1816.19 143.649 1819.34 142.348C1822.56 140.979 1826.46 140.295 1831.05 140.295C1834.54 140.295 1838.03 140.774 1841.52 141.732C1845.01 142.622 1847.88 143.82 1850.14 145.326L1846.96 151.178C1844.56 149.535 1842 148.371 1839.26 147.687C1836.52 146.934 1833.78 146.558 1831.05 146.558C1826.19 146.558 1822.59 147.413 1820.27 149.124C1818.01 150.767 1816.88 152.889 1816.88 155.49C1816.88 157.543 1817.49 159.151 1818.73 160.315C1820.03 161.478 1821.7 162.402 1823.76 163.087C1825.88 163.703 1828.17 164.216 1830.64 164.627C1833.17 165.038 1835.67 165.551 1838.13 166.167C1840.66 166.714 1842.96 167.502 1845.01 168.528C1847.13 169.486 1848.81 170.89 1850.04 172.738C1851.34 174.517 1851.99 176.878 1851.99 179.822C1851.99 182.97 1851.1 185.708 1849.32 188.035C1847.61 190.294 1845.08 192.073 1841.72 193.374C1838.44 194.606 1834.43 195.222 1829.71 195.222Z" fill="#E17324"/>
<rect x="508.604" y="652.459" width="80.2083" height="482.854" rx="8.02083" fill="#E17324"/>
<path d="M515.209 1204.82C514.52 1204.82 513.918 1204.77 513.404 1204.69C512.878 1204.61 512.427 1204.51 512.051 1204.37V1200.59C512.452 1200.69 512.884 1200.78 513.348 1200.85C513.812 1200.93 514.307 1200.96 514.833 1200.96C515.522 1200.96 516.149 1200.83 516.713 1200.57C517.277 1200.31 517.722 1199.83 518.048 1199.14C518.386 1198.45 518.555 1197.48 518.555 1196.23V1169.68H523.067V1196.08C523.067 1198.12 522.741 1199.78 522.089 1201.06C521.438 1202.35 520.523 1203.3 519.345 1203.9C518.167 1204.51 516.788 1204.82 515.209 1204.82ZM537.88 1175.96C540.512 1175.96 542.499 1176.55 543.84 1177.71C545.193 1178.88 545.87 1180.69 545.87 1183.16V1197.17H542.73L541.885 1194.22H541.734C541.145 1194.97 540.537 1195.59 539.911 1196.08C539.284 1196.57 538.557 1196.93 537.73 1197.17C536.915 1197.42 535.919 1197.54 534.741 1197.54C533.5 1197.54 532.391 1197.32 531.414 1196.87C530.436 1196.4 529.665 1195.7 529.101 1194.76C528.537 1193.82 528.255 1192.63 528.255 1191.19C528.255 1189.05 529.051 1187.44 530.643 1186.36C532.247 1185.28 534.666 1184.69 537.899 1184.57L541.509 1184.44V1183.35C541.509 1181.91 541.17 1180.88 540.493 1180.27C539.829 1179.65 538.889 1179.35 537.674 1179.35C536.633 1179.35 535.625 1179.5 534.647 1179.8C533.669 1180.1 532.717 1180.47 531.79 1180.91L530.361 1177.79C531.376 1177.25 532.529 1176.81 533.82 1176.47C535.123 1176.13 536.477 1175.96 537.88 1175.96ZM541.49 1187.22L538.802 1187.32C536.596 1187.39 535.048 1187.77 534.158 1188.44C533.268 1189.12 532.823 1190.05 532.823 1191.23C532.823 1192.25 533.131 1193.01 533.745 1193.48C534.359 1193.95 535.167 1194.18 536.17 1194.18C537.699 1194.18 538.964 1193.75 539.967 1192.88C540.982 1192 541.49 1190.72 541.49 1189.03V1187.22ZM562.902 1175.96C565.245 1175.96 567.069 1176.57 568.372 1177.79C569.688 1178.99 570.346 1180.93 570.346 1183.59V1197.17H565.928V1184.42C565.928 1182.81 565.596 1181.6 564.932 1180.79C564.268 1179.98 563.24 1179.57 561.849 1179.57C559.831 1179.57 558.427 1180.19 557.638 1181.43C556.861 1182.67 556.472 1184.47 556.472 1186.83V1197.17H552.055V1176.36H555.495L556.115 1179.18H556.36C556.811 1178.45 557.368 1177.85 558.033 1177.39C558.709 1176.91 559.461 1176.56 560.289 1176.32C561.128 1176.08 561.999 1175.96 562.902 1175.96ZM575.892 1194.84C575.892 1193.81 576.155 1193.09 576.681 1192.67C577.22 1192.25 577.872 1192.04 578.636 1192.04C579.401 1192.04 580.052 1192.25 580.591 1192.67C581.143 1193.09 581.418 1193.81 581.418 1194.84C581.418 1195.84 581.143 1196.57 580.591 1197.02C580.052 1197.46 579.401 1197.68 578.636 1197.68C577.872 1197.68 577.22 1197.46 576.681 1197.02C576.155 1196.57 575.892 1195.84 575.892 1194.84Z" fill="#E17324"/>
<rect x="669.021" y="493.646" width="80.2083" height="641.667" rx="8.02083" fill="#E17324"/>
<path d="M683.521 1197.17H679.047V1169.68H694.575V1173.48H683.521V1182.05H693.86V1185.83H683.521V1197.17ZM707.414 1175.96C709.269 1175.96 710.861 1176.34 712.189 1177.11C713.518 1177.87 714.539 1178.96 715.253 1180.36C715.968 1181.76 716.325 1183.44 716.325 1185.4V1187.77H702.433C702.483 1189.79 703.022 1191.34 704.049 1192.43C705.09 1193.52 706.543 1194.07 708.411 1194.07C709.739 1194.07 710.93 1193.94 711.982 1193.69C713.048 1193.43 714.144 1193.04 715.272 1192.54V1196.13C714.232 1196.62 713.173 1196.98 712.095 1197.21C711.017 1197.43 709.727 1197.54 708.223 1197.54C706.18 1197.54 704.381 1197.15 702.827 1196.36C701.286 1195.56 700.076 1194.37 699.199 1192.79C698.334 1191.21 697.902 1189.25 697.902 1186.9C697.902 1184.57 698.297 1182.59 699.086 1180.96C699.876 1179.33 700.985 1178.09 702.414 1177.24C703.843 1176.39 705.509 1175.96 707.414 1175.96ZM707.414 1179.29C706.023 1179.29 704.895 1179.74 704.031 1180.64C703.178 1181.55 702.677 1182.87 702.527 1184.61H712.001C711.989 1183.57 711.813 1182.65 711.475 1181.85C711.149 1181.04 710.648 1180.42 709.971 1179.97C709.307 1179.52 708.455 1179.29 707.414 1179.29ZM725.724 1167.92V1174.97C725.724 1175.78 725.699 1176.58 725.649 1177.37C725.612 1178.15 725.574 1178.76 725.536 1179.2H725.724C726.288 1178.29 727.072 1177.54 728.074 1176.92C729.089 1176.29 730.386 1175.98 731.966 1175.98C734.434 1175.98 736.421 1176.89 737.925 1178.71C739.429 1180.51 740.181 1183.19 740.181 1186.73C740.181 1189.09 739.836 1191.07 739.147 1192.67C738.457 1194.28 737.486 1195.49 736.233 1196.32C734.992 1197.14 733.532 1197.54 731.853 1197.54C730.274 1197.54 728.995 1197.26 728.018 1196.68C727.053 1196.09 726.295 1195.41 725.743 1194.63H725.424L724.615 1197.17H721.307V1167.92H725.724ZM730.8 1179.57C729.547 1179.57 728.55 1179.82 727.811 1180.32C727.084 1180.83 726.558 1181.58 726.232 1182.58C725.906 1183.57 725.737 1184.83 725.724 1186.36V1186.75C725.724 1189.07 726.088 1190.84 726.815 1192.07C727.554 1193.3 728.895 1193.92 730.838 1193.92C732.379 1193.92 733.563 1193.29 734.391 1192.05C735.218 1190.8 735.631 1189.01 735.631 1186.68C735.631 1184.32 735.218 1182.55 734.391 1181.36C733.576 1180.17 732.379 1179.57 730.8 1179.57ZM744.655 1194.84C744.655 1193.81 744.918 1193.09 745.444 1192.67C745.983 1192.25 746.635 1192.04 747.399 1192.04C748.164 1192.04 748.816 1192.25 749.354 1192.67C749.906 1193.09 750.182 1193.81 750.182 1194.84C750.182 1195.84 749.906 1196.57 749.354 1197.02C748.816 1197.46 748.164 1197.68 747.399 1197.68C746.635 1197.68 745.983 1197.46 745.444 1197.02C744.918 1196.57 744.655 1195.84 744.655 1194.84Z" fill="#E17324"/>
<rect x="829.438" y="575.459" width="80.2083" height="559.854" rx="8.02083" fill="#E17324"/>
<path d="M851.326 1197.17L843.412 1174.21H843.242C843.28 1174.73 843.324 1175.43 843.374 1176.32C843.424 1177.21 843.468 1178.16 843.506 1179.18C843.543 1180.19 843.562 1181.16 843.562 1182.09V1197.17H839.464V1169.68H845.799L853.413 1191.62H853.525L861.402 1169.68H867.719V1197.17H863.414V1181.87C863.414 1181.03 863.426 1180.12 863.451 1179.14C863.489 1178.16 863.526 1177.23 863.564 1176.36C863.614 1175.48 863.652 1174.78 863.677 1174.25H863.526L855.311 1197.17H851.326ZM882.664 1175.96C885.295 1175.96 887.282 1176.55 888.623 1177.71C889.976 1178.88 890.653 1180.69 890.653 1183.16V1197.17H887.514L886.668 1194.22H886.517C885.928 1194.97 885.32 1195.59 884.694 1196.08C884.067 1196.57 883.34 1196.93 882.513 1197.17C881.699 1197.42 880.702 1197.54 879.524 1197.54C878.283 1197.54 877.174 1197.32 876.197 1196.87C875.219 1196.4 874.448 1195.7 873.885 1194.76C873.321 1193.82 873.039 1192.63 873.039 1191.19C873.039 1189.05 873.834 1187.44 875.426 1186.36C877.03 1185.28 879.449 1184.69 882.682 1184.57L886.292 1184.44V1183.35C886.292 1181.91 885.953 1180.88 885.277 1180.27C884.612 1179.65 883.672 1179.35 882.457 1179.35C881.417 1179.35 880.408 1179.5 879.43 1179.8C878.453 1180.1 877.5 1180.47 876.573 1180.91L875.144 1177.79C876.159 1177.25 877.312 1176.81 878.603 1176.47C879.906 1176.13 881.26 1175.96 882.664 1175.96ZM886.273 1187.22L883.585 1187.32C881.379 1187.39 879.831 1187.77 878.941 1188.44C878.052 1189.12 877.607 1190.05 877.607 1191.23C877.607 1192.25 877.914 1193.01 878.528 1193.48C879.142 1193.95 879.95 1194.18 880.953 1194.18C882.482 1194.18 883.748 1193.75 884.75 1192.88C885.765 1192 886.273 1190.72 886.273 1189.03V1187.22ZM907.384 1175.96C907.735 1175.96 908.117 1175.98 908.531 1176.02C908.944 1176.06 909.302 1176.11 909.602 1176.17L909.189 1180.3C908.926 1180.23 908.6 1180.17 908.211 1180.14C907.835 1180.1 907.497 1180.08 907.196 1180.08C906.406 1180.08 905.655 1180.21 904.94 1180.47C904.226 1180.72 903.593 1181.11 903.042 1181.64C902.49 1182.15 902.058 1182.8 901.744 1183.58C901.431 1184.35 901.274 1185.26 901.274 1186.28V1197.17H896.838V1176.36H900.297L900.898 1180.02H901.105C901.519 1179.28 902.033 1178.61 902.647 1177.99C903.261 1177.38 903.963 1176.89 904.752 1176.53C905.554 1176.15 906.432 1175.96 907.384 1175.96ZM912.817 1194.84C912.817 1193.81 913.08 1193.09 913.606 1192.67C914.145 1192.25 914.797 1192.04 915.562 1192.04C916.326 1192.04 916.978 1192.25 917.517 1192.67C918.068 1193.09 918.344 1193.81 918.344 1194.84C918.344 1195.84 918.068 1196.57 917.517 1197.02C916.978 1197.46 916.326 1197.68 915.562 1197.68C914.797 1197.68 914.145 1197.46 913.606 1197.02C913.08 1196.57 912.817 1195.84 912.817 1194.84Z" fill="#E17324"/>
<rect x="989.854" y="405.417" width="80.2083" height="729.896" rx="8.02083" fill="#E17324"/>
<path d="M1016.91 1197.17L1014.22 1189.54H1003.72L1001.03 1197.17H996.271L1006.5 1169.57H1011.5L1021.71 1197.17H1016.91ZM1013.06 1185.66L1010.45 1178.14C1010.35 1177.82 1010.2 1177.36 1010.01 1176.77C1009.82 1176.17 1009.64 1175.56 1009.45 1174.95C1009.26 1174.32 1009.1 1173.79 1008.98 1173.37C1008.85 1173.88 1008.7 1174.46 1008.51 1175.1C1008.33 1175.72 1008.16 1176.31 1007.98 1176.86C1007.82 1177.42 1007.69 1177.84 1007.61 1178.14L1004.97 1185.66H1013.06ZM1035.56 1175.96C1038.03 1175.96 1040.01 1176.86 1041.5 1178.67C1043 1180.47 1043.76 1183.16 1043.76 1186.72C1043.76 1189.07 1043.41 1191.06 1042.7 1192.67C1042.01 1194.28 1041.04 1195.49 1039.79 1196.32C1038.55 1197.14 1037.1 1197.54 1035.45 1197.54C1034.4 1197.54 1033.48 1197.41 1032.7 1197.13C1031.93 1196.85 1031.26 1196.5 1030.71 1196.06C1030.16 1195.61 1029.7 1195.12 1029.32 1194.59H1029.06C1029.12 1195.09 1029.18 1195.65 1029.23 1196.27C1029.29 1196.87 1029.32 1197.42 1029.32 1197.92V1206.4H1024.88V1176.36H1028.49L1029.11 1179.23H1029.32C1029.71 1178.64 1030.18 1178.1 1030.73 1177.6C1031.29 1177.1 1031.97 1176.7 1032.76 1176.41C1033.56 1176.11 1034.5 1175.96 1035.56 1175.96ZM1034.38 1179.57C1033.16 1179.57 1032.18 1179.82 1031.44 1180.3C1030.72 1180.78 1030.18 1181.5 1029.85 1182.47C1029.52 1183.43 1029.34 1184.64 1029.32 1186.09V1186.72C1029.32 1188.26 1029.48 1189.57 1029.79 1190.64C1030.12 1191.71 1030.65 1192.52 1031.39 1193.09C1032.14 1193.64 1033.15 1193.92 1034.43 1193.92C1035.51 1193.92 1036.4 1193.62 1037.1 1193.03C1037.82 1192.44 1038.35 1191.6 1038.7 1190.51C1039.05 1189.42 1039.23 1188.14 1039.23 1186.66C1039.23 1184.42 1038.83 1182.67 1038.02 1181.43C1037.23 1180.19 1036.02 1179.57 1034.38 1179.57ZM1059.42 1175.96C1059.77 1175.96 1060.15 1175.98 1060.56 1176.02C1060.98 1176.06 1061.33 1176.11 1061.63 1176.17L1061.22 1180.3C1060.96 1180.23 1060.63 1180.17 1060.24 1180.14C1059.87 1180.1 1059.53 1180.08 1059.23 1180.08C1058.44 1180.08 1057.69 1180.21 1056.97 1180.47C1056.26 1180.72 1055.63 1181.11 1055.07 1181.64C1054.52 1182.15 1054.09 1182.8 1053.78 1183.58C1053.46 1184.35 1053.31 1185.26 1053.31 1186.28V1197.17H1048.87V1176.36H1052.33L1052.93 1180.02H1053.14C1053.55 1179.28 1054.06 1178.61 1054.68 1177.99C1055.29 1177.38 1055.99 1176.89 1056.78 1176.53C1057.59 1176.15 1058.46 1175.96 1059.42 1175.96ZM1064.85 1194.84C1064.85 1193.81 1065.11 1193.09 1065.64 1192.67C1066.18 1192.25 1066.83 1192.04 1067.59 1192.04C1068.36 1192.04 1069.01 1192.25 1069.55 1192.67C1070.1 1193.09 1070.38 1193.81 1070.38 1194.84C1070.38 1195.84 1070.1 1196.57 1069.55 1197.02C1069.01 1197.46 1068.36 1197.68 1067.59 1197.68C1066.83 1197.68 1066.18 1197.46 1065.64 1197.02C1065.11 1196.57 1064.85 1195.84 1064.85 1194.84Z" fill="#E17324"/>
<rect x="1150.27" y="678.126" width="80.2083" height="457.188" rx="8.02083" fill="#E17324"/>
<path d="M1172.16 1197.17L1164.24 1174.21H1164.08C1164.11 1174.73 1164.16 1175.43 1164.21 1176.32C1164.26 1177.21 1164.3 1178.16 1164.34 1179.18C1164.38 1180.19 1164.4 1181.16 1164.4 1182.09V1197.17H1160.3V1169.68H1166.63L1174.25 1191.62H1174.36L1182.24 1169.68H1188.55V1197.17H1184.25V1181.87C1184.25 1181.03 1184.26 1180.12 1184.28 1179.14C1184.32 1178.16 1184.36 1177.23 1184.4 1176.36C1184.45 1175.48 1184.48 1174.78 1184.51 1174.25H1184.36L1176.14 1197.17H1172.16ZM1203.5 1175.96C1206.13 1175.96 1208.11 1176.55 1209.46 1177.71C1210.81 1178.88 1211.49 1180.69 1211.49 1183.16V1197.17H1208.35L1207.5 1194.22H1207.35C1206.76 1194.97 1206.15 1195.59 1205.53 1196.08C1204.9 1196.57 1204.17 1196.93 1203.35 1197.17C1202.53 1197.42 1201.54 1197.54 1200.36 1197.54C1199.12 1197.54 1198.01 1197.32 1197.03 1196.87C1196.05 1196.4 1195.28 1195.7 1194.72 1194.76C1194.15 1193.82 1193.87 1192.63 1193.87 1191.19C1193.87 1189.05 1194.67 1187.44 1196.26 1186.36C1197.86 1185.28 1200.28 1184.69 1203.52 1184.57L1207.12 1184.44V1183.35C1207.12 1181.91 1206.79 1180.88 1206.11 1180.27C1205.45 1179.65 1204.51 1179.35 1203.29 1179.35C1202.25 1179.35 1201.24 1179.5 1200.26 1179.8C1199.29 1180.1 1198.33 1180.47 1197.41 1180.91L1195.98 1177.79C1196.99 1177.25 1198.15 1176.81 1199.44 1176.47C1200.74 1176.13 1202.09 1175.96 1203.5 1175.96ZM1207.11 1187.22L1204.42 1187.32C1202.21 1187.39 1200.66 1187.77 1199.77 1188.44C1198.88 1189.12 1198.44 1190.05 1198.44 1191.23C1198.44 1192.25 1198.75 1193.01 1199.36 1193.48C1199.97 1193.95 1200.78 1194.18 1201.79 1194.18C1203.31 1194.18 1204.58 1193.75 1205.58 1192.88C1206.6 1192 1207.11 1190.72 1207.11 1189.03V1187.22ZM1214.53 1176.36H1219.34L1223.61 1188.24C1223.8 1188.78 1223.97 1189.31 1224.12 1189.84C1224.28 1190.35 1224.42 1190.86 1224.53 1191.36C1224.66 1191.86 1224.76 1192.36 1224.83 1192.86H1224.95C1225.07 1192.21 1225.25 1191.48 1225.47 1190.68C1225.71 1189.87 1225.97 1189.05 1226.26 1188.24L1230.36 1176.36H1235.12L1226.19 1200.02C1225.67 1201.38 1225.04 1202.53 1224.29 1203.48C1223.55 1204.45 1222.67 1205.18 1221.66 1205.66C1220.64 1206.17 1219.48 1206.42 1218.18 1206.42C1217.55 1206.42 1217.01 1206.38 1216.54 1206.3C1216.08 1206.24 1215.68 1206.17 1215.36 1206.1V1202.56C1215.62 1202.63 1215.95 1202.68 1216.35 1202.73C1216.76 1202.78 1217.17 1202.81 1217.6 1202.81C1218.39 1202.81 1219.07 1202.65 1219.64 1202.34C1220.22 1202.02 1220.71 1201.58 1221.11 1201C1221.51 1200.44 1221.84 1199.79 1222.11 1199.07L1222.84 1197.11L1214.53 1176.36Z" fill="#E17324"/>
<rect x="1310.69" y="536.292" width="80.2083" height="596.75" rx="8.02083" fill="#E17324"/>
<rect x="1406.94" y="574.792" width="80.2083" height="558.25" rx="8.02083" fill="#E17324" fill-opacity="0.5"/>
<path d="M1363.1 1205.76C1362.42 1205.76 1361.81 1205.71 1361.3 1205.62C1360.77 1205.55 1360.32 1205.44 1359.95 1205.3V1201.53C1360.35 1201.63 1360.78 1201.71 1361.24 1201.79C1361.71 1201.86 1362.2 1201.9 1362.73 1201.9C1363.42 1201.9 1364.04 1201.77 1364.61 1201.51C1365.17 1201.24 1365.62 1200.77 1365.94 1200.08C1366.28 1199.39 1366.45 1198.42 1366.45 1197.16V1170.62H1370.96V1197.01C1370.96 1199.06 1370.64 1200.72 1369.98 1202C1369.33 1203.29 1368.42 1204.23 1367.24 1204.83C1366.06 1205.45 1364.68 1205.76 1363.1 1205.76ZM1395.76 1177.29V1198.1H1392.28L1391.68 1195.3H1391.43C1391 1196.02 1390.44 1196.61 1389.76 1197.09C1389.08 1197.55 1388.33 1197.9 1387.51 1198.12C1386.68 1198.36 1385.81 1198.48 1384.89 1198.48C1383.33 1198.48 1381.98 1198.22 1380.87 1197.69C1379.77 1197.15 1378.92 1196.32 1378.33 1195.21C1377.74 1194.09 1377.45 1192.65 1377.45 1190.89V1177.29H1381.88V1190.06C1381.88 1191.68 1382.21 1192.88 1382.86 1193.69C1383.53 1194.49 1384.55 1194.89 1385.95 1194.89C1387.29 1194.89 1388.35 1194.61 1389.14 1194.06C1389.93 1193.51 1390.49 1192.7 1390.81 1191.62C1391.15 1190.54 1391.32 1189.22 1391.32 1187.65V1177.29H1395.76ZM1412.94 1176.9C1415.28 1176.9 1417.11 1177.51 1418.41 1178.72C1419.73 1179.93 1420.38 1181.86 1420.38 1184.53V1198.1H1415.97V1185.36C1415.97 1183.74 1415.63 1182.53 1414.97 1181.73C1414.31 1180.92 1413.28 1180.51 1411.89 1180.51C1409.87 1180.51 1408.47 1181.13 1407.68 1182.37C1406.9 1183.61 1406.51 1185.41 1406.51 1187.77V1198.1H1402.09V1177.29H1405.53L1406.15 1180.11H1406.4C1406.85 1179.39 1407.41 1178.79 1408.07 1178.33C1408.75 1177.85 1409.5 1177.49 1410.33 1177.26C1411.17 1177.02 1412.04 1176.9 1412.94 1176.9ZM1425.93 1195.77C1425.93 1194.75 1426.19 1194.03 1426.72 1193.61C1427.26 1193.19 1427.91 1192.97 1428.67 1192.97C1429.44 1192.97 1430.09 1193.19 1430.63 1193.61C1431.18 1194.03 1431.46 1194.75 1431.46 1195.77C1431.46 1196.78 1431.18 1197.5 1430.63 1197.95C1430.09 1198.39 1429.44 1198.61 1428.67 1198.61C1427.91 1198.61 1427.26 1198.39 1426.72 1197.95C1426.19 1197.5 1425.93 1196.78 1425.93 1195.77Z" fill="#E17324"/>
<rect x="1567.35" y="494.583" width="80.2083" height="641.667" rx="8.02083" fill="#E17324"/>
<rect x="1663.6" y="483.354" width="80.2083" height="652.896" rx="8.02083" fill="#E17324" fill-opacity="0.5"/>
<path d="M1626.77 1205.76C1626.08 1205.76 1625.48 1205.71 1624.97 1205.62C1624.44 1205.55 1623.99 1205.44 1623.61 1205.3V1201.53C1624.01 1201.63 1624.45 1201.71 1624.91 1201.79C1625.37 1201.86 1625.87 1201.9 1626.4 1201.9C1627.08 1201.9 1627.71 1201.77 1628.28 1201.51C1628.84 1201.24 1629.28 1200.77 1629.61 1200.08C1629.95 1199.39 1630.12 1198.42 1630.12 1197.16V1170.62H1634.63V1197.01C1634.63 1199.06 1634.3 1200.72 1633.65 1202C1633 1203.29 1632.09 1204.23 1630.91 1204.83C1629.73 1205.45 1628.35 1205.76 1626.77 1205.76ZM1659.43 1177.29V1198.1H1655.95L1655.35 1195.3H1655.1C1654.66 1196.02 1654.1 1196.61 1653.43 1197.09C1652.75 1197.55 1652 1197.9 1651.17 1198.12C1650.35 1198.36 1649.47 1198.48 1648.56 1198.48C1646.99 1198.48 1645.65 1198.22 1644.54 1197.69C1643.43 1197.15 1642.59 1196.32 1642 1195.21C1641.41 1194.09 1641.11 1192.65 1641.11 1190.89V1177.29H1645.55V1190.06C1645.55 1191.68 1645.88 1192.88 1646.53 1193.69C1647.19 1194.49 1648.22 1194.89 1649.61 1194.89C1650.95 1194.89 1652.02 1194.61 1652.81 1194.06C1653.6 1193.51 1654.16 1192.7 1654.48 1191.62C1654.82 1190.54 1654.99 1189.22 1654.99 1187.65V1177.29H1659.43ZM1670.2 1198.1H1665.76V1168.85H1670.2V1198.1ZM1675.87 1195.77C1675.87 1194.75 1676.14 1194.03 1676.66 1193.61C1677.2 1193.19 1677.85 1192.97 1678.62 1192.97C1679.38 1192.97 1680.03 1193.19 1680.57 1193.61C1681.13 1194.03 1681.4 1194.75 1681.4 1195.77C1681.4 1196.78 1681.13 1197.5 1680.57 1197.95C1680.03 1198.39 1679.38 1198.61 1678.62 1198.61C1677.85 1198.61 1677.2 1198.39 1676.66 1197.95C1676.14 1197.5 1675.87 1196.78 1675.87 1195.77Z" fill="#E17324"/>
<rect x="1824.02" y="535.355" width="80.2083" height="599.958" rx="8.02083" fill="#E17324" fill-opacity="0.5"/>
<path d="M1851.08 1197.17L1848.39 1189.54H1837.88L1835.19 1197.17H1830.44L1840.66 1169.57H1845.66L1855.87 1197.17H1851.08ZM1847.22 1185.66L1844.61 1178.14C1844.51 1177.82 1844.37 1177.36 1844.18 1176.77C1843.99 1176.17 1843.8 1175.56 1843.62 1174.95C1843.43 1174.32 1843.27 1173.79 1843.15 1173.37C1843.02 1173.88 1842.86 1174.46 1842.68 1175.1C1842.5 1175.72 1842.32 1176.31 1842.15 1176.86C1841.99 1177.42 1841.86 1177.84 1841.77 1178.14L1839.14 1185.66H1847.22ZM1877.19 1176.36V1197.17H1873.71L1873.11 1194.37H1872.87C1872.43 1195.08 1871.87 1195.68 1871.19 1196.15C1870.52 1196.62 1869.76 1196.96 1868.94 1197.19C1868.11 1197.42 1867.24 1197.54 1866.32 1197.54C1864.76 1197.54 1863.42 1197.28 1862.3 1196.75C1861.2 1196.22 1860.35 1195.39 1859.76 1194.27C1859.17 1193.16 1858.88 1191.72 1858.88 1189.95V1176.36H1863.32V1189.12C1863.32 1190.74 1863.64 1191.95 1864.29 1192.75C1864.96 1193.55 1865.99 1193.95 1867.38 1193.95C1868.72 1193.95 1869.78 1193.68 1870.57 1193.13C1871.36 1192.57 1871.92 1191.76 1872.25 1190.68C1872.58 1189.6 1872.75 1188.28 1872.75 1186.72V1176.36H1877.19ZM1889.47 1206.42C1886.65 1206.42 1884.48 1205.91 1882.98 1204.89C1881.48 1203.88 1880.72 1202.46 1880.72 1200.63C1880.72 1199.35 1881.13 1198.26 1881.93 1197.37C1882.73 1196.5 1883.88 1195.89 1885.37 1195.55C1884.8 1195.3 1884.31 1194.91 1883.9 1194.39C1883.5 1193.85 1883.3 1193.25 1883.3 1192.6C1883.3 1191.82 1883.52 1191.16 1883.96 1190.61C1884.4 1190.06 1885.05 1189.52 1885.93 1189.01C1884.84 1188.55 1883.96 1187.79 1883.3 1186.75C1882.65 1185.7 1882.32 1184.47 1882.32 1183.05C1882.32 1181.55 1882.64 1180.27 1883.28 1179.21C1883.92 1178.15 1884.85 1177.34 1886.08 1176.79C1887.31 1176.23 1888.8 1175.94 1890.54 1175.94C1890.91 1175.94 1891.32 1175.97 1891.76 1176.02C1892.21 1176.06 1892.62 1176.11 1893 1176.17C1893.39 1176.22 1893.68 1176.28 1893.88 1176.34H1901.08V1178.8L1897.55 1179.46C1897.89 1179.94 1898.16 1180.48 1898.36 1181.09C1898.56 1181.7 1898.66 1182.35 1898.66 1183.07C1898.66 1185.22 1897.91 1186.92 1896.42 1188.16C1894.94 1189.39 1892.9 1190.01 1890.29 1190.01C1889.67 1189.98 1889.06 1189.93 1888.47 1189.85C1888.02 1190.13 1887.67 1190.44 1887.44 1190.78C1887.2 1191.1 1887.08 1191.47 1887.08 1191.89C1887.08 1192.22 1887.2 1192.5 1887.44 1192.71C1887.67 1192.91 1888.02 1193.06 1888.49 1193.16C1888.96 1193.26 1889.54 1193.31 1890.22 1193.31H1893.81C1896.09 1193.31 1897.83 1193.8 1899.03 1194.76C1900.24 1195.73 1900.84 1197.14 1900.84 1199.01C1900.84 1201.38 1899.86 1203.2 1897.91 1204.48C1895.95 1205.77 1893.14 1206.42 1889.47 1206.42ZM1889.64 1203.31C1891.18 1203.31 1892.47 1203.16 1893.53 1202.86C1894.58 1202.56 1895.37 1202.13 1895.91 1201.57C1896.45 1201.01 1896.72 1200.36 1896.72 1199.59C1896.72 1198.92 1896.55 1198.4 1896.21 1198.03C1895.88 1197.67 1895.37 1197.42 1894.69 1197.28C1894.02 1197.14 1893.18 1197.07 1892.17 1197.07H1888.9C1888.09 1197.07 1887.37 1197.2 1886.74 1197.45C1886.11 1197.71 1885.62 1198.09 1885.27 1198.58C1884.94 1199.07 1884.77 1199.66 1884.77 1200.34C1884.77 1201.3 1885.19 1202.03 1886.03 1202.54C1886.88 1203.06 1888.08 1203.31 1889.64 1203.31ZM1890.5 1187.11C1891.79 1187.11 1892.75 1186.76 1893.38 1186.06C1894 1185.34 1894.32 1184.34 1894.32 1183.05C1894.32 1181.65 1893.99 1180.59 1893.34 1179.89C1892.7 1179.19 1891.75 1178.84 1890.48 1178.84C1889.24 1178.84 1888.29 1179.2 1887.64 1179.91C1887 1180.62 1886.68 1181.68 1886.68 1183.09C1886.68 1184.35 1887 1185.34 1887.64 1186.06C1888.29 1186.76 1889.25 1187.11 1890.5 1187.11ZM1904.24 1194.84C1904.24 1193.81 1904.5 1193.09 1905.03 1192.67C1905.57 1192.25 1906.22 1192.04 1906.99 1192.04C1907.75 1192.04 1908.4 1192.25 1908.94 1192.67C1909.49 1193.09 1909.77 1193.81 1909.77 1194.84C1909.77 1195.84 1909.49 1196.57 1908.94 1197.02C1908.4 1197.46 1907.75 1197.68 1906.99 1197.68C1906.22 1197.68 1905.57 1197.46 1905.03 1197.02C1904.5 1196.57 1904.24 1195.84 1904.24 1194.84Z" fill="#E17324"/>
<rect x="1984.44" y="411.834" width="80.2083" height="723.479" rx="8.02083" fill="#E17324" fill-opacity="0.5"/>
<path d="M2010.33 1189.69C2010.33 1191.31 2009.93 1192.72 2009.13 1193.9C2008.34 1195.07 2007.2 1195.98 2005.71 1196.6C2004.23 1197.23 2002.46 1197.54 2000.4 1197.54C1999.4 1197.54 1998.44 1197.49 1997.53 1197.37C1996.61 1197.26 1995.75 1197.1 1994.93 1196.89C1994.13 1196.66 1993.4 1196.39 1992.73 1196.08V1191.83C1993.85 1192.32 1995.1 1192.76 1996.48 1193.16C1997.85 1193.55 1999.26 1193.75 2000.69 1193.75C2001.85 1193.75 2002.82 1193.6 2003.58 1193.29C2004.36 1192.98 2004.93 1192.54 2005.31 1191.98C2005.69 1191.4 2005.87 1190.73 2005.87 1189.97C2005.87 1189.15 2005.66 1188.46 2005.22 1187.9C2004.78 1187.34 2004.11 1186.82 2003.22 1186.36C2002.35 1185.88 2001.24 1185.37 1999.92 1184.84C1999.01 1184.47 1998.15 1184.06 1997.32 1183.59C1996.51 1183.13 1995.78 1182.59 1995.14 1181.96C1994.5 1181.33 1993.99 1180.59 1993.62 1179.74C1993.25 1178.88 1993.07 1177.86 1993.07 1176.7C1993.07 1175.14 1993.44 1173.81 1994.18 1172.71C1994.93 1171.61 1995.99 1170.76 1997.34 1170.17C1998.71 1169.58 2000.3 1169.29 2002.11 1169.29C2003.56 1169.29 2004.91 1169.44 2006.18 1169.74C2007.45 1170.04 2008.71 1170.47 2009.94 1171.02L2008.51 1174.65C2007.38 1174.18 2006.28 1173.81 2005.22 1173.54C2004.16 1173.26 2003.09 1173.12 2001.98 1173.12C2001.03 1173.12 2000.22 1173.27 1999.56 1173.56C1998.89 1173.84 1998.39 1174.25 1998.04 1174.78C1997.7 1175.29 1997.53 1175.91 1997.53 1176.62C1997.53 1177.42 1997.72 1178.1 1998.11 1178.65C1998.51 1179.19 1999.13 1179.68 1999.95 1180.14C2000.79 1180.59 2001.87 1181.09 2003.19 1181.64C2004.7 1182.27 2005.99 1182.92 2007.04 1183.61C2008.11 1184.3 2008.92 1185.13 2009.48 1186.09C2010.05 1187.05 2010.33 1188.24 2010.33 1189.69ZM2023.47 1175.96C2025.33 1175.96 2026.92 1176.34 2028.25 1177.11C2029.57 1177.87 2030.6 1178.96 2031.31 1180.36C2032.02 1181.76 2032.38 1183.44 2032.38 1185.4V1187.77H2018.49C2018.54 1189.79 2019.08 1191.34 2020.11 1192.43C2021.15 1193.52 2022.6 1194.07 2024.47 1194.07C2025.8 1194.07 2026.99 1193.94 2028.04 1193.69C2029.1 1193.43 2030.2 1193.04 2031.33 1192.54V1196.13C2030.29 1196.62 2029.23 1196.98 2028.15 1197.21C2027.07 1197.43 2025.78 1197.54 2024.28 1197.54C2022.24 1197.54 2020.44 1197.15 2018.88 1196.36C2017.34 1195.56 2016.13 1194.37 2015.26 1192.79C2014.39 1191.21 2013.96 1189.25 2013.96 1186.9C2013.96 1184.57 2014.35 1182.59 2015.14 1180.96C2015.93 1179.33 2017.04 1178.09 2018.47 1177.24C2019.9 1176.39 2021.57 1175.96 2023.47 1175.96ZM2023.47 1179.29C2022.08 1179.29 2020.95 1179.74 2020.09 1180.64C2019.23 1181.55 2018.73 1182.87 2018.58 1184.61H2028.06C2028.04 1183.57 2027.87 1182.65 2027.53 1181.85C2027.21 1181.04 2026.7 1180.42 2026.03 1179.97C2025.36 1179.52 2024.51 1179.29 2023.47 1179.29ZM2048.04 1175.96C2050.51 1175.96 2052.49 1176.86 2053.98 1178.67C2055.48 1180.47 2056.24 1183.16 2056.24 1186.72C2056.24 1189.07 2055.89 1191.06 2055.18 1192.67C2054.49 1194.28 2053.52 1195.49 2052.27 1196.32C2051.03 1197.14 2049.58 1197.54 2047.93 1197.54C2046.88 1197.54 2045.96 1197.41 2045.18 1197.13C2044.41 1196.85 2043.74 1196.5 2043.19 1196.06C2042.64 1195.61 2042.18 1195.12 2041.8 1194.59H2041.54C2041.6 1195.09 2041.66 1195.65 2041.71 1196.27C2041.77 1196.87 2041.8 1197.42 2041.8 1197.92V1206.4H2037.36V1176.36H2040.97L2041.59 1179.23H2041.8C2042.19 1178.64 2042.66 1178.1 2043.21 1177.6C2043.77 1177.1 2044.45 1176.7 2045.24 1176.41C2046.04 1176.11 2046.98 1175.96 2048.04 1175.96ZM2046.86 1179.57C2045.64 1179.57 2044.66 1179.82 2043.92 1180.3C2043.2 1180.78 2042.66 1181.5 2042.33 1182.47C2042 1183.43 2041.82 1184.64 2041.8 1186.09V1186.72C2041.8 1188.26 2041.96 1189.57 2042.27 1190.64C2042.6 1191.71 2043.13 1192.52 2043.87 1193.09C2044.62 1193.64 2045.63 1193.92 2046.91 1193.92C2047.99 1193.92 2048.88 1193.62 2049.58 1193.03C2050.3 1192.44 2050.83 1191.6 2051.18 1190.51C2051.53 1189.42 2051.71 1188.14 2051.71 1186.66C2051.71 1184.42 2051.31 1182.67 2050.5 1181.43C2049.71 1180.19 2048.5 1179.57 2046.86 1179.57ZM2060.71 1194.84C2060.71 1193.81 2060.97 1193.09 2061.5 1192.67C2062.04 1192.25 2062.69 1192.04 2063.46 1192.04C2064.22 1192.04 2064.87 1192.25 2065.41 1192.67C2065.96 1193.09 2066.24 1193.81 2066.24 1194.84C2066.24 1195.84 2065.96 1196.57 2065.41 1197.02C2064.87 1197.46 2064.22 1197.68 2063.46 1197.68C2062.69 1197.68 2062.04 1197.46 2061.5 1197.02C2060.97 1196.57 2060.71 1195.84 2060.71 1194.84Z" fill="#E17324"/>
<rect x="2144.85" y="583.48" width="80.2083" height="551.833" rx="8.02083" fill="#E17324" fill-opacity="0.5"/>
<path d="M2179.28 1183.39C2179.28 1185.51 2179.01 1187.44 2178.47 1189.18C2177.95 1190.91 2177.15 1192.4 2176.08 1193.65C2175.02 1194.89 2173.68 1195.85 2172.08 1196.53C2170.48 1197.21 2168.6 1197.54 2166.44 1197.54C2164.25 1197.54 2162.34 1197.21 2160.73 1196.53C2159.12 1195.85 2157.79 1194.89 2156.72 1193.63C2155.67 1192.38 2154.88 1190.88 2154.35 1189.14C2153.83 1187.4 2153.56 1185.47 2153.56 1183.35C2153.56 1180.52 2154.03 1178.05 2154.96 1175.94C2155.9 1173.83 2157.32 1172.18 2159.22 1171.02C2161.14 1169.84 2163.56 1169.25 2166.48 1169.25C2169.34 1169.25 2171.71 1169.83 2173.6 1171C2175.5 1172.17 2176.91 1173.81 2177.85 1175.92C2178.8 1178.03 2179.28 1180.52 2179.28 1183.39ZM2158.3 1183.39C2158.3 1185.51 2158.59 1187.34 2159.17 1188.9C2159.74 1190.44 2160.63 1191.63 2161.82 1192.47C2163.02 1193.29 2164.56 1193.71 2166.44 1193.71C2168.33 1193.71 2169.88 1193.29 2171.07 1192.47C2172.26 1191.63 2173.13 1190.44 2173.7 1188.9C2174.26 1187.34 2174.54 1185.51 2174.54 1183.39C2174.54 1180.17 2173.9 1177.65 2172.61 1175.83C2171.33 1174 2169.29 1173.09 2166.48 1173.09C2164.6 1173.09 2163.05 1173.5 2161.84 1174.33C2160.63 1175.15 2159.74 1176.34 2159.17 1177.88C2158.59 1179.41 2158.3 1181.24 2158.3 1183.39ZM2193.12 1197.54C2191.15 1197.54 2189.44 1197.16 2188 1196.4C2186.56 1195.63 2185.45 1194.46 2184.68 1192.88C2183.9 1191.3 2183.51 1189.3 2183.51 1186.87C2183.51 1184.33 2183.94 1182.27 2184.79 1180.66C2185.64 1179.06 2186.82 1177.87 2188.32 1177.11C2189.84 1176.34 2191.58 1175.96 2193.53 1175.96C2194.77 1175.96 2195.89 1176.09 2196.9 1176.34C2197.91 1176.58 2198.77 1176.87 2199.47 1177.22L2198.15 1180.76C2197.39 1180.44 2196.61 1180.18 2195.8 1179.97C2195 1179.75 2194.23 1179.65 2193.49 1179.65C2192.28 1179.65 2191.26 1179.92 2190.45 1180.46C2189.65 1180.99 2189.04 1181.8 2188.64 1182.86C2188.25 1183.93 2188.06 1185.25 2188.06 1186.83C2188.06 1188.36 2188.26 1189.65 2188.66 1190.7C2189.06 1191.74 2189.66 1192.53 2190.45 1193.07C2191.24 1193.6 2192.21 1193.86 2193.36 1193.86C2194.5 1193.86 2195.52 1193.72 2196.43 1193.45C2197.33 1193.17 2198.18 1192.81 2198.98 1192.37V1196.21C2198.19 1196.66 2197.35 1196.99 2196.44 1197.21C2195.54 1197.43 2194.43 1197.54 2193.12 1197.54ZM2211.61 1193.97C2212.19 1193.97 2212.76 1193.92 2213.33 1193.82C2213.89 1193.71 2214.4 1193.58 2214.87 1193.43V1196.77C2214.38 1196.99 2213.75 1197.17 2212.97 1197.32C2212.19 1197.47 2211.38 1197.54 2210.54 1197.54C2209.37 1197.54 2208.31 1197.35 2207.37 1196.96C2206.43 1196.56 2205.68 1195.88 2205.13 1194.91C2204.58 1193.95 2204.3 1192.61 2204.3 1190.91V1179.72H2201.46V1177.75L2204.51 1176.19L2205.96 1171.73H2208.74V1176.36H2214.7V1179.72H2208.74V1190.85C2208.74 1191.9 2209 1192.69 2209.53 1193.2C2210.05 1193.71 2210.75 1193.97 2211.61 1193.97ZM2218.46 1194.84C2218.46 1193.81 2218.72 1193.09 2219.25 1192.67C2219.79 1192.25 2220.44 1192.04 2221.2 1192.04C2221.97 1192.04 2222.62 1192.25 2223.16 1192.67C2223.71 1193.09 2223.98 1193.81 2223.98 1194.84C2223.98 1195.84 2223.71 1196.57 2223.16 1197.02C2222.62 1197.46 2221.97 1197.68 2221.2 1197.68C2220.44 1197.68 2219.79 1197.46 2219.25 1197.02C2218.72 1196.57 2218.46 1195.84 2218.46 1194.84Z" fill="#E17324"/>
<rect x="2305.27" y="431.084" width="80.2083" height="704.229" rx="8.02083" fill="#E17324" fill-opacity="0.5"/>
<path d="M2338.23 1197.17H2332.69L2319.23 1175.23H2319.06C2319.11 1175.97 2319.15 1176.75 2319.19 1177.58C2319.24 1178.41 2319.28 1179.26 2319.3 1180.14C2319.34 1181.01 2319.37 1181.9 2319.4 1182.81V1197.17H2315.3V1169.68H2320.8L2334.25 1191.47H2334.38C2334.35 1190.83 2334.32 1190.1 2334.28 1189.27C2334.25 1188.44 2334.21 1187.59 2334.17 1186.72C2334.15 1185.83 2334.13 1184.97 2334.11 1184.14V1169.68H2338.23V1197.17ZM2363.42 1186.72C2363.42 1188.44 2363.2 1189.98 2362.75 1191.32C2362.29 1192.66 2361.64 1193.8 2360.77 1194.72C2359.91 1195.64 2358.87 1196.34 2357.65 1196.83C2356.43 1197.31 2355.06 1197.54 2353.53 1197.54C2352.1 1197.54 2350.8 1197.31 2349.6 1196.83C2348.41 1196.34 2347.38 1195.64 2346.5 1194.72C2345.64 1193.8 2344.97 1192.66 2344.49 1191.32C2344.02 1189.98 2343.78 1188.44 2343.78 1186.72C2343.78 1184.42 2344.17 1182.48 2344.96 1180.89C2345.76 1179.28 2346.9 1178.06 2348.38 1177.22C2349.86 1176.38 2351.62 1175.96 2353.67 1175.96C2355.58 1175.96 2357.27 1176.38 2358.74 1177.22C2360.21 1178.06 2361.35 1179.28 2362.18 1180.89C2363.01 1182.49 2363.42 1184.43 2363.42 1186.72ZM2348.33 1186.72C2348.33 1188.23 2348.51 1189.53 2348.87 1190.61C2349.25 1191.68 2349.82 1192.51 2350.6 1193.09C2351.38 1193.65 2352.38 1193.93 2353.61 1193.93C2354.84 1193.93 2355.84 1193.65 2356.62 1193.09C2357.39 1192.51 2357.96 1191.68 2358.33 1190.61C2358.69 1189.53 2358.87 1188.23 2358.87 1186.72C2358.87 1185.2 2358.69 1183.91 2358.33 1182.86C2357.96 1181.8 2357.39 1180.99 2356.62 1180.44C2355.84 1179.87 2354.83 1179.59 2353.59 1179.59C2351.76 1179.59 2350.43 1180.2 2349.59 1181.43C2348.75 1182.66 2348.33 1184.42 2348.33 1186.72ZM2373.25 1197.17L2365.34 1176.36H2370.02L2374.31 1188.58C2374.58 1189.35 2374.83 1190.19 2375.06 1191.1C2375.28 1192 2375.44 1192.76 2375.53 1193.37H2375.68C2375.77 1192.73 2375.94 1191.97 2376.19 1191.08C2376.44 1190.17 2376.69 1189.34 2376.96 1188.58L2381.24 1176.36H2385.91L2377.99 1197.17H2373.25ZM2388.42 1194.84C2388.42 1193.81 2388.69 1193.09 2389.21 1192.67C2389.75 1192.25 2390.4 1192.04 2391.17 1192.04C2391.93 1192.04 2392.59 1192.25 2393.12 1192.67C2393.68 1193.09 2393.95 1193.81 2393.95 1194.84C2393.95 1195.84 2393.68 1196.57 2393.12 1197.02C2392.59 1197.46 2391.93 1197.68 2391.17 1197.68C2390.4 1197.68 2389.75 1197.46 2389.21 1197.02C2388.69 1196.57 2388.42 1195.84 2388.42 1194.84Z" fill="#E17324"/>
<rect x="2465.69" y="524.126" width="80.2083" height="611.188" rx="8.02083" fill="#E17324" fill-opacity="0.5"/>
<path d="M2498.03 1183.16C2498.03 1186.26 2497.45 1188.85 2496.3 1190.93C2495.15 1192.99 2493.47 1194.55 2491.28 1195.61C2489.09 1196.65 2486.44 1197.17 2483.35 1197.17H2475.71V1169.68H2484.17C2487.02 1169.68 2489.47 1170.2 2491.54 1171.23C2493.61 1172.24 2495.21 1173.75 2496.34 1175.76C2497.46 1177.75 2498.03 1180.22 2498.03 1183.16ZM2493.33 1183.29C2493.33 1181.04 2492.97 1179.18 2492.26 1177.73C2491.55 1176.28 2490.51 1175.2 2489.14 1174.5C2487.77 1173.78 2486.08 1173.42 2484.08 1173.42H2480.23V1193.39H2483.42C2486.74 1193.39 2489.22 1192.54 2490.87 1190.85C2492.51 1189.16 2493.33 1186.64 2493.33 1183.29ZM2511.79 1175.96C2513.64 1175.96 2515.23 1176.34 2516.56 1177.11C2517.89 1177.87 2518.91 1178.96 2519.63 1180.36C2520.34 1181.76 2520.7 1183.44 2520.7 1185.4V1187.77H2506.81C2506.86 1189.79 2507.4 1191.34 2508.42 1192.43C2509.46 1193.52 2510.92 1194.07 2512.78 1194.07C2514.11 1194.07 2515.3 1193.94 2516.36 1193.69C2517.42 1193.43 2518.52 1193.04 2519.65 1192.54V1196.13C2518.61 1196.62 2517.55 1196.98 2516.47 1197.21C2515.39 1197.43 2514.1 1197.54 2512.6 1197.54C2510.55 1197.54 2508.76 1197.15 2507.2 1196.36C2505.66 1195.56 2504.45 1194.37 2503.57 1192.79C2502.71 1191.21 2502.28 1189.25 2502.28 1186.9C2502.28 1184.57 2502.67 1182.59 2503.46 1180.96C2504.25 1179.33 2505.36 1178.09 2506.79 1177.24C2508.22 1176.39 2509.88 1175.96 2511.79 1175.96ZM2511.79 1179.29C2510.4 1179.29 2509.27 1179.74 2508.4 1180.64C2507.55 1181.55 2507.05 1182.87 2506.9 1184.61H2516.38C2516.36 1183.57 2516.19 1182.65 2515.85 1181.85C2515.52 1181.04 2515.02 1180.42 2514.34 1179.97C2513.68 1179.52 2512.83 1179.29 2511.79 1179.29ZM2534.06 1197.54C2532.1 1197.54 2530.39 1197.16 2528.95 1196.4C2527.51 1195.63 2526.4 1194.46 2525.62 1192.88C2524.85 1191.3 2524.46 1189.3 2524.46 1186.87C2524.46 1184.33 2524.88 1182.27 2525.74 1180.66C2526.59 1179.06 2527.77 1177.87 2529.27 1177.11C2530.79 1176.34 2532.52 1175.96 2534.48 1175.96C2535.72 1175.96 2536.84 1176.09 2537.84 1176.34C2538.86 1176.58 2539.72 1176.87 2540.42 1177.22L2539.1 1180.76C2538.34 1180.44 2537.56 1180.18 2536.75 1179.97C2535.95 1179.75 2535.18 1179.65 2534.44 1179.65C2533.23 1179.65 2532.21 1179.92 2531.4 1180.46C2530.59 1180.99 2529.99 1181.8 2529.59 1182.86C2529.2 1183.93 2529.01 1185.25 2529.01 1186.83C2529.01 1188.36 2529.21 1189.65 2529.61 1190.7C2530.01 1191.74 2530.61 1192.53 2531.4 1193.07C2532.19 1193.6 2533.16 1193.86 2534.31 1193.86C2535.45 1193.86 2536.47 1193.72 2537.37 1193.45C2538.28 1193.17 2539.13 1192.81 2539.93 1192.37V1196.21C2539.14 1196.66 2538.29 1196.99 2537.39 1197.21C2536.49 1197.43 2535.38 1197.54 2534.06 1197.54ZM2544.18 1194.84C2544.18 1193.81 2544.44 1193.09 2544.97 1192.67C2545.51 1192.25 2546.16 1192.04 2546.92 1192.04C2547.69 1192.04 2548.34 1192.25 2548.88 1192.67C2549.43 1193.09 2549.71 1193.81 2549.71 1194.84C2549.71 1195.84 2549.43 1196.57 2548.88 1197.02C2548.34 1197.46 2547.69 1197.68 2546.92 1197.68C2546.16 1197.68 2545.51 1197.46 2544.97 1197.02C2544.44 1196.57 2544.18 1195.84 2544.18 1194.84Z" fill="#E17324"/>
<path d="M175.107 598.439V592.517C172.945 592.48 170.877 592.292 168.903 591.953C166.948 591.615 165.35 591.173 164.109 590.628V586.06C165.406 586.662 167.07 587.188 169.1 587.639C171.131 588.09 173.133 588.335 175.107 588.372V575.965C172.625 575.27 170.567 574.48 168.931 573.596C167.315 572.694 166.102 571.594 165.294 570.297C164.485 569 164.081 567.43 164.081 565.588C164.081 563.671 164.532 562.035 165.435 560.682C166.356 559.309 167.644 558.238 169.298 557.467C170.952 556.696 172.888 556.255 175.107 556.142V551.263H178.547V556.085C180.558 556.142 182.391 556.367 184.046 556.762C185.7 557.138 187.232 557.627 188.642 558.228L187.176 562.148C185.897 561.64 184.516 561.208 183.03 560.851C181.545 560.494 180.051 560.249 178.547 560.118V572.44C181.066 573.173 183.171 573.954 184.863 574.781C186.574 575.608 187.862 576.632 188.726 577.854C189.591 579.076 190.024 580.655 190.024 582.592C190.024 585.336 189.018 587.555 187.006 589.246C184.995 590.92 182.175 591.935 178.547 592.292V598.439H175.107ZM178.547 588.119C180.859 587.893 182.579 587.338 183.707 586.455C184.854 585.552 185.427 584.368 185.427 582.902C185.427 581.849 185.202 580.984 184.75 580.308C184.318 579.631 183.604 579.048 182.607 578.559C181.611 578.052 180.258 577.572 178.547 577.121V588.119ZM175.107 571.256V560.23C173.697 560.324 172.512 560.588 171.554 561.02C170.595 561.452 169.871 562.016 169.382 562.712C168.912 563.407 168.677 564.235 168.677 565.193C168.677 566.302 168.884 567.233 169.298 567.985C169.73 568.718 170.416 569.348 171.356 569.874C172.315 570.382 173.565 570.842 175.107 571.256ZM213.823 595.083H209.255V565.87C209.255 564.761 209.255 563.812 209.255 563.022C209.274 562.214 209.292 561.481 209.311 560.823C209.349 560.146 209.396 559.46 209.452 558.764C208.869 559.366 208.324 559.883 207.817 560.315C207.309 560.729 206.679 561.246 205.927 561.866L201.218 565.645L198.765 562.458L209.932 553.858H213.823V595.083ZM242.472 569.874C245.273 569.874 247.708 570.354 249.776 571.312C251.844 572.252 253.441 573.625 254.569 575.429C255.716 577.234 256.289 579.424 256.289 582C256.289 584.819 255.678 587.254 254.457 589.303C253.235 591.333 251.477 592.903 249.183 594.012C246.89 595.102 244.145 595.647 240.95 595.647C238.807 595.647 236.814 595.459 234.972 595.083C233.129 594.708 231.578 594.144 230.319 593.392V588.936C231.691 589.763 233.355 590.421 235.31 590.91C237.265 591.399 239.164 591.643 241.006 591.643C243.093 591.643 244.916 591.314 246.476 590.656C248.056 589.98 249.277 588.964 250.142 587.611C251.026 586.239 251.468 584.519 251.468 582.451C251.468 579.706 250.622 577.591 248.93 576.106C247.257 574.602 244.606 573.85 240.978 573.85C239.812 573.85 238.534 573.944 237.143 574.132C235.752 574.32 234.605 574.527 233.703 574.753L231.334 573.202L232.913 553.858H253.413V558.144H236.917L235.874 570.579C236.588 570.429 237.509 570.278 238.637 570.128C239.765 569.959 241.044 569.874 242.472 569.874ZM275.521 569.874C278.322 569.874 280.756 570.354 282.824 571.312C284.892 572.252 286.49 573.625 287.618 575.429C288.764 577.234 289.338 579.424 289.338 582C289.338 584.819 288.727 587.254 287.505 589.303C286.283 591.333 284.525 592.903 282.232 594.012C279.938 595.102 277.194 595.647 273.998 595.647C271.855 595.647 269.862 595.459 268.02 595.083C266.178 594.708 264.627 594.144 263.367 593.392V588.936C264.74 589.763 266.403 590.421 268.358 590.91C270.313 591.399 272.212 591.643 274.054 591.643C276.141 591.643 277.964 591.314 279.525 590.656C281.104 589.98 282.326 588.964 283.191 587.611C284.074 586.239 284.516 584.519 284.516 582.451C284.516 579.706 283.67 577.591 281.978 576.106C280.305 574.602 277.654 573.85 274.026 573.85C272.861 573.85 271.582 573.944 270.191 574.132C268.8 574.32 267.653 574.527 266.751 574.753L264.382 573.202L265.961 553.858H286.462V558.144H269.966L268.922 570.579C269.637 570.429 270.558 570.278 271.686 570.128C272.814 569.959 274.092 569.874 275.521 569.874ZM322.781 574.414C322.781 577.76 322.527 580.749 322.02 583.381C321.512 586.013 320.713 588.241 319.623 590.064C318.532 591.888 317.122 593.279 315.393 594.238C313.663 595.177 311.586 595.647 309.161 595.647C306.097 595.647 303.559 594.811 301.548 593.138C299.555 591.465 298.06 589.049 297.064 585.891C296.087 582.714 295.598 578.888 295.598 574.414C295.598 570.015 296.04 566.237 296.923 563.078C297.825 559.901 299.273 557.467 301.266 555.775C303.258 554.064 305.89 553.209 309.161 553.209C312.263 553.209 314.82 554.055 316.831 555.747C318.843 557.42 320.337 559.845 321.315 563.022C322.292 566.18 322.781 569.978 322.781 574.414ZM300.307 574.414C300.307 578.249 300.598 581.445 301.181 584.002C301.764 586.558 302.704 588.476 304.001 589.754C305.317 591.014 307.037 591.643 309.161 591.643C311.285 591.643 312.996 591.014 314.293 589.754C315.609 588.495 316.558 586.586 317.141 584.03C317.743 581.473 318.044 578.268 318.044 574.414C318.044 570.636 317.752 567.477 317.169 564.94C316.587 562.383 315.647 560.465 314.35 559.187C313.052 557.89 311.323 557.241 309.161 557.241C306.999 557.241 305.27 557.89 303.973 559.187C302.676 560.465 301.736 562.383 301.153 564.94C300.589 567.477 300.307 570.636 300.307 574.414Z" fill="#E17324"/>
<path d="M175.107 800.564V794.642C172.945 794.605 170.877 794.417 168.903 794.078C166.948 793.74 165.35 793.298 164.109 792.753V788.185C165.406 788.787 167.07 789.313 169.1 789.764C171.131 790.215 173.133 790.46 175.107 790.497V778.09C172.625 777.395 170.567 776.605 168.931 775.721C167.315 774.819 166.102 773.719 165.294 772.422C164.485 771.125 164.081 769.555 164.081 767.713C164.081 765.796 164.532 764.16 165.435 762.807C166.356 761.434 167.644 760.363 169.298 759.592C170.952 758.821 172.888 758.38 175.107 758.267V753.388H178.547V758.21C180.558 758.267 182.391 758.492 184.046 758.887C185.7 759.263 187.232 759.752 188.642 760.353L187.176 764.273C185.897 763.765 184.516 763.333 183.03 762.976C181.545 762.619 180.051 762.374 178.547 762.243V774.565C181.066 775.298 183.171 776.079 184.863 776.906C186.574 777.733 187.862 778.757 188.726 779.979C189.591 781.201 190.024 782.78 190.024 784.717C190.024 787.461 189.018 789.68 187.006 791.371C184.995 793.045 182.175 794.06 178.547 794.417V800.564H175.107ZM178.547 790.244C180.859 790.018 182.579 789.463 183.707 788.58C184.854 787.677 185.427 786.493 185.427 785.027C185.427 783.974 185.202 783.109 184.75 782.433C184.318 781.756 183.604 781.173 182.607 780.684C181.611 780.177 180.258 779.697 178.547 779.246V790.244ZM175.107 773.381V762.355C173.697 762.449 172.512 762.713 171.554 763.145C170.595 763.577 169.871 764.141 169.382 764.837C168.912 765.532 168.677 766.36 168.677 767.318C168.677 768.427 168.884 769.358 169.298 770.11C169.73 770.843 170.416 771.473 171.356 771.999C172.315 772.507 173.565 772.967 175.107 773.381ZM213.823 797.208H209.255V767.995C209.255 766.886 209.255 765.937 209.255 765.147C209.274 764.339 209.292 763.606 209.311 762.948C209.349 762.271 209.396 761.585 209.452 760.889C208.869 761.491 208.324 762.008 207.817 762.44C207.309 762.854 206.679 763.371 205.927 763.991L201.218 767.77L198.765 764.583L209.932 755.983H213.823V797.208ZM256.684 776.539C256.684 779.885 256.43 782.874 255.923 785.506C255.415 788.138 254.616 790.366 253.526 792.189C252.436 794.013 251.026 795.404 249.296 796.363C247.567 797.302 245.49 797.772 243.064 797.772C240 797.772 237.462 796.936 235.451 795.263C233.458 793.59 231.964 791.174 230.967 788.016C229.99 784.839 229.501 781.013 229.501 776.539C229.501 772.14 229.943 768.362 230.826 765.203C231.729 762.026 233.176 759.592 235.169 757.9C237.162 756.189 239.793 755.334 243.064 755.334C246.166 755.334 248.723 756.18 250.734 757.872C252.746 759.545 254.24 761.97 255.218 765.147C256.195 768.305 256.684 772.103 256.684 776.539ZM234.21 776.539C234.21 780.374 234.502 783.57 235.084 786.127C235.667 788.683 236.607 790.601 237.904 791.879C239.22 793.139 240.94 793.768 243.064 793.768C245.189 793.768 246.899 793.139 248.197 791.879C249.512 790.62 250.462 788.711 251.045 786.155C251.646 783.598 251.947 780.393 251.947 776.539C251.947 772.761 251.656 769.602 251.073 767.065C250.49 764.508 249.55 762.59 248.253 761.312C246.956 760.015 245.226 759.366 243.064 759.366C240.903 759.366 239.173 760.015 237.876 761.312C236.579 762.59 235.639 764.508 235.056 767.065C234.492 769.602 234.21 772.761 234.21 776.539ZM289.733 776.539C289.733 779.885 289.479 782.874 288.971 785.506C288.464 788.138 287.665 790.366 286.574 792.189C285.484 794.013 284.074 795.404 282.345 796.363C280.615 797.302 278.538 797.772 276.113 797.772C273.049 797.772 270.511 796.936 268.499 795.263C266.507 793.59 265.012 791.174 264.016 788.016C263.038 784.839 262.549 781.013 262.549 776.539C262.549 772.14 262.991 768.362 263.875 765.203C264.777 762.026 266.225 759.592 268.217 757.9C270.21 756.189 272.842 755.334 276.113 755.334C279.215 755.334 281.771 756.18 283.783 757.872C285.794 759.545 287.289 761.97 288.266 765.147C289.244 768.305 289.733 772.103 289.733 776.539ZM267.259 776.539C267.259 780.374 267.55 783.57 268.133 786.127C268.715 788.683 269.655 790.601 270.953 791.879C272.268 793.139 273.989 793.768 276.113 793.768C278.237 793.768 279.948 793.139 281.245 791.879C282.561 790.62 283.51 788.711 284.093 786.155C284.694 783.598 284.995 780.393 284.995 776.539C284.995 772.761 284.704 769.602 284.121 767.065C283.538 764.508 282.598 762.59 281.301 761.312C280.004 760.015 278.275 759.366 276.113 759.366C273.951 759.366 272.221 760.015 270.924 761.312C269.627 762.59 268.687 764.508 268.104 767.065C267.541 769.602 267.259 772.761 267.259 776.539ZM322.781 776.539C322.781 779.885 322.527 782.874 322.02 785.506C321.512 788.138 320.713 790.366 319.623 792.189C318.532 794.013 317.122 795.404 315.393 796.363C313.663 797.302 311.586 797.772 309.161 797.772C306.097 797.772 303.559 796.936 301.548 795.263C299.555 793.59 298.06 791.174 297.064 788.016C296.087 784.839 295.598 781.013 295.598 776.539C295.598 772.14 296.04 768.362 296.923 765.203C297.825 762.026 299.273 759.592 301.266 757.9C303.258 756.189 305.89 755.334 309.161 755.334C312.263 755.334 314.82 756.18 316.831 757.872C318.843 759.545 320.337 761.97 321.315 765.147C322.292 768.305 322.781 772.103 322.781 776.539ZM300.307 776.539C300.307 780.374 300.598 783.57 301.181 786.127C301.764 788.683 302.704 790.601 304.001 791.879C305.317 793.139 307.037 793.768 309.161 793.768C311.285 793.768 312.996 793.139 314.293 791.879C315.609 790.62 316.558 788.711 317.141 786.155C317.743 783.598 318.044 780.393 318.044 776.539C318.044 772.761 317.752 769.602 317.169 767.065C316.587 764.508 315.647 762.59 314.35 761.312C313.052 760.015 311.323 759.366 309.161 759.366C306.999 759.366 305.27 760.015 303.973 761.312C302.676 762.59 301.736 764.508 301.153 767.065C300.589 769.602 300.307 772.761 300.307 776.539Z" fill="#E17324"/>
<path d="M175.107 420.377V414.455C172.945 414.417 170.877 414.229 168.903 413.891C166.948 413.553 165.35 413.111 164.109 412.566V407.998C165.406 408.599 167.07 409.125 169.1 409.577C171.131 410.028 173.133 410.272 175.107 410.31V397.903C172.625 397.207 170.567 396.417 168.931 395.534C167.315 394.632 166.102 393.532 165.294 392.235C164.485 390.938 164.081 389.368 164.081 387.526C164.081 385.608 164.532 383.973 165.435 382.619C166.356 381.247 167.644 380.175 169.298 379.405C170.952 378.634 172.888 378.192 175.107 378.079V373.201H178.547V378.023C180.558 378.079 182.391 378.305 184.046 378.7C185.7 379.076 187.232 379.564 188.642 380.166L187.176 384.085C185.897 383.578 184.516 383.146 183.03 382.788C181.545 382.431 180.051 382.187 178.547 382.055V394.378C181.066 395.111 183.171 395.891 184.863 396.718C186.574 397.545 187.862 398.57 188.726 399.792C189.591 401.014 190.024 402.593 190.024 404.529C190.024 407.274 189.018 409.492 187.006 411.184C184.995 412.857 182.175 413.872 178.547 414.229V420.377H175.107ZM178.547 410.056C180.859 409.83 182.579 409.276 183.707 408.392C184.854 407.49 185.427 406.306 185.427 404.839C185.427 403.787 185.202 402.922 184.75 402.245C184.318 401.568 183.604 400.986 182.607 400.497C181.611 399.989 180.258 399.51 178.547 399.059V410.056ZM175.107 393.193V382.168C173.697 382.262 172.512 382.525 171.554 382.958C170.595 383.39 169.871 383.954 169.382 384.649C168.912 385.345 168.677 386.172 168.677 387.131C168.677 388.24 168.884 389.171 169.298 389.922C169.73 390.656 170.416 391.285 171.356 391.812C172.315 392.319 173.565 392.78 175.107 393.193ZM223.41 417.021H196.396V413.101L207.422 401.907C209.471 399.839 211.191 397.997 212.582 396.38C213.992 394.763 215.064 393.175 215.797 391.614C216.53 390.035 216.896 388.306 216.896 386.426C216.896 384.095 216.201 382.318 214.81 381.096C213.438 379.856 211.623 379.235 209.368 379.235C207.394 379.235 205.645 379.574 204.123 380.25C202.6 380.927 201.04 381.886 199.442 383.127L196.932 379.969C198.022 379.047 199.207 378.23 200.485 377.515C201.782 376.801 203.164 376.237 204.63 375.823C206.115 375.41 207.694 375.203 209.368 375.203C211.905 375.203 214.095 375.645 215.938 376.528C217.78 377.412 219.199 378.671 220.196 380.307C221.211 381.942 221.718 383.888 221.718 386.144C221.718 388.325 221.286 390.355 220.421 392.235C219.557 394.096 218.344 395.948 216.784 397.79C215.223 399.613 213.4 401.55 211.313 403.599L202.346 412.537V412.735H223.41V417.021ZM256.684 396.352C256.684 399.698 256.43 402.687 255.923 405.319C255.415 407.951 254.616 410.178 253.526 412.002C252.436 413.825 251.026 415.216 249.296 416.175C247.567 417.115 245.49 417.585 243.064 417.585C240 417.585 237.462 416.748 235.451 415.075C233.458 413.402 231.964 410.987 230.967 407.828C229.99 404.651 229.501 400.826 229.501 396.352C229.501 391.953 229.943 388.174 230.826 385.016C231.729 381.839 233.176 379.405 235.169 377.713C237.162 376.002 239.793 375.147 243.064 375.147C246.166 375.147 248.723 375.993 250.734 377.684C252.746 379.358 254.24 381.783 255.218 384.96C256.195 388.118 256.684 391.915 256.684 396.352ZM234.21 396.352C234.21 400.187 234.502 403.382 235.084 405.939C235.667 408.496 236.607 410.413 237.904 411.692C239.22 412.951 240.94 413.581 243.064 413.581C245.189 413.581 246.899 412.951 248.197 411.692C249.512 410.432 250.462 408.524 251.045 405.967C251.646 403.411 251.947 400.205 251.947 396.352C251.947 392.573 251.656 389.415 251.073 386.877C250.49 384.32 249.55 382.403 248.253 381.125C246.956 379.828 245.226 379.179 243.064 379.179C240.903 379.179 239.173 379.828 237.876 381.125C236.579 382.403 235.639 384.32 235.056 386.877C234.492 389.415 234.21 392.573 234.21 396.352ZM289.733 396.352C289.733 399.698 289.479 402.687 288.971 405.319C288.464 407.951 287.665 410.178 286.574 412.002C285.484 413.825 284.074 415.216 282.345 416.175C280.615 417.115 278.538 417.585 276.113 417.585C273.049 417.585 270.511 416.748 268.499 415.075C266.507 413.402 265.012 410.987 264.016 407.828C263.038 404.651 262.549 400.826 262.549 396.352C262.549 391.953 262.991 388.174 263.875 385.016C264.777 381.839 266.225 379.405 268.217 377.713C270.21 376.002 272.842 375.147 276.113 375.147C279.215 375.147 281.771 375.993 283.783 377.684C285.794 379.358 287.289 381.783 288.266 384.96C289.244 388.118 289.733 391.915 289.733 396.352ZM267.259 396.352C267.259 400.187 267.55 403.382 268.133 405.939C268.715 408.496 269.655 410.413 270.953 411.692C272.268 412.951 273.989 413.581 276.113 413.581C278.237 413.581 279.948 412.951 281.245 411.692C282.561 410.432 283.51 408.524 284.093 405.967C284.694 403.411 284.995 400.205 284.995 396.352C284.995 392.573 284.704 389.415 284.121 386.877C283.538 384.32 282.598 382.403 281.301 381.125C280.004 379.828 278.275 379.179 276.113 379.179C273.951 379.179 272.221 379.828 270.924 381.125C269.627 382.403 268.687 384.32 268.104 386.877C267.541 389.415 267.259 392.573 267.259 396.352ZM322.781 396.352C322.781 399.698 322.527 402.687 322.02 405.319C321.512 407.951 320.713 410.178 319.623 412.002C318.532 413.825 317.122 415.216 315.393 416.175C313.663 417.115 311.586 417.585 309.161 417.585C306.097 417.585 303.559 416.748 301.548 415.075C299.555 413.402 298.06 410.987 297.064 407.828C296.087 404.651 295.598 400.826 295.598 396.352C295.598 391.953 296.04 388.174 296.923 385.016C297.825 381.839 299.273 379.405 301.266 377.713C303.258 376.002 305.89 375.147 309.161 375.147C312.263 375.147 314.82 375.993 316.831 377.684C318.843 379.358 320.337 381.783 321.315 384.96C322.292 388.118 322.781 391.915 322.781 396.352ZM300.307 396.352C300.307 400.187 300.598 403.382 301.181 405.939C301.764 408.496 302.704 410.413 304.001 411.692C305.317 412.951 307.037 413.581 309.161 413.581C311.285 413.581 312.996 412.951 314.293 411.692C315.609 410.432 316.558 408.524 317.141 405.967C317.743 403.411 318.044 400.205 318.044 396.352C318.044 392.573 317.752 389.415 317.169 386.877C316.587 384.32 315.647 382.403 314.35 381.125C313.052 379.828 311.323 379.179 309.161 379.179C306.999 379.179 305.27 379.828 303.973 381.125C302.676 382.403 301.736 384.32 301.153 386.877C300.589 389.415 300.307 392.573 300.307 396.352Z" fill="#E17324"/>
<path d="M442.031 1132.24V775.313M365.833 393.521H442.031V578M442.031 578H365.833M442.031 578V775.313M442.031 775.313H365.833" stroke="#E17324" stroke-width="4.8125"/>
<rect x="816.107" y="1329.42" width="208.542" height="90.0833" rx="8.02083" fill="#E17324"/>
<path d="M856.019 1388.46L868.146 1361.51H873.074L885.24 1388.46H880.004L869.571 1364.16H871.573L861.178 1388.46H856.019ZM861.601 1382.22L862.949 1378.29H877.502L878.849 1382.22H861.601ZM897.45 1388.73C895.294 1388.73 893.369 1388.28 891.675 1387.38C890.007 1386.46 888.698 1385.2 887.748 1383.61C886.799 1382.02 886.324 1380.21 886.324 1378.18C886.324 1376.13 886.799 1374.32 887.748 1372.75C888.698 1371.16 890.007 1369.91 891.675 1369.02C893.369 1368.12 895.294 1367.67 897.45 1367.67C899.452 1367.67 901.211 1368.08 902.725 1368.9C904.265 1369.7 905.433 1370.88 906.228 1372.44L902.532 1374.6C901.916 1373.62 901.159 1372.9 900.261 1372.44C899.388 1371.98 898.439 1371.75 897.412 1371.75C896.231 1371.75 895.166 1372.01 894.216 1372.52C893.267 1373.03 892.522 1373.78 891.983 1374.75C891.444 1375.7 891.175 1376.84 891.175 1378.18C891.175 1379.51 891.444 1380.67 891.983 1381.64C892.522 1382.59 893.267 1383.33 894.216 1383.84C895.166 1384.35 896.231 1384.61 897.412 1384.61C898.439 1384.61 899.388 1384.38 900.261 1383.92C901.159 1383.45 901.916 1382.73 902.532 1381.76L906.228 1383.92C905.433 1385.46 904.265 1386.65 902.725 1387.5C901.211 1388.32 899.452 1388.73 897.45 1388.73ZM918.39 1388.73C916.131 1388.73 914.386 1388.15 913.154 1387C911.922 1385.81 911.306 1384.08 911.306 1381.8V1363.36H916.119V1381.68C916.119 1382.66 916.362 1383.41 916.85 1383.95C917.363 1384.49 918.069 1384.76 918.968 1384.76C920.046 1384.76 920.944 1384.48 921.663 1383.92L923.01 1387.34C922.445 1387.8 921.752 1388.15 920.931 1388.38C920.11 1388.61 919.263 1388.73 918.39 1388.73ZM907.918 1371.9V1368.05H921.624V1371.9H907.918ZM935.67 1388.73C933.925 1388.73 932.385 1388.41 931.05 1387.77C929.715 1387.1 928.676 1386.1 927.932 1384.76C927.187 1383.4 926.815 1381.7 926.815 1379.64V1367.9H931.628V1378.99C931.628 1380.84 932.038 1382.22 932.86 1383.15C933.707 1384.04 934.9 1384.49 936.44 1384.49C937.569 1384.49 938.545 1384.26 939.366 1383.8C940.213 1383.34 940.868 1382.64 941.33 1381.72C941.817 1380.8 942.061 1379.65 942.061 1378.29V1367.9H946.874V1388.46H942.292V1382.91L943.101 1384.61C942.408 1385.94 941.394 1386.97 940.059 1387.69C938.724 1388.38 937.261 1388.73 935.67 1388.73ZM965.841 1388.46V1384.3L965.572 1383.41V1376.14C965.572 1374.73 965.148 1373.64 964.301 1372.87C963.454 1372.07 962.171 1371.67 960.451 1371.67C959.296 1371.67 958.154 1371.85 957.025 1372.21C955.921 1372.57 954.984 1373.07 954.214 1373.71L952.328 1370.21C953.431 1369.36 954.74 1368.73 956.255 1368.32C957.795 1367.89 959.386 1367.67 961.029 1367.67C964.006 1367.67 966.303 1368.39 967.92 1369.82C969.563 1371.24 970.384 1373.43 970.384 1376.41V1388.46H965.841ZM959.373 1388.73C957.833 1388.73 956.486 1388.47 955.331 1387.96C954.176 1387.42 953.277 1386.69 952.636 1385.76C952.02 1384.81 951.712 1383.75 951.712 1382.57C951.712 1381.41 951.981 1380.37 952.52 1379.45C953.085 1378.53 953.996 1377.79 955.254 1377.25C956.511 1376.72 958.18 1376.45 960.259 1376.45H966.226V1379.64H960.605C958.962 1379.64 957.859 1379.91 957.294 1380.45C956.729 1380.96 956.447 1381.61 956.447 1382.38C956.447 1383.25 956.794 1383.94 957.487 1384.45C958.18 1384.97 959.142 1385.22 960.374 1385.22C961.555 1385.22 962.607 1384.95 963.531 1384.42C964.481 1383.88 965.161 1383.08 965.572 1382.03L966.38 1384.92C965.918 1386.12 965.084 1387.06 963.878 1387.73C962.697 1388.39 961.195 1388.73 959.373 1388.73ZM976.56 1388.46V1359.89H981.373V1388.46H976.56Z" fill="white"/>
<rect x="1064.75" y="1329.42" width="256.667" height="90.0833" rx="8.02083" fill="#E17324" fill-opacity="0.5"/>
<path d="M1113.1 1372.71H1126.49V1376.83H1113.1V1372.71ZM1113.48 1384.26H1128.69V1388.46H1108.48V1361.51H1128.15V1365.7H1113.48V1384.26ZM1139.97 1388.73C1138.25 1388.73 1136.6 1388.51 1135 1388.07C1133.44 1387.61 1132.19 1387.06 1131.27 1386.42L1133.12 1382.76C1134.04 1383.35 1135.15 1383.84 1136.43 1384.22C1137.71 1384.61 1139 1384.8 1140.28 1384.8C1141.79 1384.8 1142.88 1384.6 1143.55 1384.18C1144.24 1383.77 1144.59 1383.22 1144.59 1382.53C1144.59 1381.96 1144.36 1381.54 1143.9 1381.26C1143.44 1380.95 1142.83 1380.72 1142.09 1380.57C1141.34 1380.41 1140.51 1380.27 1139.59 1380.14C1138.69 1380.01 1137.78 1379.85 1136.85 1379.64C1135.95 1379.41 1135.13 1379.09 1134.39 1378.68C1133.64 1378.24 1133.04 1377.67 1132.58 1376.95C1132.12 1376.23 1131.89 1375.28 1131.89 1374.1C1131.89 1372.79 1132.26 1371.66 1133 1370.71C1133.75 1369.73 1134.79 1368.99 1136.12 1368.48C1137.48 1367.94 1139.09 1367.67 1140.93 1367.67C1142.32 1367.67 1143.72 1367.82 1145.13 1368.13C1146.54 1368.44 1147.71 1368.87 1148.63 1369.44L1146.79 1373.1C1145.81 1372.51 1144.82 1372.11 1143.82 1371.9C1142.85 1371.67 1141.87 1371.56 1140.89 1371.56C1139.43 1371.56 1138.34 1371.78 1137.62 1372.21C1136.93 1372.65 1136.58 1373.2 1136.58 1373.87C1136.58 1374.48 1136.81 1374.94 1137.28 1375.25C1137.74 1375.56 1138.34 1375.8 1139.09 1375.98C1139.83 1376.16 1140.65 1376.32 1141.55 1376.45C1142.47 1376.55 1143.38 1376.72 1144.28 1376.95C1145.18 1377.18 1146 1377.5 1146.75 1377.91C1147.52 1378.29 1148.13 1378.85 1148.59 1379.56C1149.06 1380.28 1149.29 1381.22 1149.29 1382.38C1149.29 1383.66 1148.9 1384.78 1148.13 1385.72C1147.39 1386.67 1146.32 1387.42 1144.94 1387.96C1143.55 1388.47 1141.9 1388.73 1139.97 1388.73ZM1161.17 1388.73C1158.91 1388.73 1157.17 1388.15 1155.93 1387C1154.7 1385.81 1154.09 1384.08 1154.09 1381.8V1363.36H1158.9V1381.68C1158.9 1382.66 1159.14 1383.41 1159.63 1383.95C1160.14 1384.49 1160.85 1384.76 1161.75 1384.76C1162.83 1384.76 1163.72 1384.48 1164.44 1383.92L1165.79 1387.34C1165.23 1387.8 1164.53 1388.15 1163.71 1388.38C1162.89 1388.61 1162.04 1388.73 1161.17 1388.73ZM1150.7 1371.9V1368.05H1164.4V1371.9H1150.7ZM1169.75 1388.46V1367.9H1174.56V1388.46H1169.75ZM1172.18 1364.51C1171.28 1364.51 1170.53 1364.23 1169.94 1363.66C1169.38 1363.1 1169.1 1362.42 1169.1 1361.62C1169.1 1360.8 1169.38 1360.12 1169.94 1359.58C1170.53 1359.02 1171.28 1358.74 1172.18 1358.74C1173.07 1358.74 1173.81 1359.01 1174.37 1359.54C1174.96 1360.06 1175.26 1360.71 1175.26 1361.51C1175.26 1362.36 1174.97 1363.07 1174.41 1363.66C1173.84 1364.23 1173.1 1364.51 1172.18 1364.51ZM1206.83 1367.67C1208.47 1367.67 1209.92 1367.99 1211.18 1368.63C1212.46 1369.27 1213.46 1370.26 1214.18 1371.6C1214.9 1372.9 1215.26 1374.6 1215.26 1376.68V1388.46H1210.45V1377.29C1210.45 1375.47 1210.05 1374.11 1209.25 1373.21C1208.46 1372.31 1207.32 1371.86 1205.83 1371.86C1204.77 1371.86 1203.84 1372.1 1203.02 1372.56C1202.22 1373.02 1201.59 1373.7 1201.13 1374.6C1200.69 1375.5 1200.48 1376.64 1200.48 1378.02V1388.46H1195.66V1377.29C1195.66 1375.47 1195.26 1374.11 1194.47 1373.21C1193.67 1372.31 1192.53 1371.86 1191.04 1371.86C1189.99 1371.86 1189.05 1372.1 1188.23 1372.56C1187.44 1373.02 1186.81 1373.7 1186.35 1374.6C1185.91 1375.5 1185.69 1376.64 1185.69 1378.02V1388.46H1180.88V1367.9H1185.46V1373.37L1184.65 1371.75C1185.34 1370.41 1186.35 1369.4 1187.65 1368.71C1188.99 1368.01 1190.5 1367.67 1192.2 1367.67C1194.12 1367.67 1195.79 1368.14 1197.2 1369.09C1198.64 1370.04 1199.59 1371.48 1200.05 1373.4L1198.17 1372.75C1198.83 1371.21 1199.94 1369.98 1201.48 1369.05C1203.02 1368.13 1204.8 1367.67 1206.83 1367.67ZM1234.08 1388.46V1384.3L1233.81 1383.41V1376.14C1233.81 1374.73 1233.38 1373.64 1232.54 1372.87C1231.69 1372.07 1230.41 1371.67 1228.69 1371.67C1227.53 1371.67 1226.39 1371.85 1225.26 1372.21C1224.16 1372.57 1223.22 1373.07 1222.45 1373.71L1220.56 1370.21C1221.67 1369.36 1222.97 1368.73 1224.49 1368.32C1226.03 1367.89 1227.62 1367.67 1229.26 1367.67C1232.24 1367.67 1234.54 1368.39 1236.15 1369.82C1237.8 1371.24 1238.62 1373.43 1238.62 1376.41V1388.46H1234.08ZM1227.61 1388.73C1226.07 1388.73 1224.72 1388.47 1223.56 1387.96C1222.41 1387.42 1221.51 1386.69 1220.87 1385.76C1220.25 1384.81 1219.95 1383.75 1219.95 1382.57C1219.95 1381.41 1220.22 1380.37 1220.75 1379.45C1221.32 1378.53 1222.23 1377.79 1223.49 1377.25C1224.75 1376.72 1226.41 1376.45 1228.49 1376.45H1234.46V1379.64H1228.84C1227.2 1379.64 1226.09 1379.91 1225.53 1380.45C1224.96 1380.96 1224.68 1381.61 1224.68 1382.38C1224.68 1383.25 1225.03 1383.94 1225.72 1384.45C1226.41 1384.97 1227.38 1385.22 1228.61 1385.22C1229.79 1385.22 1230.84 1384.95 1231.77 1384.42C1232.72 1383.88 1233.4 1383.08 1233.81 1382.03L1234.61 1384.92C1234.15 1386.12 1233.32 1387.06 1232.11 1387.73C1230.93 1388.39 1229.43 1388.73 1227.61 1388.73ZM1252.53 1388.73C1250.27 1388.73 1248.53 1388.15 1247.3 1387C1246.07 1385.81 1245.45 1384.08 1245.45 1381.8V1363.36H1250.26V1381.68C1250.26 1382.66 1250.51 1383.41 1250.99 1383.95C1251.51 1384.49 1252.21 1384.76 1253.11 1384.76C1254.19 1384.76 1255.09 1384.48 1255.81 1383.92L1257.15 1387.34C1256.59 1387.8 1255.9 1388.15 1255.07 1388.38C1254.25 1388.61 1253.41 1388.73 1252.53 1388.73ZM1242.06 1371.9V1368.05H1255.77V1371.9H1242.06ZM1270.1 1388.73C1267.81 1388.73 1265.81 1388.28 1264.09 1387.38C1262.4 1386.46 1261.08 1385.2 1260.13 1383.61C1259.2 1382.02 1258.74 1380.21 1258.74 1378.18C1258.74 1376.13 1259.19 1374.32 1260.09 1372.75C1261.01 1371.16 1262.27 1369.91 1263.86 1369.02C1265.48 1368.12 1267.31 1367.67 1269.37 1367.67C1271.37 1367.67 1273.15 1368.1 1274.72 1368.98C1276.28 1369.85 1277.52 1371.08 1278.41 1372.67C1279.31 1374.26 1279.76 1376.14 1279.76 1378.29C1279.76 1378.5 1279.75 1378.73 1279.72 1378.99C1279.72 1379.24 1279.71 1379.49 1279.69 1379.72H1262.55V1376.52H1277.14L1275.26 1377.52C1275.28 1376.34 1275.04 1375.3 1274.53 1374.41C1274.01 1373.51 1273.31 1372.8 1272.41 1372.29C1271.54 1371.78 1270.52 1371.52 1269.37 1371.52C1268.19 1371.52 1267.15 1371.78 1266.25 1372.29C1265.38 1372.8 1264.68 1373.52 1264.17 1374.44C1263.68 1375.34 1263.44 1376.41 1263.44 1377.64V1378.41C1263.44 1379.64 1263.72 1380.73 1264.29 1381.68C1264.85 1382.63 1265.65 1383.36 1266.67 1383.88C1267.7 1384.39 1268.88 1384.65 1270.21 1384.65C1271.37 1384.65 1272.41 1384.47 1273.33 1384.11C1274.26 1383.75 1275.08 1383.18 1275.8 1382.41L1278.38 1385.38C1277.45 1386.46 1276.28 1387.29 1274.87 1387.88C1273.49 1388.45 1271.9 1388.73 1270.1 1388.73Z" fill="white"/>
<rect x="1401.63" y="1329.42" width="236.278" height="90.0833" rx="8.02083" fill="#E17324"/>
<path opacity="0.75" d="M1443.16 1388.46V1385.84L1454.13 1375.25C1455.1 1374.33 1455.82 1373.52 1456.29 1372.83C1456.77 1372.11 1457.09 1371.45 1457.25 1370.86C1457.43 1370.25 1457.52 1369.66 1457.52 1369.09C1457.52 1367.71 1457.03 1366.62 1456.05 1365.82C1455.08 1365.02 1453.65 1364.63 1451.78 1364.63C1450.34 1364.63 1449.05 1364.87 1447.89 1365.36C1446.74 1365.82 1445.74 1366.55 1444.89 1367.55L1442.27 1365.28C1443.3 1363.97 1444.67 1362.97 1446.39 1362.28C1448.14 1361.56 1450.05 1361.2 1452.13 1361.2C1454 1361.2 1455.63 1361.51 1457.02 1362.12C1458.4 1362.71 1459.47 1363.57 1460.21 1364.7C1460.98 1365.83 1461.37 1367.17 1461.37 1368.71C1461.37 1369.58 1461.25 1370.44 1461.02 1371.29C1460.79 1372.13 1460.35 1373.03 1459.71 1373.98C1459.07 1374.93 1458.15 1376 1456.94 1377.18L1447.16 1386.61L1446.24 1385.11H1462.52V1388.46H1443.16ZM1476.66 1388.77C1474.56 1388.77 1472.67 1388.23 1471 1387.15C1469.36 1386.07 1468.05 1384.51 1467.07 1382.45C1466.13 1380.4 1465.65 1377.91 1465.65 1374.98C1465.65 1372.06 1466.13 1369.57 1467.07 1367.51C1468.05 1365.46 1469.36 1363.9 1471 1362.82C1472.67 1361.74 1474.56 1361.2 1476.66 1361.2C1478.74 1361.2 1480.61 1361.74 1482.28 1362.82C1483.95 1363.9 1485.26 1365.46 1486.21 1367.51C1487.16 1369.57 1487.63 1372.06 1487.63 1374.98C1487.63 1377.91 1487.16 1380.4 1486.21 1382.45C1485.26 1384.51 1483.95 1386.07 1482.28 1387.15C1480.61 1388.23 1478.74 1388.77 1476.66 1388.77ZM1476.66 1385.34C1478.07 1385.34 1479.3 1384.95 1480.36 1384.18C1481.44 1383.41 1482.27 1382.26 1482.86 1380.72C1483.48 1379.18 1483.78 1377.27 1483.78 1374.98C1483.78 1372.7 1483.48 1370.79 1482.86 1369.25C1482.27 1367.71 1481.44 1366.55 1480.36 1365.78C1479.3 1365.01 1478.07 1364.63 1476.66 1364.63C1475.25 1364.63 1474 1365.01 1472.93 1365.78C1471.85 1366.55 1471 1367.71 1470.39 1369.25C1469.8 1370.79 1469.5 1372.7 1469.5 1374.98C1469.5 1377.27 1469.8 1379.18 1470.39 1380.72C1471 1382.26 1471.85 1383.41 1472.93 1384.18C1474 1384.95 1475.25 1385.34 1476.66 1385.34ZM1490.91 1388.46V1385.84L1501.88 1375.25C1502.85 1374.33 1503.57 1373.52 1504.03 1372.83C1504.52 1372.11 1504.84 1371.45 1505 1370.86C1505.18 1370.25 1505.27 1369.66 1505.27 1369.09C1505.27 1367.71 1504.78 1366.62 1503.8 1365.82C1502.83 1365.02 1501.4 1364.63 1499.53 1364.63C1498.09 1364.63 1496.8 1364.87 1495.64 1365.36C1494.49 1365.82 1493.49 1366.55 1492.64 1367.55L1490.02 1365.28C1491.05 1363.97 1492.42 1362.97 1494.14 1362.28C1495.89 1361.56 1497.8 1361.2 1499.88 1361.2C1501.75 1361.2 1503.38 1361.51 1504.77 1362.12C1506.15 1362.71 1507.22 1363.57 1507.96 1364.7C1508.73 1365.83 1509.12 1367.17 1509.12 1368.71C1509.12 1369.58 1509 1370.44 1508.77 1371.29C1508.54 1372.13 1508.1 1373.03 1507.46 1373.98C1506.82 1374.93 1505.9 1376 1504.69 1377.18L1494.91 1386.61L1493.99 1385.11H1510.27V1388.46H1490.91ZM1521.68 1388.77C1519.78 1388.77 1517.93 1388.47 1516.13 1387.88C1514.36 1387.29 1512.91 1386.49 1511.78 1385.49L1513.55 1382.45C1514.45 1383.3 1515.62 1383.99 1517.06 1384.53C1518.49 1385.07 1520.03 1385.34 1521.68 1385.34C1523.68 1385.34 1525.23 1384.92 1526.33 1384.07C1527.46 1383.2 1528.03 1382.03 1528.03 1380.57C1528.03 1379.15 1527.49 1378.02 1526.41 1377.18C1525.36 1376.31 1523.68 1375.87 1521.37 1375.87H1519.21V1373.17L1527.22 1363.32L1527.76 1364.86H1513.01V1361.51H1530.8V1364.13L1522.83 1373.94L1520.83 1372.75H1522.1C1525.36 1372.75 1527.8 1373.48 1529.41 1374.94C1531.06 1376.41 1531.88 1378.27 1531.88 1380.53C1531.88 1382.04 1531.51 1383.43 1530.76 1384.69C1530.02 1385.94 1528.89 1386.94 1527.37 1387.69C1525.89 1388.41 1523.99 1388.77 1521.68 1388.77Z" fill="white"/>
<path opacity="0.75" d="M1557.79 1361.18L1577.8 1387.74L1597.8 1361.18" stroke="white" stroke-width="3.99663"/>
<rect x="1678.01" y="1329.42" width="212.278" height="90.0833" rx="8.02083" fill="#E17324"/>
<path opacity="0.75" d="M1722.16 1388.46V1361.51H1734.25C1737.35 1361.51 1739.74 1362.14 1741.41 1363.39C1743.08 1364.63 1743.91 1366.32 1743.91 1368.48C1743.91 1369.94 1743.58 1371.17 1742.91 1372.17C1742.27 1373.17 1741.39 1373.94 1740.29 1374.48C1739.19 1375.02 1737.99 1375.29 1736.71 1375.29L1737.4 1374.14C1738.94 1374.14 1740.3 1374.41 1741.48 1374.94C1742.66 1375.48 1743.6 1376.28 1744.29 1377.33C1744.99 1378.36 1745.33 1379.64 1745.33 1381.18C1745.33 1383.49 1744.46 1385.29 1742.72 1386.57C1741 1387.83 1738.43 1388.46 1735.02 1388.46H1722.16ZM1726.01 1385.34H1734.86C1736.99 1385.34 1738.62 1384.98 1739.75 1384.26C1740.88 1383.54 1741.45 1382.41 1741.45 1380.87C1741.45 1379.31 1740.88 1378.17 1739.75 1377.45C1738.62 1376.73 1736.99 1376.37 1734.86 1376.37H1725.66V1373.25H1733.9C1735.85 1373.25 1737.36 1372.89 1738.44 1372.17C1739.52 1371.45 1740.06 1370.38 1740.06 1368.94C1740.06 1367.5 1739.52 1366.42 1738.44 1365.7C1737.36 1364.99 1735.85 1364.63 1733.9 1364.63H1726.01V1385.34ZM1763.42 1388.46V1384.15L1763.23 1383.34V1375.98C1763.23 1374.42 1762.77 1373.21 1761.84 1372.37C1760.95 1371.49 1759.59 1371.06 1757.76 1371.06C1756.56 1371.06 1755.38 1371.26 1754.22 1371.67C1753.07 1372.06 1752.09 1372.58 1751.3 1373.25L1749.76 1370.48C1750.81 1369.63 1752.07 1368.99 1753.53 1368.55C1755.02 1368.09 1756.57 1367.86 1758.19 1367.86C1760.98 1367.86 1763.14 1368.54 1764.65 1369.9C1766.17 1371.26 1766.93 1373.34 1766.93 1376.14V1388.46H1763.42ZM1756.72 1388.69C1755.21 1388.69 1753.87 1388.43 1752.72 1387.92C1751.59 1387.41 1750.72 1386.7 1750.1 1385.8C1749.49 1384.88 1749.18 1383.84 1749.18 1382.68C1749.18 1381.58 1749.43 1380.58 1749.95 1379.68C1750.49 1378.78 1751.35 1378.06 1752.53 1377.52C1753.73 1376.99 1755.35 1376.72 1757.38 1376.72H1763.85V1379.37H1757.53C1755.68 1379.37 1754.44 1379.68 1753.8 1380.3C1753.16 1380.91 1752.84 1381.66 1752.84 1382.53C1752.84 1383.53 1753.23 1384.34 1754.03 1384.95C1754.82 1385.55 1755.93 1385.84 1757.34 1385.84C1758.73 1385.84 1759.93 1385.53 1760.96 1384.92C1762.01 1384.3 1762.77 1383.4 1763.23 1382.22L1763.96 1384.76C1763.47 1385.97 1762.61 1386.93 1761.38 1387.65C1760.15 1388.34 1758.6 1388.69 1756.72 1388.69ZM1773.77 1388.46V1368.05H1777.31V1373.6L1776.96 1372.21C1777.53 1370.8 1778.48 1369.72 1779.81 1368.98C1781.15 1368.23 1782.79 1367.86 1784.74 1367.86V1371.44C1784.58 1371.42 1784.43 1371.4 1784.28 1371.4C1784.15 1371.4 1784.02 1371.4 1783.89 1371.4C1781.92 1371.4 1780.35 1371.99 1779.19 1373.17C1778.04 1374.35 1777.46 1376.06 1777.46 1378.29V1388.46H1773.77Z" fill="white"/>
<path opacity="0.75" d="M1810.18 1361.18L1830.18 1387.74L1850.18 1361.18" stroke="white" stroke-width="3.99663"/>
</svg>
