<svg width="402" height="116" viewBox="0 0 402 116" fill="none" xmlns="http://www.w3.org/2000/svg">
<path d="M295.301 92.0779C289.138 92.0779 283.592 90.6811 278.662 87.8875C273.814 85.0939 269.994 81.2322 267.2 76.3023C264.407 71.2902 263.01 65.5387 263.01 59.0477C263.01 52.4745 264.407 46.7229 267.2 41.793C269.994 36.8632 273.814 33.0425 278.662 30.331C283.592 27.5374 289.138 26.1406 295.301 26.1406C300.97 26.1406 306.023 27.4142 310.46 29.9613C314.979 32.5084 318.553 36.2469 321.182 41.1768C323.894 46.0245 325.25 51.9815 325.25 59.0477C325.25 66.0317 323.935 71.9886 321.306 76.9185C318.676 81.8484 315.102 85.628 310.583 88.2573C306.146 90.8044 301.052 92.0779 295.301 92.0779ZM295.917 84.3134C300.518 84.3134 304.626 83.2863 308.242 81.2322C311.939 79.0959 314.815 76.138 316.869 72.3584C319.005 68.4966 320.073 64.0597 320.073 59.0477C320.073 53.9534 319.005 49.5165 316.869 45.737C314.815 41.9574 311.939 39.0405 308.242 36.9864C304.626 34.8501 300.518 33.782 295.917 33.782C291.398 33.782 287.331 34.8501 283.715 36.9864C280.1 39.0405 277.224 41.9574 275.088 45.737C272.952 49.5165 271.884 53.9534 271.884 59.0477C271.884 64.0597 272.952 68.4966 275.088 72.3584C277.224 76.138 280.1 79.0959 283.715 81.2322C287.331 83.2863 291.398 84.3134 295.917 84.3134ZM320.32 91.4617V71.9886L321.182 58.9244L319.95 45.8602V0.012207H328.701V91.4617H320.32Z" fill="white"/>
<path d="M393.619 91.4617V77.165L393.249 74.8233V50.9133C393.249 45.4083 391.688 41.1768 388.566 38.2189C385.526 35.2609 380.966 33.782 374.886 33.782C370.695 33.782 366.71 34.4804 362.931 35.8772C359.151 37.274 355.947 39.1227 353.317 41.4233L349.373 34.8912C352.66 32.0976 356.604 29.9613 361.205 28.4823C365.806 26.9212 370.654 26.1406 375.748 26.1406C384.129 26.1406 390.579 28.2358 395.098 32.4262C399.699 36.5345 402 42.8201 402 51.2831V91.4617H393.619ZM371.311 92.0779C366.464 92.0779 362.232 91.2974 358.617 89.7363C355.084 88.093 352.372 85.8745 350.483 83.0809C348.593 80.2051 347.648 76.9185 347.648 73.2211C347.648 69.8524 348.428 66.8122 349.99 64.1008C351.633 61.3072 354.262 59.0888 357.877 57.4455C361.575 55.72 366.505 54.8573 372.667 54.8573H394.975V61.3894H372.914C366.669 61.3894 362.314 62.4986 359.849 64.717C357.467 66.9355 356.275 69.688 356.275 72.9746C356.275 76.672 357.713 79.63 360.589 81.8484C363.465 84.0669 367.491 85.1761 372.667 85.1761C377.597 85.1761 381.829 84.0669 385.362 81.8484C388.977 79.5478 391.606 76.2612 393.249 71.9886L395.221 78.0278C393.578 82.3003 390.702 85.7102 386.594 88.2573C382.568 90.8044 377.474 92.0779 371.311 92.0779Z" fill="white"/>
<path d="M0 91.4617L39.4391 5.1886H48.4362L87.8753 91.4617H78.262L60.1447 50.975L42.0273 10.4882H45.7248L9.49004 91.4617H0ZM15.5292 68.4145L18.2406 61.0196H68.4023L71.1137 68.4145H15.5292Z" fill="white"/>
<path d="M107.401 115.988C104.361 115.988 101.444 115.495 98.6508 114.509C95.9394 113.523 93.5977 112.044 91.6257 110.072L95.6929 103.54C97.3362 105.101 99.1027 106.292 100.993 107.114C102.964 108.018 105.142 108.47 107.525 108.47C110.4 108.47 112.865 107.648 114.919 106.005C117.056 104.444 119.069 101.65 120.959 97.6241L125.149 88.134L126.135 86.7783L152.756 26.7569H161.384L128.97 99.2263C127.162 103.417 125.149 106.744 122.931 109.209C120.794 111.674 118.453 113.4 115.905 114.386C113.358 115.454 110.524 115.988 107.401 115.988ZM124.656 93.3104L94.8301 26.7569H103.95L130.325 86.1621L124.656 93.3104Z" fill="white"/>
<path fill-rule="evenodd" clip-rule="evenodd" d="M228.501 101.322C240.481 101.322 250.192 91.6099 250.192 79.63C250.192 67.6501 240.481 57.9385 228.501 57.9385C216.521 57.9385 206.809 67.6501 206.809 79.63C206.809 91.6099 216.521 101.322 228.501 101.322ZM228.501 94.091C236.487 94.091 242.962 87.6166 242.962 79.63C242.962 71.6434 236.487 65.1689 228.501 65.1689C220.514 65.1689 214.04 71.6434 214.04 79.63C214.04 87.6166 220.514 94.091 228.501 94.091Z" fill="white" fill-opacity="0.5"/>
<path fill-rule="evenodd" clip-rule="evenodd" d="M203.573 90.3168C187.123 88.6928 174.272 74.8163 174.272 57.9384C174.272 39.9686 188.839 25.4011 206.809 25.4011C223.687 25.4011 237.563 38.252 239.187 54.7029C236.768 53.6642 234.167 52.9674 231.445 52.6735C229.064 41.1898 218.89 32.5593 206.701 32.5593C192.744 32.5593 181.43 43.8734 181.43 57.83C181.43 70.0195 190.06 80.1933 201.544 82.5741C201.838 85.296 202.535 87.8972 203.573 90.3168Z" fill="white"/>
</svg>
