<svg width="427" height="124" viewBox="0 0 427 124" fill="none" xmlns="http://www.w3.org/2000/svg">
<path d="M313.665 98.197C307.12 98.197 301.229 96.7133 295.992 93.746C290.843 90.7786 286.785 86.6767 283.817 81.4403C280.85 76.1165 279.366 70.0073 279.366 63.1126C279.366 56.1306 280.85 50.0214 283.817 44.7849C286.785 39.5484 290.843 35.4902 295.992 32.6101C301.229 29.6428 307.12 28.1591 313.665 28.1591C319.687 28.1591 325.054 29.5119 329.767 32.2174C334.567 34.9229 338.364 38.8939 341.157 44.1304C344.037 49.2796 345.477 55.607 345.477 63.1126C345.477 70.5309 344.08 76.8583 341.288 82.0948C338.495 87.3313 334.698 91.3459 329.898 94.1387C325.185 96.8442 319.774 98.197 313.665 98.197ZM314.32 89.9495C319.207 89.9495 323.571 88.8586 327.411 86.6767C331.338 84.4076 334.393 81.2657 336.575 77.2511C338.844 73.1492 339.978 68.4363 339.978 63.1126C339.978 57.7016 338.844 52.9887 336.575 48.9741C334.393 44.9595 331.338 41.8612 327.411 39.6793C323.571 37.4102 319.207 36.2756 314.32 36.2756C309.52 36.2756 305.2 37.4102 301.359 39.6793C297.519 41.8612 294.465 44.9595 292.196 48.9741C289.926 52.9887 288.792 57.7016 288.792 63.1126C288.792 68.4363 289.926 73.1492 292.196 77.2511C294.465 81.2657 297.519 84.4076 301.359 86.6767C305.2 88.8586 309.52 89.9495 314.32 89.9495ZM340.24 97.5424V76.8583L341.157 62.9817L339.848 49.105V0.405762H349.142V97.5424H340.24Z" fill="black" fill-opacity="0.75"/>
<path d="M418.098 97.5424V82.3567L417.705 79.8693V54.4724C417.705 48.625 416.047 44.1304 412.731 40.9885C409.502 37.8466 404.658 36.2756 398.199 36.2756C393.748 36.2756 389.516 37.0175 385.501 38.5011C381.486 39.9848 378.083 41.9485 375.29 44.3922L371.101 37.4538C374.592 34.4865 378.781 32.2174 383.668 30.6464C388.556 28.9882 393.705 28.1591 399.116 28.1591C408.018 28.1591 414.869 30.3846 419.669 34.8356C424.556 39.1993 427 45.8758 427 54.8651V97.5424H418.098ZM394.403 98.197C389.254 98.197 384.759 97.3679 380.919 95.7097C377.166 93.9642 374.286 91.6078 372.279 88.6404C370.272 85.5858 369.268 82.0948 369.268 78.1675C369.268 74.5892 370.097 71.36 371.755 68.48C373.501 65.5126 376.294 63.1562 380.134 61.4107C384.061 59.578 389.297 58.6616 395.843 58.6616H419.538V65.5999H396.105C389.472 65.5999 384.846 66.7781 382.228 69.1345C379.697 71.491 378.432 74.4147 378.432 77.9056C378.432 81.833 379.959 84.9749 383.014 87.3313C386.068 89.6877 390.345 90.8659 395.843 90.8659C401.08 90.8659 405.574 89.6877 409.327 87.3313C413.167 84.8876 415.96 81.3966 417.705 76.8583L419.8 83.273C418.054 87.8113 415 91.4332 410.636 94.1387C406.36 96.8442 400.949 98.197 394.403 98.197Z" fill="black" fill-opacity="0.75"/>
<path d="M0 97.5427L41.8918 5.9043H51.4484L93.3402 97.5427H83.1291L63.885 54.5381L44.641 11.5335H48.5683L10.0802 97.5427H0ZM16.4949 73.0621L19.375 65.2074H72.6561L75.5362 73.0621H16.4949Z" fill="black" fill-opacity="0.75"/>
<path d="M114.081 123.594C110.851 123.594 107.753 123.07 104.786 122.023C101.906 120.976 99.4184 119.405 97.3238 117.31L101.644 110.372C103.389 112.03 105.266 113.296 107.273 114.168C109.368 115.129 111.681 115.609 114.211 115.609C117.266 115.609 119.884 114.736 122.066 112.99C124.335 111.332 126.474 108.365 128.481 104.088L132.932 94.008L133.979 92.568L162.256 28.8139H171.42L136.99 105.79C135.07 110.241 132.932 113.776 130.575 116.394C128.306 119.012 125.819 120.845 123.113 121.892C120.408 123.027 117.397 123.594 114.081 123.594ZM132.408 99.5063L100.728 28.8139H110.415L138.43 91.9135L132.408 99.5063Z" fill="black" fill-opacity="0.75"/>
<path fill-rule="evenodd" clip-rule="evenodd" d="M242.711 108.016C255.436 108.016 265.751 97.7 265.751 84.9751C265.751 72.2502 255.436 61.9346 242.711 61.9346C229.986 61.9346 219.67 72.2502 219.67 84.9751C219.67 97.7 229.986 108.016 242.711 108.016ZM242.711 100.335C251.194 100.335 258.071 93.4583 258.071 84.975C258.071 76.4917 251.194 69.6147 242.711 69.6147C234.227 69.6147 227.35 76.4917 227.35 84.975C227.35 93.4583 234.227 100.335 242.711 100.335Z" fill="#E17324" fill-opacity="0.25"/>
<path fill-rule="evenodd" clip-rule="evenodd" d="M216.233 96.3263C198.759 94.6013 185.109 79.8619 185.109 61.9343C185.109 42.8469 200.583 27.3735 219.67 27.3735C237.598 27.3735 252.337 41.0236 254.062 58.4975C251.492 57.3942 248.729 56.6542 245.838 56.342C243.309 44.1442 232.503 34.977 219.555 34.977C204.73 34.977 192.713 46.9946 192.713 61.8192C192.713 74.7668 201.88 85.5732 214.078 88.1021C214.39 90.9933 215.13 93.7562 216.233 96.3263Z" fill="#E17324"/>
</svg>
