<svg width="778" height="225" viewBox="0 0 778 225" fill="none" xmlns="http://www.w3.org/2000/svg">
<path d="M571.502 178.177C559.576 178.177 548.842 175.474 539.302 170.067C529.92 164.661 522.525 157.187 517.119 147.646C511.712 137.946 509.009 126.815 509.009 114.253C509.009 101.531 511.712 90.4004 517.119 80.8594C522.525 71.3185 529.92 63.9243 539.302 58.6768C548.842 53.2702 559.576 50.567 571.502 50.567C582.474 50.567 592.254 53.0317 600.841 57.9612C609.586 62.8907 616.504 70.1259 621.592 79.6668C626.84 89.0487 629.463 100.577 629.463 114.253C629.463 127.769 626.919 139.298 621.831 148.839C616.742 158.38 609.825 165.694 601.079 170.783C592.492 175.712 582.633 178.177 571.502 178.177ZM572.695 163.15C581.6 163.15 589.55 161.162 596.547 157.187C603.703 153.053 609.268 147.328 613.244 140.013C617.378 132.54 619.445 123.953 619.445 114.253C619.445 104.394 617.378 95.8069 613.244 88.4922C609.268 81.1775 603.703 75.5324 596.547 71.557C589.55 67.4226 581.6 65.3554 572.695 65.3554C563.949 65.3554 556.078 67.4226 549.081 71.557C542.084 75.5324 536.519 81.1775 532.384 88.4922C528.25 95.8069 526.183 104.394 526.183 114.253C526.183 123.953 528.25 132.54 532.384 140.013C536.519 147.328 542.084 153.053 549.081 157.187C556.078 161.162 563.949 163.15 572.695 163.15ZM619.922 176.984V139.298L621.592 114.014L619.207 88.7307V0H636.142V176.984H619.922Z" fill="#E17324"/>
<path d="M761.78 176.984V149.316L761.065 144.784V98.5102C761.065 87.8561 758.044 79.6668 752.001 73.9423C746.117 68.2177 737.292 65.3554 725.525 65.3554C717.415 65.3554 709.703 66.707 702.388 69.4103C695.073 72.1136 688.872 75.6914 683.783 80.1439L676.151 67.5021C682.511 62.0956 690.144 57.9612 699.049 55.0989C707.954 52.0776 717.336 50.567 727.195 50.567C743.414 50.567 755.897 54.6219 764.643 62.7317C773.548 70.6824 778 82.8471 778 99.2257V176.984H761.78ZM718.608 178.177C709.226 178.177 701.037 176.666 694.04 173.645C687.202 170.465 681.955 166.171 678.297 160.765C674.64 155.199 672.811 148.839 672.811 141.683C672.811 135.163 674.322 129.28 677.343 124.032C680.523 118.626 685.612 114.332 692.609 111.152C699.764 107.813 709.305 106.143 721.231 106.143H764.404V118.785H721.709C709.623 118.785 701.196 120.931 696.425 125.225C691.814 129.518 689.508 134.845 689.508 141.206C689.508 148.362 692.291 154.086 697.856 158.38C703.422 162.673 711.214 164.82 721.231 164.82C730.772 164.82 738.962 162.673 745.799 158.38C752.796 153.927 757.885 147.566 761.065 139.298L764.881 150.985C761.701 159.254 756.135 165.853 748.185 170.783C740.393 175.712 730.534 178.177 718.608 178.177Z" fill="#E17324"/>
<path d="M0 176.984L76.3275 10.0181H93.7397L170.067 176.984H151.462L116.399 98.6295L81.3365 20.2746H88.4922L18.3663 176.984H0ZM30.0539 132.381L35.3015 118.069H132.38L137.628 132.381H30.0539Z" fill="#E17324"/>
<path d="M207.856 224.451C201.973 224.451 196.328 223.497 190.921 221.588C185.674 219.68 181.142 216.818 177.325 213.001L185.197 200.36C188.377 203.381 191.796 205.687 195.453 207.277C199.27 209.026 203.483 209.901 208.095 209.901C213.66 209.901 218.431 208.311 222.406 205.13C226.541 202.109 230.437 196.702 234.094 188.911L242.204 170.544L244.112 167.921L295.633 51.7597H312.33L249.598 192.011C246.1 200.121 242.204 206.561 237.91 211.332C233.776 216.102 229.244 219.442 224.314 221.35C219.385 223.417 213.899 224.451 207.856 224.451ZM241.25 180.562L183.527 51.7597H201.178L252.222 166.728L241.25 180.562Z" fill="#E17324"/>
<path fill-rule="evenodd" clip-rule="evenodd" d="M442.222 196.066C465.407 196.066 484.202 177.271 484.202 154.086C484.202 130.901 465.407 112.106 442.222 112.106C419.037 112.106 400.242 130.901 400.242 154.086C400.242 177.271 419.037 196.066 442.222 196.066ZM442.222 182.073C457.679 182.073 470.209 169.543 470.209 154.086C470.209 138.629 457.679 126.099 442.222 126.099C426.766 126.099 414.236 138.629 414.236 154.086C414.236 169.543 426.766 182.073 442.222 182.073Z" fill="#E17324" fill-opacity="0.5"/>
<path fill-rule="evenodd" clip-rule="evenodd" d="M393.98 174.769C362.143 171.626 337.272 144.77 337.272 112.106C337.272 77.3284 365.465 49.1357 400.242 49.1357C432.906 49.1357 459.762 74.0064 462.905 105.844C458.222 103.834 453.188 102.485 447.92 101.917C443.313 79.6919 423.623 62.9892 400.032 62.9892C373.022 62.9892 351.125 84.8855 351.125 111.896C351.125 135.487 367.828 155.176 390.053 159.784C390.622 165.052 391.97 170.086 393.98 174.769Z" fill="#E17324"/>
</svg>
