<svg width="500" height="500" viewBox="0 0 500 500" fill="none" xmlns="http://www.w3.org/2000/svg">
<rect width="500" height="500" fill="#161616"/>
<path fill-rule="evenodd" clip-rule="evenodd" d="M314.286 400C361.624 400 400 361.624 400 314.286C400 266.947 361.624 228.571 314.286 228.571C266.947 228.571 228.571 266.947 228.571 314.286C228.571 361.624 266.947 400 314.286 400ZM314.286 371.429C345.845 371.429 371.429 345.845 371.429 314.286C371.429 282.727 345.845 257.143 314.286 257.143C282.727 257.143 257.143 282.727 257.143 314.286C257.143 345.845 282.727 371.429 314.286 371.429Z" fill="#F0D996" fill-opacity="0.5"/>
<path fill-rule="evenodd" clip-rule="evenodd" d="M215.786 356.515C150.78 350.098 100 295.265 100 228.571C100 157.563 157.563 100 228.571 100C295.265 100 350.098 150.78 356.515 215.786C346.954 211.682 336.675 208.929 325.92 207.767C316.512 162.389 276.31 128.286 228.143 128.286C172.993 128.286 128.286 172.993 128.286 228.143C128.286 276.31 162.389 316.512 207.767 325.92C208.929 336.675 211.682 346.954 215.786 356.515Z" fill="#F0D996"/>
</svg>
