<svg width="2603" height="1532" viewBox="0 0 2603 1532" fill="none" xmlns="http://www.w3.org/2000/svg">
<g filter="url(#filter0_d_162_648)">
<rect x="100.179" y="100.525" width="2402.22" height="1331.4" rx="71.1979" fill="#F2F2F2" shape-rendering="crispEdges"/>
<path d="M675.018 272.723L704.18 208.93H710.833L739.996 272.723H732.887L706.094 212.848H708.828L682.035 272.723H675.018ZM686.501 255.681L688.505 250.213H725.597L727.602 255.681H686.501ZM773.605 224.422C777.494 224.422 780.896 225.182 783.812 226.701C786.789 228.159 789.098 230.407 790.739 233.444C792.44 236.482 793.29 240.31 793.29 244.927V272.723H786.82V245.565C786.82 240.522 785.544 236.725 782.992 234.174C780.501 231.561 776.977 230.255 772.421 230.255C769.018 230.255 766.041 230.953 763.49 232.351C760.999 233.687 759.055 235.662 757.657 238.275C756.321 240.826 755.652 243.925 755.652 247.57V272.723H749.182V224.878H755.379V238.001L754.376 235.541C755.895 232.077 758.325 229.374 761.667 227.43C765.009 225.425 768.988 224.422 773.605 224.422ZM835.192 224.422C839.08 224.422 842.482 225.182 845.399 226.701C848.376 228.159 850.684 230.407 852.325 233.444C854.026 236.482 854.876 240.31 854.876 244.927V272.723H848.406V245.565C848.406 240.522 847.13 236.725 844.578 234.174C842.087 231.561 838.564 230.255 834.007 230.255C830.605 230.255 827.628 230.953 825.076 232.351C822.585 233.687 820.641 235.662 819.243 238.275C817.907 240.826 817.238 243.925 817.238 247.57V272.723H810.768V224.878H816.965V238.001L815.963 235.541C817.481 232.077 819.912 229.374 823.253 227.43C826.595 225.425 830.574 224.422 835.192 224.422ZM892.13 273.179C888.059 273.179 884.505 272.419 881.467 270.9C878.43 269.381 876.06 267.103 874.359 264.065C872.719 261.027 871.898 257.23 871.898 252.674V224.878H878.369V251.945C878.369 257.048 879.614 260.906 882.105 263.518C884.657 266.07 888.211 267.346 892.768 267.346C896.11 267.346 898.995 266.678 901.426 265.341C903.917 263.944 905.8 261.939 907.076 259.326C908.413 256.714 909.081 253.585 909.081 249.94V224.878H915.551V272.723H909.354V259.6L910.357 261.969C908.838 265.493 906.468 268.257 903.248 270.262C900.089 272.206 896.383 273.179 892.13 273.179ZM963.567 272.723V262.151L963.294 260.42V242.74C963.294 238.669 962.139 235.541 959.831 233.353C957.583 231.166 954.211 230.073 949.715 230.073C946.616 230.073 943.67 230.589 940.875 231.622C938.08 232.655 935.711 234.022 933.767 235.723L930.85 230.893C933.281 228.827 936.197 227.247 939.599 226.154C943.001 224.999 946.586 224.422 950.353 224.422C956.55 224.422 961.319 225.972 964.661 229.07C968.063 232.108 969.764 236.756 969.764 243.013V272.723H963.567ZM947.072 273.179C943.487 273.179 940.359 272.601 937.685 271.447C935.073 270.232 933.068 268.592 931.671 266.526C930.273 264.399 929.574 261.969 929.574 259.235C929.574 256.744 930.152 254.496 931.306 252.491C932.521 250.426 934.465 248.785 937.139 247.57C939.873 246.294 943.518 245.656 948.075 245.656H964.57V250.486H948.257C943.639 250.486 940.419 251.307 938.597 252.947C936.835 254.587 935.954 256.623 935.954 259.053C935.954 261.787 937.017 263.974 939.143 265.615C941.27 267.255 944.247 268.075 948.075 268.075C951.72 268.075 954.849 267.255 957.461 265.615C960.134 263.913 962.079 261.483 963.294 258.324L964.752 262.789C963.537 265.949 961.41 268.47 958.373 270.353C955.396 272.237 951.629 273.179 947.072 273.179ZM987.339 272.723V205.102H993.809V272.723H987.339ZM1037.03 272.723V208.93H1043.78V272.723H1037.03ZM1087.59 224.422C1091.48 224.422 1094.88 225.182 1097.8 226.701C1100.77 228.159 1103.08 230.407 1104.72 233.444C1106.42 236.482 1107.27 240.31 1107.27 244.927V272.723H1100.8V245.565C1100.8 240.522 1099.53 236.725 1096.97 234.174C1094.48 231.561 1090.96 230.255 1086.4 230.255C1083 230.255 1080.02 230.953 1077.47 232.351C1074.98 233.687 1073.04 235.662 1071.64 238.275C1070.3 240.826 1069.63 243.925 1069.63 247.57V272.723H1063.16V224.878H1069.36V238.001L1068.36 235.541C1069.88 232.077 1072.31 229.374 1075.65 227.43C1078.99 225.425 1082.97 224.422 1087.59 224.422ZM1136.16 272.723L1114.93 224.878H1121.67L1141.18 269.26H1137.99L1157.76 224.878H1164.14L1142.82 272.723H1136.16ZM1192.24 273.179C1187.26 273.179 1182.89 272.146 1179.12 270.08C1175.35 267.954 1172.41 265.068 1170.28 261.422C1168.15 257.716 1167.09 253.494 1167.09 248.755C1167.09 244.016 1168.09 239.824 1170.1 236.178C1172.16 232.533 1174.96 229.678 1178.48 227.612C1182.07 225.485 1186.08 224.422 1190.51 224.422C1195.01 224.422 1198.99 225.455 1202.45 227.521C1205.97 229.526 1208.74 232.381 1210.74 236.087C1212.75 239.733 1213.75 243.955 1213.75 248.755C1213.75 249.059 1213.72 249.393 1213.66 249.757C1213.66 250.061 1213.66 250.395 1213.66 250.76H1172.01V245.93H1210.2L1207.64 247.844C1207.64 244.38 1206.88 241.312 1205.37 238.639C1203.91 235.905 1201.9 233.779 1199.35 232.26C1196.8 230.741 1193.85 229.981 1190.51 229.981C1187.23 229.981 1184.28 230.741 1181.67 232.26C1179.06 233.779 1177.02 235.905 1175.56 238.639C1174.11 241.373 1173.38 244.502 1173.38 248.026V249.028C1173.38 252.674 1174.17 255.894 1175.75 258.688C1177.39 261.422 1179.64 263.579 1182.49 265.159C1185.41 266.678 1188.72 267.437 1192.42 267.437C1195.34 267.437 1198.04 266.921 1200.54 265.888C1203.09 264.855 1205.27 263.275 1207.1 261.149L1210.74 265.341C1208.62 267.893 1205.94 269.837 1202.72 271.174C1199.56 272.51 1196.07 273.179 1192.24 273.179ZM1251.34 224.422C1255.23 224.422 1258.63 225.182 1261.55 226.701C1264.53 228.159 1266.84 230.407 1268.48 233.444C1270.18 236.482 1271.03 240.31 1271.03 244.927V272.723H1264.56V245.565C1264.56 240.522 1263.28 236.725 1260.73 234.174C1258.24 231.561 1254.72 230.255 1250.16 230.255C1246.76 230.255 1243.78 230.953 1241.23 232.351C1238.74 233.687 1236.79 235.662 1235.4 238.275C1234.06 240.826 1233.39 243.925 1233.39 247.57V272.723H1226.92V224.878H1233.12V238.001L1232.11 235.541C1233.63 232.077 1236.06 229.374 1239.4 227.43C1242.75 225.425 1246.73 224.422 1251.34 224.422ZM1303.63 273.179C1299.14 273.179 1295.68 271.963 1293.24 269.533C1290.81 267.103 1289.6 263.67 1289.6 259.235V214.306H1296.07V258.871C1296.07 261.665 1296.77 263.822 1298.17 265.341C1299.62 266.86 1301.69 267.619 1304.36 267.619C1307.22 267.619 1309.59 266.799 1311.47 265.159L1313.75 269.807C1312.47 270.961 1310.92 271.812 1309.1 272.358C1307.34 272.905 1305.52 273.179 1303.63 273.179ZM1281.03 230.255V224.878H1310.65V230.255H1281.03ZM1343.34 273.179C1338.72 273.179 1334.56 272.146 1330.86 270.08C1327.21 267.954 1324.32 265.068 1322.2 261.422C1320.07 257.716 1319.01 253.494 1319.01 248.755C1319.01 243.955 1320.07 239.733 1322.2 236.087C1324.32 232.442 1327.21 229.586 1330.86 227.521C1334.5 225.455 1338.66 224.422 1343.34 224.422C1348.08 224.422 1352.27 225.455 1355.92 227.521C1359.62 229.586 1362.51 232.442 1364.57 236.087C1366.7 239.733 1367.76 243.955 1367.76 248.755C1367.76 253.494 1366.7 257.716 1364.57 261.422C1362.51 265.068 1359.62 267.954 1355.92 270.08C1352.21 272.146 1348.02 273.179 1343.34 273.179ZM1343.34 267.437C1346.8 267.437 1349.87 266.678 1352.54 265.159C1355.22 263.579 1357.31 261.392 1358.83 258.597C1360.41 255.742 1361.2 252.461 1361.2 248.755C1361.2 244.988 1360.41 241.707 1358.83 238.912C1357.31 236.118 1355.22 233.961 1352.54 232.442C1349.87 230.862 1346.83 230.073 1343.43 230.073C1340.03 230.073 1336.99 230.862 1334.32 232.442C1331.64 233.961 1329.52 236.118 1327.94 238.912C1326.36 241.707 1325.57 244.988 1325.57 248.755C1325.57 252.461 1326.36 255.742 1327.94 258.597C1329.52 261.392 1331.64 263.579 1334.32 265.159C1336.99 266.678 1340 267.437 1343.34 267.437ZM1380.97 272.723V224.878H1387.17V237.91L1386.53 235.632C1387.87 231.986 1390.12 229.222 1393.28 227.339C1396.44 225.394 1400.36 224.422 1405.03 224.422V230.71C1404.79 230.71 1404.55 230.71 1404.3 230.71C1404.06 230.65 1403.82 230.619 1403.58 230.619C1398.53 230.619 1394.58 232.169 1391.73 235.267C1388.87 238.305 1387.44 242.649 1387.44 248.299V272.723H1380.97ZM1419.25 290.858C1417 290.858 1414.85 290.494 1412.78 289.765C1410.78 289.036 1409.04 287.942 1407.59 286.484L1410.59 281.654C1411.81 282.808 1413.12 283.689 1414.51 284.297C1415.97 284.965 1417.58 285.299 1419.34 285.299C1421.47 285.299 1423.29 284.692 1424.81 283.477C1426.39 282.322 1427.88 280.257 1429.28 277.28L1432.37 270.262L1433.1 269.26L1452.79 224.878H1459.17L1435.2 278.464C1433.86 281.563 1432.37 284.023 1430.73 285.846C1429.15 287.669 1427.42 288.945 1425.54 289.674C1423.66 290.464 1421.56 290.858 1419.25 290.858ZM1432.01 274.09L1409.96 224.878H1416.7L1436.2 268.804L1432.01 274.09ZM1511.09 273.27C1506.35 273.27 1501.79 272.51 1497.42 270.991C1493.1 269.412 1489.76 267.407 1487.39 264.977L1490.04 259.782C1492.28 261.969 1495.29 263.822 1499.06 265.341C1502.89 266.799 1506.9 267.528 1511.09 267.528C1515.1 267.528 1518.35 267.042 1520.84 266.07C1523.39 265.037 1525.24 263.67 1526.4 261.969C1527.61 260.268 1528.22 258.385 1528.22 256.319C1528.22 253.828 1527.49 251.823 1526.03 250.304C1524.64 248.785 1522.78 247.6 1520.47 246.75C1518.17 245.839 1515.61 245.049 1512.82 244.38C1510.02 243.712 1507.23 243.013 1504.43 242.284C1501.64 241.495 1499.06 240.462 1496.69 239.186C1494.38 237.91 1492.5 236.239 1491.04 234.174C1489.64 232.047 1488.94 229.283 1488.94 225.88C1488.94 222.721 1489.76 219.835 1491.4 217.223C1493.1 214.549 1495.69 212.423 1499.15 210.843C1502.61 209.203 1507.05 208.383 1512.45 208.383C1516.04 208.383 1519.59 208.899 1523.12 209.932C1526.64 210.904 1529.68 212.271 1532.23 214.033L1529.95 219.41C1527.22 217.587 1524.3 216.251 1521.2 215.4C1518.17 214.549 1515.22 214.124 1512.36 214.124C1508.54 214.124 1505.38 214.641 1502.89 215.673C1500.39 216.706 1498.54 218.104 1497.33 219.866C1496.17 221.567 1495.6 223.511 1495.6 225.698C1495.6 228.189 1496.29 230.194 1497.69 231.713C1499.15 233.232 1501.03 234.417 1503.34 235.267C1505.71 236.118 1508.29 236.877 1511.09 237.545C1513.88 238.214 1516.65 238.943 1519.38 239.733C1522.18 240.522 1524.73 241.555 1527.04 242.831C1529.41 244.046 1531.29 245.687 1532.69 247.752C1534.14 249.818 1534.87 252.522 1534.87 255.863C1534.87 258.962 1534.02 261.848 1532.32 264.521C1530.62 267.133 1528.01 269.26 1524.48 270.9C1521.02 272.48 1516.56 273.27 1511.09 273.27ZM1572.9 273.179C1568.77 273.179 1565.03 272.237 1561.69 270.353C1558.35 268.409 1555.67 265.645 1553.67 262.06C1551.72 258.415 1550.75 253.98 1550.75 248.755C1550.75 243.53 1551.72 239.125 1553.67 235.541C1555.61 231.895 1558.26 229.131 1561.6 227.247C1564.94 225.364 1568.71 224.422 1572.9 224.422C1577.45 224.422 1581.52 225.455 1585.11 227.521C1588.75 229.526 1591.61 232.381 1593.68 236.087C1595.74 239.733 1596.77 243.955 1596.77 248.755C1596.77 253.615 1595.74 257.868 1593.68 261.514C1591.61 265.159 1588.75 268.014 1585.11 270.08C1581.52 272.146 1577.45 273.179 1572.9 273.179ZM1548.2 290.403V224.878H1554.4V239.277L1553.76 248.846L1554.67 258.506V290.403H1548.2ZM1572.44 267.437C1575.84 267.437 1578.88 266.678 1581.56 265.159C1584.23 263.579 1586.35 261.392 1587.93 258.597C1589.51 255.742 1590.3 252.461 1590.3 248.755C1590.3 245.049 1589.51 241.798 1587.93 239.004C1586.35 236.209 1584.23 234.022 1581.56 232.442C1578.88 230.862 1575.84 230.073 1572.44 230.073C1569.04 230.073 1565.97 230.862 1563.24 232.442C1560.56 234.022 1558.44 236.209 1556.86 239.004C1555.34 241.798 1554.58 245.049 1554.58 248.755C1554.58 252.461 1555.34 255.742 1556.86 258.597C1558.44 261.392 1560.56 263.579 1563.24 265.159C1565.97 266.678 1569.04 267.437 1572.44 267.437ZM1630.29 273.179C1625.31 273.179 1620.93 272.146 1617.16 270.08C1613.4 267.954 1610.45 265.068 1608.32 261.422C1606.2 257.716 1605.13 253.494 1605.13 248.755C1605.13 244.016 1606.14 239.824 1608.14 236.178C1610.21 232.533 1613 229.678 1616.53 227.612C1620.11 225.485 1624.12 224.422 1628.56 224.422C1633.05 224.422 1637.03 225.455 1640.49 227.521C1644.02 229.526 1646.78 232.381 1648.79 236.087C1650.79 239.733 1651.79 243.955 1651.79 248.755C1651.79 249.059 1651.76 249.393 1651.7 249.757C1651.7 250.061 1651.7 250.395 1651.7 250.76H1610.06V245.93H1648.24L1645.69 247.844C1645.69 244.38 1644.93 241.312 1643.41 238.639C1641.95 235.905 1639.95 233.779 1637.4 232.26C1634.84 230.741 1631.9 229.981 1628.56 229.981C1625.27 229.981 1622.33 230.741 1619.72 232.26C1617.1 233.779 1615.07 235.905 1613.61 238.639C1612.15 241.373 1611.42 244.502 1611.42 248.026V249.028C1611.42 252.674 1612.21 255.894 1613.79 258.688C1615.43 261.422 1617.68 263.579 1620.54 265.159C1623.45 266.678 1626.76 267.437 1630.47 267.437C1633.39 267.437 1636.09 266.921 1638.58 265.888C1641.13 264.855 1643.32 263.275 1645.14 261.149L1648.79 265.341C1646.66 267.893 1643.99 269.837 1640.77 271.174C1637.61 272.51 1634.11 273.179 1630.29 273.179ZM1689.39 224.422C1693.28 224.422 1696.68 225.182 1699.6 226.701C1702.57 228.159 1704.88 230.407 1706.52 233.444C1708.22 236.482 1709.07 240.31 1709.07 244.927V272.723H1702.6V245.565C1702.6 240.522 1701.33 236.725 1698.78 234.174C1696.28 231.561 1692.76 230.255 1688.2 230.255C1684.8 230.255 1681.82 230.953 1679.27 232.351C1676.78 233.687 1674.84 235.662 1673.44 238.275C1672.1 240.826 1671.44 243.925 1671.44 247.57V272.723H1664.96V224.878H1671.16V238.001L1670.16 235.541C1671.68 232.077 1674.11 229.374 1677.45 227.43C1680.79 225.425 1684.77 224.422 1689.39 224.422ZM1745.6 273.179C1741.04 273.179 1736.94 272.146 1733.29 270.08C1729.71 268.014 1726.89 265.159 1724.82 261.514C1722.75 257.807 1721.72 253.555 1721.72 248.755C1721.72 243.894 1722.75 239.642 1724.82 235.996C1726.89 232.351 1729.71 229.526 1733.29 227.521C1736.94 225.455 1741.04 224.422 1745.6 224.422C1749.79 224.422 1753.53 225.364 1756.81 227.247C1760.15 229.131 1762.79 231.895 1764.74 235.541C1766.74 239.125 1767.74 243.53 1767.74 248.755C1767.74 253.919 1766.77 258.324 1764.83 261.969C1762.88 265.615 1760.24 268.409 1756.9 270.353C1753.62 272.237 1749.85 273.179 1745.6 273.179ZM1746.05 267.437C1749.46 267.437 1752.49 266.678 1755.17 265.159C1757.9 263.579 1760.03 261.392 1761.55 258.597C1763.13 255.742 1763.92 252.461 1763.92 248.755C1763.92 244.988 1763.13 241.707 1761.55 238.912C1760.03 236.118 1757.9 233.961 1755.17 232.442C1752.49 230.862 1749.46 230.073 1746.05 230.073C1742.71 230.073 1739.7 230.862 1737.03 232.442C1734.36 233.961 1732.23 236.118 1730.65 238.912C1729.07 241.707 1728.28 244.988 1728.28 248.755C1728.28 252.461 1729.07 255.742 1730.65 258.597C1732.23 261.392 1734.36 263.579 1737.03 265.159C1739.7 266.678 1742.71 267.437 1746.05 267.437ZM1764.1 272.723V258.324L1764.74 248.664L1763.82 239.004V205.102H1770.3V272.723H1764.1ZM1788.32 272.723V224.878H1794.79V272.723H1788.32ZM1791.6 214.306C1790.26 214.306 1789.14 213.851 1788.22 212.939C1787.31 212.028 1786.86 210.935 1786.86 209.659C1786.86 208.383 1787.31 207.32 1788.22 206.469C1789.14 205.558 1790.26 205.102 1791.6 205.102C1792.93 205.102 1794.06 205.527 1794.97 206.378C1795.88 207.228 1796.33 208.292 1796.33 209.568C1796.33 210.904 1795.88 212.028 1794.97 212.939C1794.12 213.851 1792.99 214.306 1791.6 214.306ZM1837.21 224.422C1841.1 224.422 1844.5 225.182 1847.42 226.701C1850.4 228.159 1852.71 230.407 1854.35 233.444C1856.05 236.482 1856.9 240.31 1856.9 244.927V272.723H1850.43V245.565C1850.43 240.522 1849.15 236.725 1846.6 234.174C1844.11 231.561 1840.59 230.255 1836.03 230.255C1832.63 230.255 1829.65 230.953 1827.1 232.351C1824.61 233.687 1822.66 235.662 1821.26 238.275C1819.93 240.826 1819.26 243.925 1819.26 247.57V272.723H1812.79V224.878H1818.99V238.001L1817.98 235.541C1819.5 232.077 1821.93 229.374 1825.27 227.43C1828.62 225.425 1832.6 224.422 1837.21 224.422ZM1894.79 290.858C1890.42 290.858 1886.22 290.22 1882.21 288.945C1878.2 287.669 1874.95 285.846 1872.46 283.477L1875.74 278.555C1877.99 280.56 1880.76 282.14 1884.04 283.294C1887.38 284.509 1890.9 285.117 1894.61 285.117C1900.68 285.117 1905.15 283.689 1908 280.834C1910.86 278.039 1912.29 273.665 1912.29 267.711V255.772L1913.2 247.57L1912.56 239.368V224.878H1918.76V266.89C1918.76 275.153 1916.72 281.198 1912.65 285.026C1908.64 288.914 1902.69 290.858 1894.79 290.858ZM1893.6 270.9C1889.05 270.9 1884.95 269.928 1881.3 267.984C1877.66 265.979 1874.77 263.215 1872.64 259.691C1870.58 256.167 1869.55 252.127 1869.55 247.57C1869.55 243.013 1870.58 239.004 1872.64 235.541C1874.77 232.017 1877.66 229.283 1881.3 227.339C1884.95 225.394 1889.05 224.422 1893.6 224.422C1897.86 224.422 1901.69 225.303 1905.09 227.065C1908.49 228.827 1911.19 231.44 1913.2 234.903C1915.2 238.366 1916.21 242.588 1916.21 247.57C1916.21 252.552 1915.2 256.775 1913.2 260.238C1911.19 263.701 1908.49 266.344 1905.09 268.166C1901.69 269.989 1897.86 270.9 1893.6 270.9ZM1894.24 265.159C1897.77 265.159 1900.9 264.43 1903.63 262.972C1906.36 261.453 1908.52 259.387 1910.1 256.775C1911.68 254.101 1912.47 251.033 1912.47 247.57C1912.47 244.107 1911.68 241.069 1910.1 238.457C1908.52 235.844 1906.36 233.809 1903.63 232.351C1900.9 230.832 1897.77 230.073 1894.24 230.073C1890.78 230.073 1887.65 230.832 1884.86 232.351C1882.12 233.809 1879.97 235.844 1878.39 238.457C1876.87 241.069 1876.11 244.107 1876.11 247.57C1876.11 251.033 1876.87 254.101 1878.39 256.775C1879.97 259.387 1882.12 261.453 1884.86 262.972C1887.65 264.43 1890.78 265.159 1894.24 265.159Z" fill="#E17324"/>
<rect x="551.574" y="680.385" width="71.1979" height="428.611" rx="7.11979" fill="#E17324"/>
<path d="M557.437 1171.3C556.825 1171.3 556.291 1171.26 555.835 1171.18C555.367 1171.12 554.967 1171.02 554.633 1170.9V1167.54C554.989 1167.63 555.373 1167.71 555.785 1167.78C556.196 1167.85 556.636 1167.88 557.103 1167.88C557.715 1167.88 558.271 1167.76 558.772 1167.53C559.272 1167.29 559.667 1166.87 559.956 1166.26C560.257 1165.65 560.407 1164.79 560.407 1163.67V1140.11H564.412V1163.54C564.412 1165.35 564.123 1166.83 563.544 1167.96C562.966 1169.11 562.154 1169.95 561.108 1170.48C560.062 1171.03 558.838 1171.3 557.437 1171.3ZM577.561 1145.68C579.897 1145.68 581.661 1146.2 582.851 1147.24C584.052 1148.27 584.653 1149.88 584.653 1152.08V1164.51H581.866L581.116 1161.89H580.982C580.459 1162.56 579.92 1163.11 579.363 1163.54C578.807 1163.97 578.162 1164.3 577.428 1164.51C576.705 1164.73 575.82 1164.84 574.774 1164.84C573.673 1164.84 572.689 1164.64 571.821 1164.24C570.953 1163.83 570.269 1163.21 569.768 1162.37C569.268 1161.54 569.017 1160.48 569.017 1159.2C569.017 1157.3 569.724 1155.87 571.137 1154.91C572.561 1153.96 574.708 1153.43 577.578 1153.33L580.782 1153.21V1152.24C580.782 1150.96 580.481 1150.05 579.881 1149.51C579.291 1148.96 578.457 1148.69 577.378 1148.69C576.454 1148.69 575.559 1148.82 574.691 1149.09C573.823 1149.36 572.978 1149.68 572.155 1150.07L570.886 1147.3C571.787 1146.83 572.811 1146.44 573.957 1146.14C575.114 1145.84 576.315 1145.68 577.561 1145.68ZM580.765 1155.68L578.379 1155.76C576.421 1155.83 575.047 1156.16 574.257 1156.77C573.467 1157.37 573.072 1158.19 573.072 1159.23C573.072 1160.15 573.345 1160.81 573.89 1161.24C574.435 1161.65 575.153 1161.85 576.043 1161.85C577.4 1161.85 578.523 1161.47 579.413 1160.7C580.315 1159.92 580.765 1158.78 580.765 1157.28V1155.68ZM599.772 1145.68C601.852 1145.68 603.471 1146.22 604.628 1147.3C605.796 1148.37 606.38 1150.09 606.38 1152.46V1164.51H602.458V1153.19C602.458 1151.76 602.163 1150.69 601.574 1149.97C600.984 1149.25 600.072 1148.89 598.837 1148.89C597.046 1148.89 595.8 1149.44 595.099 1150.54C594.409 1151.64 594.065 1153.24 594.065 1155.33V1164.51H590.143V1146.04H593.197L593.748 1148.54H593.965C594.365 1147.89 594.86 1147.36 595.45 1146.95C596.05 1146.53 596.718 1146.21 597.452 1146C598.197 1145.79 598.971 1145.68 599.772 1145.68ZM611.302 1162.44C611.302 1161.53 611.536 1160.89 612.003 1160.52C612.482 1160.14 613.06 1159.95 613.739 1159.95C614.417 1159.95 614.996 1160.14 615.474 1160.52C615.964 1160.89 616.208 1161.53 616.208 1162.44C616.208 1163.33 615.964 1163.97 615.474 1164.37C614.996 1164.76 614.417 1164.96 613.739 1164.96C613.06 1164.96 612.482 1164.76 612.003 1164.37C611.536 1163.97 611.302 1163.33 611.302 1162.44Z" fill="#E17324"/>
<rect x="693.97" y="539.413" width="71.1979" height="569.583" rx="7.11979" fill="#E17324"/>
<path d="M706.841 1164.51H702.87V1140.11H716.653V1143.48H706.841V1151.09H716.019V1154.45H706.841V1164.51ZM728.051 1145.68C729.697 1145.68 731.11 1146.02 732.289 1146.7C733.468 1147.38 734.375 1148.34 735.009 1149.59C735.643 1150.84 735.96 1152.33 735.96 1154.06V1156.16H723.629C723.673 1157.96 724.151 1159.33 725.064 1160.3C725.987 1161.27 727.277 1161.75 728.935 1161.75C730.114 1161.75 731.171 1161.64 732.106 1161.42C733.051 1161.19 734.025 1160.85 735.026 1160.4V1163.59C734.102 1164.02 733.162 1164.34 732.206 1164.54C731.249 1164.74 730.103 1164.84 728.768 1164.84C726.955 1164.84 725.358 1164.49 723.979 1163.79C722.611 1163.08 721.537 1162.02 720.758 1160.62C719.991 1159.22 719.607 1157.48 719.607 1155.4C719.607 1153.33 719.957 1151.57 720.658 1150.12C721.359 1148.68 722.344 1147.58 723.612 1146.82C724.88 1146.06 726.36 1145.68 728.051 1145.68ZM728.051 1148.64C726.816 1148.64 725.815 1149.04 725.047 1149.84C724.29 1150.64 723.845 1151.81 723.712 1153.36H732.122C732.111 1152.44 731.955 1151.62 731.655 1150.91C731.366 1150.2 730.921 1149.64 730.32 1149.24C729.73 1148.84 728.974 1148.64 728.051 1148.64ZM744.304 1138.54V1144.8C744.304 1145.52 744.282 1146.24 744.237 1146.94C744.204 1147.63 744.17 1148.17 744.137 1148.56H744.304C744.804 1147.75 745.5 1147.08 746.39 1146.54C747.291 1145.98 748.442 1145.7 749.844 1145.7C752.035 1145.7 753.799 1146.51 755.134 1148.12C756.469 1149.72 757.136 1152.1 757.136 1155.25C757.136 1157.34 756.83 1159.1 756.218 1160.52C755.606 1161.94 754.744 1163.02 753.632 1163.76C752.53 1164.48 751.234 1164.84 749.744 1164.84C748.342 1164.84 747.207 1164.59 746.34 1164.07C745.483 1163.55 744.81 1162.94 744.32 1162.26H744.037L743.319 1164.51H740.382V1138.54H744.304ZM748.809 1148.89C747.697 1148.89 746.812 1149.11 746.156 1149.56C745.511 1150 745.044 1150.67 744.754 1151.56C744.465 1152.44 744.315 1153.56 744.304 1154.91V1155.26C744.304 1157.32 744.626 1158.9 745.272 1159.99C745.928 1161.08 747.118 1161.62 748.843 1161.62C750.211 1161.62 751.262 1161.07 751.996 1159.97C752.731 1158.86 753.098 1157.27 753.098 1155.2C753.098 1153.11 752.731 1151.53 751.996 1150.47C751.273 1149.42 750.211 1148.89 748.809 1148.89ZM761.108 1162.44C761.108 1161.53 761.341 1160.89 761.808 1160.52C762.287 1160.14 762.865 1159.95 763.544 1159.95C764.223 1159.95 764.801 1160.14 765.279 1160.52C765.769 1160.89 766.014 1161.53 766.014 1162.44C766.014 1163.33 765.769 1163.97 765.279 1164.37C764.801 1164.76 764.223 1164.96 763.544 1164.96C762.865 1164.96 762.287 1164.76 761.808 1164.37C761.341 1163.97 761.108 1163.33 761.108 1162.44Z" fill="#E17324"/>
<rect x="836.366" y="612.035" width="71.1979" height="496.961" rx="7.11979" fill="#E17324"/>
<path d="M855.795 1164.51L848.77 1144.13H848.62C848.653 1144.59 848.692 1145.21 848.736 1146C848.781 1146.79 848.82 1147.64 848.853 1148.54C848.887 1149.44 848.903 1150.3 848.903 1151.12V1164.51H845.265V1140.11H850.889L857.647 1159.59H857.747L864.739 1140.11H870.346V1164.51H866.525V1150.92C866.525 1150.18 866.536 1149.37 866.558 1148.5C866.591 1147.64 866.625 1146.81 866.658 1146.04C866.703 1145.26 866.736 1144.63 866.758 1144.17H866.625L859.333 1164.51H855.795ZM883.612 1145.68C885.948 1145.68 887.712 1146.2 888.902 1147.24C890.103 1148.27 890.704 1149.88 890.704 1152.08V1164.51H887.917L887.167 1161.89H887.033C886.51 1162.56 885.971 1163.11 885.414 1163.54C884.858 1163.97 884.213 1164.3 883.479 1164.51C882.756 1164.73 881.871 1164.84 880.825 1164.84C879.724 1164.84 878.74 1164.64 877.872 1164.24C877.004 1163.83 876.32 1163.21 875.819 1162.37C875.319 1161.54 875.068 1160.48 875.068 1159.2C875.068 1157.3 875.775 1155.87 877.188 1154.91C878.612 1153.96 880.759 1153.43 883.629 1153.33L886.833 1153.21V1152.24C886.833 1150.96 886.532 1150.05 885.932 1149.51C885.342 1148.96 884.508 1148.69 883.429 1148.69C882.505 1148.69 881.61 1148.82 880.742 1149.09C879.874 1149.36 879.029 1149.68 878.206 1150.07L876.937 1147.3C877.838 1146.83 878.862 1146.44 880.008 1146.14C881.165 1145.84 882.366 1145.68 883.612 1145.68ZM886.816 1155.68L884.43 1155.76C882.472 1155.83 881.098 1156.16 880.308 1156.77C879.518 1157.37 879.123 1158.19 879.123 1159.23C879.123 1160.15 879.396 1160.81 879.941 1161.24C880.486 1161.65 881.204 1161.85 882.094 1161.85C883.451 1161.85 884.574 1161.47 885.464 1160.7C886.366 1159.92 886.816 1158.78 886.816 1157.28V1155.68ZM905.556 1145.68C905.867 1145.68 906.206 1145.7 906.574 1145.73C906.941 1145.77 907.258 1145.81 907.525 1145.87L907.158 1149.54C906.924 1149.47 906.635 1149.42 906.29 1149.39C905.956 1149.36 905.656 1149.34 905.389 1149.34C904.688 1149.34 904.02 1149.46 903.386 1149.69C902.752 1149.91 902.19 1150.26 901.701 1150.72C901.211 1151.18 900.828 1151.75 900.549 1152.44C900.271 1153.13 900.132 1153.93 900.132 1154.85V1164.51H896.194V1146.04H899.265L899.799 1149.29H899.982C900.349 1148.63 900.805 1148.03 901.35 1147.49C901.896 1146.94 902.519 1146.51 903.219 1146.19C903.931 1145.85 904.71 1145.68 905.556 1145.68ZM910.378 1162.44C910.378 1161.53 910.612 1160.89 911.079 1160.52C911.557 1160.14 912.136 1159.95 912.814 1159.95C913.493 1159.95 914.072 1160.14 914.55 1160.52C915.039 1160.89 915.284 1161.53 915.284 1162.44C915.284 1163.33 915.039 1163.97 914.55 1164.37C914.072 1164.76 913.493 1164.96 912.814 1164.96C912.136 1164.96 911.557 1164.76 911.079 1164.37C910.612 1163.97 910.378 1163.33 910.378 1162.44Z" fill="#E17324"/>
<rect x="978.762" y="461.096" width="71.1979" height="647.901" rx="7.11979" fill="#E17324"/>
<path d="M1002.78 1164.51L1000.39 1157.73H991.066L988.68 1164.51H984.458L993.536 1140.01H997.974L1007.04 1164.51H1002.78ZM999.36 1154.3L997.04 1147.62C996.951 1147.33 996.823 1146.93 996.656 1146.4C996.489 1145.87 996.322 1145.33 996.156 1144.78C995.989 1144.23 995.85 1143.76 995.738 1143.38C995.627 1143.84 995.488 1144.35 995.321 1144.92C995.166 1145.47 995.01 1146 994.854 1146.49C994.709 1146.98 994.598 1147.35 994.52 1147.62L992.184 1154.3H999.36ZM1019.33 1145.68C1021.53 1145.68 1023.28 1146.49 1024.61 1148.09C1025.94 1149.69 1026.61 1152.07 1026.61 1155.23C1026.61 1157.32 1026.3 1159.08 1025.67 1160.52C1025.06 1161.94 1024.2 1163.02 1023.09 1163.76C1021.99 1164.48 1020.7 1164.84 1019.23 1164.84C1018.3 1164.84 1017.49 1164.72 1016.8 1164.47C1016.11 1164.23 1015.52 1163.91 1015.03 1163.52C1014.54 1163.12 1014.13 1162.69 1013.79 1162.22H1013.56C1013.62 1162.67 1013.67 1163.16 1013.71 1163.71C1013.77 1164.24 1013.79 1164.73 1013.79 1165.18V1172.7H1009.86V1146.04H1013.06L1013.61 1148.59H1013.79C1014.14 1148.07 1014.56 1147.58 1015.05 1147.14C1015.55 1146.69 1016.15 1146.34 1016.85 1146.09C1017.56 1145.82 1018.39 1145.68 1019.33 1145.68ZM1018.28 1148.89C1017.2 1148.89 1016.34 1149.11 1015.68 1149.54C1015.03 1149.96 1014.56 1150.6 1014.26 1151.46C1013.97 1152.32 1013.82 1153.39 1013.79 1154.68V1155.23C1013.79 1156.6 1013.93 1157.76 1014.21 1158.72C1014.5 1159.66 1014.97 1160.39 1015.63 1160.89C1016.3 1161.38 1017.2 1161.62 1018.33 1161.62C1019.29 1161.62 1020.08 1161.36 1020.7 1160.84C1021.34 1160.31 1021.81 1159.57 1022.12 1158.6C1022.43 1157.63 1022.59 1156.49 1022.59 1155.18C1022.59 1153.19 1022.23 1151.64 1021.52 1150.54C1020.82 1149.44 1019.74 1148.89 1018.28 1148.89ZM1040.51 1145.68C1040.82 1145.68 1041.16 1145.7 1041.53 1145.73C1041.89 1145.77 1042.21 1145.81 1042.48 1145.87L1042.11 1149.54C1041.88 1149.47 1041.59 1149.42 1041.24 1149.39C1040.91 1149.36 1040.61 1149.34 1040.34 1149.34C1039.64 1149.34 1038.97 1149.46 1038.34 1149.69C1037.71 1149.91 1037.14 1150.26 1036.65 1150.72C1036.17 1151.18 1035.78 1151.75 1035.5 1152.44C1035.23 1153.13 1035.09 1153.93 1035.09 1154.85V1164.51H1031.15V1146.04H1034.22L1034.75 1149.29H1034.94C1035.3 1148.63 1035.76 1148.03 1036.3 1147.49C1036.85 1146.94 1037.47 1146.51 1038.17 1146.19C1038.89 1145.85 1039.66 1145.68 1040.51 1145.68ZM1045.33 1162.44C1045.33 1161.53 1045.57 1160.89 1046.03 1160.52C1046.51 1160.14 1047.09 1159.95 1047.77 1159.95C1048.45 1159.95 1049.03 1160.14 1049.5 1160.52C1049.99 1160.89 1050.24 1161.53 1050.24 1162.44C1050.24 1163.33 1049.99 1163.97 1049.5 1164.37C1049.03 1164.76 1048.45 1164.96 1047.77 1164.96C1047.09 1164.96 1046.51 1164.76 1046.03 1164.37C1045.57 1163.97 1045.33 1163.33 1045.33 1162.44Z" fill="#E17324"/>
<rect x="1121.16" y="703.168" width="71.1979" height="405.828" rx="7.11979" fill="#E17324"/>
<path d="M1140.59 1164.51L1133.56 1144.13H1133.41C1133.44 1144.59 1133.48 1145.21 1133.53 1146C1133.57 1146.79 1133.61 1147.64 1133.64 1148.54C1133.68 1149.44 1133.69 1150.3 1133.69 1151.12V1164.51H1130.06V1140.11H1135.68L1142.44 1159.59H1142.54L1149.53 1140.11H1155.14V1164.51H1151.32V1150.92C1151.32 1150.18 1151.33 1149.37 1151.35 1148.5C1151.38 1147.64 1151.42 1146.81 1151.45 1146.04C1151.49 1145.26 1151.53 1144.63 1151.55 1144.17H1151.42L1144.12 1164.51H1140.59ZM1168.4 1145.68C1170.74 1145.68 1172.5 1146.2 1173.69 1147.24C1174.89 1148.27 1175.5 1149.88 1175.5 1152.08V1164.51H1172.71L1171.96 1161.89H1171.82C1171.3 1162.56 1170.76 1163.11 1170.21 1163.54C1169.65 1163.97 1169 1164.3 1168.27 1164.51C1167.55 1164.73 1166.66 1164.84 1165.62 1164.84C1164.52 1164.84 1163.53 1164.64 1162.66 1164.24C1161.8 1163.83 1161.11 1163.21 1160.61 1162.37C1160.11 1161.54 1159.86 1160.48 1159.86 1159.2C1159.86 1157.3 1160.57 1155.87 1161.98 1154.91C1163.4 1153.96 1165.55 1153.43 1168.42 1153.33L1171.62 1153.21V1152.24C1171.62 1150.96 1171.32 1150.05 1170.72 1149.51C1170.13 1148.96 1169.3 1148.69 1168.22 1148.69C1167.3 1148.69 1166.4 1148.82 1165.53 1149.09C1164.67 1149.36 1163.82 1149.68 1163 1150.07L1161.73 1147.3C1162.63 1146.83 1163.65 1146.44 1164.8 1146.14C1165.96 1145.84 1167.16 1145.68 1168.4 1145.68ZM1171.61 1155.68L1169.22 1155.76C1167.26 1155.83 1165.89 1156.16 1165.1 1156.77C1164.31 1157.37 1163.91 1158.19 1163.91 1159.23C1163.91 1160.15 1164.19 1160.81 1164.73 1161.24C1165.28 1161.65 1166 1161.85 1166.89 1161.85C1168.24 1161.85 1169.37 1161.47 1170.26 1160.7C1171.16 1159.92 1171.61 1158.78 1171.61 1157.28V1155.68ZM1178.2 1146.04H1182.47L1186.26 1156.58C1186.43 1157.06 1186.58 1157.53 1186.71 1158C1186.85 1158.46 1186.98 1158.91 1187.08 1159.35C1187.19 1159.8 1187.28 1160.24 1187.34 1160.69H1187.44C1187.55 1160.11 1187.71 1159.46 1187.91 1158.75C1188.12 1158.03 1188.36 1157.3 1188.61 1156.58L1192.25 1146.04H1196.47L1188.54 1167.04C1188.09 1168.25 1187.53 1169.27 1186.86 1170.11C1186.2 1170.97 1185.42 1171.62 1184.52 1172.05C1183.62 1172.5 1182.59 1172.72 1181.44 1172.72C1180.88 1172.72 1180.4 1172.68 1179.98 1172.62C1179.57 1172.56 1179.22 1172.5 1178.93 1172.43V1169.3C1179.17 1169.35 1179.46 1169.4 1179.82 1169.45C1180.17 1169.49 1180.54 1169.51 1180.92 1169.51C1181.62 1169.51 1182.23 1169.37 1182.74 1169.1C1183.25 1168.82 1183.68 1168.42 1184.04 1167.91C1184.4 1167.41 1184.69 1166.84 1184.92 1166.19L1185.57 1164.46L1178.2 1146.04Z" fill="#E17324"/>
<rect x="1263.55" y="576.427" width="71.1979" height="529.713" rx="7.11979" fill="#E17324"/>
<rect x="1348.99" y="610.602" width="71.1979" height="495.538" rx="7.11979" fill="#E17324" fill-opacity="0.5"/>
<path d="M1310.04 1171.29C1309.43 1171.29 1308.89 1171.25 1308.44 1171.17C1307.97 1171.11 1307.57 1171.01 1307.23 1170.89V1167.54C1307.59 1167.62 1307.97 1167.7 1308.39 1167.77C1308.8 1167.84 1309.24 1167.87 1309.7 1167.87C1310.32 1167.87 1310.87 1167.75 1311.37 1167.52C1311.87 1167.29 1312.27 1166.86 1312.56 1166.25C1312.86 1165.64 1313.01 1164.78 1313.01 1163.66V1140.1H1317.01V1163.53C1317.01 1165.34 1316.72 1166.82 1316.15 1167.95C1315.57 1169.1 1314.75 1169.94 1313.71 1170.47C1312.66 1171.02 1311.44 1171.29 1310.04 1171.29ZM1339.02 1146.03V1164.5H1335.94L1335.4 1162.01H1335.19C1334.8 1162.65 1334.3 1163.17 1333.7 1163.6C1333.1 1164.01 1332.43 1164.31 1331.7 1164.52C1330.96 1164.73 1330.19 1164.83 1329.38 1164.83C1327.99 1164.83 1326.8 1164.6 1325.81 1164.13C1324.83 1163.65 1324.08 1162.92 1323.55 1161.93C1323.03 1160.94 1322.77 1159.66 1322.77 1158.09V1146.03H1326.71V1157.36C1326.71 1158.79 1327 1159.87 1327.58 1160.58C1328.17 1161.29 1329.08 1161.65 1330.31 1161.65C1331.5 1161.65 1332.45 1161.4 1333.15 1160.91C1333.85 1160.42 1334.35 1159.7 1334.63 1158.74C1334.93 1157.78 1335.09 1156.61 1335.09 1155.22V1146.03H1339.02ZM1354.28 1145.68C1356.36 1145.68 1357.97 1146.22 1359.13 1147.29C1360.3 1148.36 1360.88 1150.08 1360.88 1152.45V1164.5H1356.96V1153.18C1356.96 1151.75 1356.67 1150.68 1356.08 1149.96C1355.49 1149.24 1354.58 1148.88 1353.34 1148.88C1351.55 1148.88 1350.3 1149.43 1349.6 1150.53C1348.91 1151.63 1348.57 1153.23 1348.57 1155.32V1164.5H1344.65V1146.03H1347.7L1348.25 1148.53H1348.47C1348.87 1147.88 1349.36 1147.36 1349.95 1146.94C1350.55 1146.52 1351.22 1146.2 1351.96 1145.99C1352.7 1145.78 1353.47 1145.68 1354.28 1145.68ZM1365.81 1162.43C1365.81 1161.52 1366.04 1160.88 1366.51 1160.51C1366.99 1160.13 1367.56 1159.94 1368.24 1159.94C1368.92 1159.94 1369.5 1160.13 1369.98 1160.51C1370.47 1160.88 1370.71 1161.52 1370.71 1162.43C1370.71 1163.32 1370.47 1163.96 1369.98 1164.37C1369.5 1164.75 1368.92 1164.95 1368.24 1164.95C1367.56 1164.95 1366.99 1164.75 1366.51 1164.37C1366.04 1163.96 1365.81 1163.32 1365.81 1162.43Z" fill="#E17324"/>
<rect x="1491.39" y="539.404" width="71.1979" height="569.583" rx="7.11979" fill="#E17324"/>
<rect x="1576.82" y="529.436" width="71.1979" height="579.551" rx="7.11979" fill="#E17324" fill-opacity="0.5"/>
<path d="M1544.37 1171.29C1543.76 1171.29 1543.23 1171.25 1542.77 1171.17C1542.3 1171.11 1541.9 1171.01 1541.57 1170.89V1167.54C1541.92 1167.62 1542.31 1167.7 1542.72 1167.77C1543.13 1167.84 1543.57 1167.87 1544.04 1167.87C1544.65 1167.87 1545.21 1167.75 1545.71 1167.52C1546.21 1167.29 1546.6 1166.86 1546.89 1166.25C1547.19 1165.64 1547.34 1164.78 1547.34 1163.66V1140.1H1551.35V1163.53C1551.35 1165.34 1551.06 1166.82 1550.48 1167.95C1549.9 1169.1 1549.09 1169.94 1548.04 1170.47C1547 1171.02 1545.77 1171.29 1544.37 1171.29ZM1573.36 1146.03V1164.5H1570.27L1569.74 1162.01H1569.52C1569.13 1162.65 1568.63 1163.17 1568.03 1163.6C1567.43 1164.01 1566.77 1164.31 1566.03 1164.52C1565.3 1164.73 1564.52 1164.83 1563.71 1164.83C1562.32 1164.83 1561.13 1164.6 1560.14 1164.13C1559.16 1163.65 1558.41 1162.92 1557.89 1161.93C1557.37 1160.94 1557.1 1159.66 1557.1 1158.09V1146.03H1561.04V1157.36C1561.04 1158.79 1561.33 1159.87 1561.91 1160.58C1562.5 1161.29 1563.41 1161.65 1564.65 1161.65C1565.84 1161.65 1566.78 1161.4 1567.48 1160.91C1568.18 1160.42 1568.68 1159.7 1568.97 1158.74C1569.27 1157.78 1569.42 1156.61 1569.42 1155.22V1146.03H1573.36ZM1582.92 1164.5H1578.98V1138.53H1582.92V1164.5ZM1587.96 1162.43C1587.96 1161.52 1588.19 1160.88 1588.66 1160.51C1589.14 1160.13 1589.72 1159.94 1590.39 1159.94C1591.07 1159.94 1591.65 1160.13 1592.13 1160.51C1592.62 1160.88 1592.86 1161.52 1592.86 1162.43C1592.86 1163.32 1592.62 1163.96 1592.13 1164.37C1591.65 1164.75 1591.07 1164.95 1590.39 1164.95C1589.72 1164.95 1589.14 1164.75 1588.66 1164.37C1588.19 1163.96 1587.96 1163.32 1587.96 1162.43Z" fill="#E17324"/>
<rect x="1719.22" y="576.436" width="71.1979" height="532.56" rx="7.11979" fill="#E17324" fill-opacity="0.5"/>
<path d="M1743.24 1164.51L1740.85 1157.73H1731.52L1729.14 1164.51H1724.92L1733.99 1140.01H1738.43L1747.49 1164.51H1743.24ZM1739.82 1154.3L1737.5 1147.62C1737.41 1147.33 1737.28 1146.93 1737.11 1146.4C1736.95 1145.87 1736.78 1145.33 1736.61 1144.78C1736.45 1144.23 1736.31 1143.76 1736.2 1143.38C1736.08 1143.84 1735.95 1144.35 1735.78 1144.92C1735.62 1145.47 1735.47 1146 1735.31 1146.49C1735.17 1146.98 1735.06 1147.35 1734.98 1147.62L1732.64 1154.3H1739.82ZM1766.42 1146.04V1164.51H1763.33L1762.8 1162.02H1762.58C1762.19 1162.66 1761.69 1163.18 1761.09 1163.61C1760.49 1164.02 1759.82 1164.32 1759.09 1164.52C1758.36 1164.74 1757.58 1164.84 1756.77 1164.84C1755.38 1164.84 1754.19 1164.61 1753.2 1164.14C1752.22 1163.66 1751.47 1162.93 1750.95 1161.94C1750.42 1160.95 1750.16 1159.67 1750.16 1158.1V1146.04H1754.1V1157.37C1754.1 1158.8 1754.39 1159.87 1754.97 1160.59C1755.56 1161.3 1756.47 1161.65 1757.71 1161.65C1758.9 1161.65 1759.84 1161.41 1760.54 1160.92C1761.24 1160.43 1761.74 1159.71 1762.03 1158.75C1762.33 1157.79 1762.48 1156.62 1762.48 1155.23V1146.04H1766.42ZM1777.31 1172.72C1774.81 1172.72 1772.89 1172.27 1771.56 1171.37C1770.22 1170.47 1769.55 1169.2 1769.55 1167.58C1769.55 1166.44 1769.91 1165.48 1770.62 1164.69C1771.33 1163.91 1772.35 1163.37 1773.67 1163.07C1773.17 1162.85 1772.74 1162.51 1772.37 1162.04C1772.02 1161.56 1771.84 1161.03 1771.84 1160.45C1771.84 1159.76 1772.03 1159.17 1772.42 1158.68C1772.81 1158.19 1773.4 1157.72 1774.18 1157.27C1773.21 1156.85 1772.43 1156.19 1771.84 1155.26C1771.26 1154.33 1770.97 1153.23 1770.97 1151.98C1770.97 1150.64 1771.26 1149.51 1771.82 1148.57C1772.39 1147.63 1773.22 1146.91 1774.31 1146.42C1775.4 1145.92 1776.72 1145.67 1778.26 1145.67C1778.6 1145.67 1778.96 1145.69 1779.35 1145.73C1779.75 1145.77 1780.12 1145.81 1780.45 1145.87C1780.79 1145.91 1781.06 1145.96 1781.23 1146.02H1787.63V1148.2L1784.49 1148.79C1784.79 1149.21 1785.03 1149.7 1785.21 1150.24C1785.38 1150.77 1785.47 1151.36 1785.47 1151.99C1785.47 1153.91 1784.81 1155.41 1783.49 1156.51C1782.17 1157.6 1780.36 1158.15 1778.05 1158.15C1777.49 1158.13 1776.95 1158.08 1776.43 1158.02C1776.03 1158.26 1775.72 1158.53 1775.51 1158.83C1775.3 1159.12 1775.19 1159.45 1775.19 1159.82C1775.19 1160.12 1775.3 1160.36 1775.51 1160.55C1775.72 1160.73 1776.03 1160.86 1776.45 1160.95C1776.87 1161.04 1777.38 1161.09 1777.98 1161.09H1781.17C1783.19 1161.09 1784.74 1161.52 1785.81 1162.37C1786.87 1163.23 1787.41 1164.49 1787.41 1166.14C1787.41 1168.25 1786.54 1169.86 1784.81 1171C1783.07 1172.14 1780.57 1172.72 1777.31 1172.72ZM1777.46 1169.96C1778.83 1169.96 1779.98 1169.83 1780.92 1169.56C1781.85 1169.3 1782.56 1168.91 1783.04 1168.41C1783.51 1167.92 1783.75 1167.34 1783.75 1166.66C1783.75 1166.06 1783.6 1165.6 1783.3 1165.28C1783 1164.95 1782.55 1164.73 1781.95 1164.61C1781.35 1164.49 1780.61 1164.42 1779.72 1164.42H1776.81C1776.09 1164.42 1775.45 1164.54 1774.89 1164.76C1774.34 1164.99 1773.9 1165.33 1773.59 1165.76C1773.29 1166.19 1773.14 1166.72 1773.14 1167.33C1773.14 1168.17 1773.51 1168.82 1774.26 1169.28C1775.02 1169.74 1776.08 1169.96 1777.46 1169.96ZM1778.23 1155.58C1779.38 1155.58 1780.23 1155.27 1780.78 1154.65C1781.34 1154.01 1781.62 1153.12 1781.62 1151.98C1781.62 1150.73 1781.33 1149.8 1780.75 1149.17C1780.18 1148.55 1779.34 1148.24 1778.21 1148.24C1777.11 1148.24 1776.27 1148.56 1775.69 1149.19C1775.13 1149.82 1774.84 1150.76 1774.84 1152.01C1774.84 1153.13 1775.13 1154.01 1775.69 1154.65C1776.27 1155.27 1777.12 1155.58 1778.23 1155.58ZM1790.43 1162.44C1790.43 1161.53 1790.66 1160.89 1791.13 1160.52C1791.61 1160.14 1792.19 1159.95 1792.87 1159.95C1793.54 1159.95 1794.12 1160.14 1794.6 1160.52C1795.09 1160.89 1795.33 1161.53 1795.33 1162.44C1795.33 1163.33 1795.09 1163.97 1794.6 1164.37C1794.12 1164.76 1793.54 1164.96 1792.87 1164.96C1792.19 1164.96 1791.61 1164.76 1791.13 1164.37C1790.66 1163.97 1790.43 1163.33 1790.43 1162.44Z" fill="#E17324"/>
<rect x="1861.62" y="466.792" width="71.1979" height="642.205" rx="7.11979" fill="#E17324" fill-opacity="0.5"/>
<path d="M1884.6 1157.87C1884.6 1159.31 1884.24 1160.56 1883.53 1161.6C1882.83 1162.65 1881.82 1163.45 1880.49 1164.01C1879.18 1164.56 1877.61 1164.84 1875.79 1164.84C1874.9 1164.84 1874.05 1164.79 1873.24 1164.69C1872.42 1164.59 1871.66 1164.45 1870.93 1164.26C1870.22 1164.06 1869.57 1163.82 1868.98 1163.54V1159.77C1869.97 1160.2 1871.08 1160.6 1872.3 1160.95C1873.52 1161.3 1874.77 1161.47 1876.04 1161.47C1877.07 1161.47 1877.93 1161.34 1878.61 1161.07C1879.3 1160.79 1879.81 1160.4 1880.14 1159.9C1880.48 1159.39 1880.64 1158.8 1880.64 1158.12C1880.64 1157.39 1880.45 1156.78 1880.06 1156.28C1879.67 1155.78 1879.08 1155.32 1878.29 1154.91C1877.51 1154.49 1876.53 1154.04 1875.35 1153.56C1874.55 1153.24 1873.79 1152.87 1873.05 1152.46C1872.33 1152.05 1871.68 1151.56 1871.12 1151.01C1870.55 1150.45 1870.1 1149.8 1869.76 1149.04C1869.44 1148.27 1869.28 1147.37 1869.28 1146.34C1869.28 1144.96 1869.61 1143.78 1870.27 1142.8C1870.93 1141.82 1871.87 1141.07 1873.07 1140.55C1874.28 1140.02 1875.69 1139.76 1877.31 1139.76C1878.59 1139.76 1879.79 1139.89 1880.91 1140.16C1882.05 1140.43 1883.16 1140.81 1884.25 1141.3L1882.98 1144.52C1881.98 1144.11 1881.01 1143.78 1880.06 1143.53C1879.13 1143.29 1878.17 1143.17 1877.19 1143.17C1876.34 1143.17 1875.63 1143.29 1875.04 1143.55C1874.45 1143.8 1874 1144.17 1873.69 1144.63C1873.39 1145.09 1873.24 1145.63 1873.24 1146.27C1873.24 1146.98 1873.41 1147.58 1873.75 1148.07C1874.11 1148.55 1874.65 1148.99 1875.39 1149.39C1876.13 1149.79 1877.09 1150.23 1878.26 1150.72C1879.6 1151.28 1880.74 1151.86 1881.68 1152.48C1882.62 1153.09 1883.35 1153.82 1883.85 1154.68C1884.35 1155.52 1884.6 1156.59 1884.6 1157.87ZM1896.26 1145.68C1897.91 1145.68 1899.32 1146.02 1900.5 1146.7C1901.68 1147.38 1902.59 1148.34 1903.22 1149.59C1903.86 1150.84 1904.17 1152.33 1904.17 1154.06V1156.16H1891.84C1891.89 1157.96 1892.36 1159.33 1893.28 1160.3C1894.2 1161.27 1895.49 1161.75 1897.15 1161.75C1898.33 1161.75 1899.38 1161.64 1900.32 1161.42C1901.26 1161.19 1902.24 1160.85 1903.24 1160.4V1163.59C1902.32 1164.02 1901.38 1164.34 1900.42 1164.54C1899.46 1164.74 1898.32 1164.84 1896.98 1164.84C1895.17 1164.84 1893.57 1164.49 1892.19 1163.79C1890.82 1163.08 1889.75 1162.02 1888.97 1160.62C1888.2 1159.22 1887.82 1157.48 1887.82 1155.4C1887.82 1153.33 1888.17 1151.57 1888.87 1150.12C1889.57 1148.68 1890.56 1147.58 1891.82 1146.82C1893.09 1146.06 1894.57 1145.68 1896.26 1145.68ZM1896.26 1148.64C1895.03 1148.64 1894.03 1149.04 1893.26 1149.84C1892.5 1150.64 1892.06 1151.81 1891.92 1153.36H1900.34C1900.32 1152.44 1900.17 1151.62 1899.87 1150.91C1899.58 1150.2 1899.13 1149.64 1898.53 1149.24C1897.94 1148.84 1897.19 1148.64 1896.26 1148.64ZM1918.07 1145.68C1920.26 1145.68 1922.02 1146.49 1923.35 1148.09C1924.68 1149.69 1925.35 1152.07 1925.35 1155.23C1925.35 1157.32 1925.04 1159.08 1924.41 1160.52C1923.8 1161.94 1922.94 1163.02 1921.83 1163.76C1920.73 1164.48 1919.44 1164.84 1917.97 1164.84C1917.04 1164.84 1916.23 1164.72 1915.54 1164.47C1914.85 1164.23 1914.26 1163.91 1913.77 1163.52C1913.28 1163.12 1912.87 1162.69 1912.53 1162.22H1912.3C1912.36 1162.67 1912.41 1163.16 1912.45 1163.71C1912.51 1164.24 1912.53 1164.73 1912.53 1165.18V1172.7H1908.6V1146.04H1911.8L1912.35 1148.59H1912.53C1912.88 1148.07 1913.3 1147.58 1913.78 1147.14C1914.29 1146.69 1914.89 1146.34 1915.59 1146.09C1916.3 1145.82 1917.13 1145.68 1918.07 1145.68ZM1917.02 1148.89C1915.94 1148.89 1915.08 1149.11 1914.42 1149.54C1913.77 1149.96 1913.3 1150.6 1913 1151.46C1912.71 1152.32 1912.56 1153.39 1912.53 1154.68V1155.23C1912.53 1156.6 1912.67 1157.76 1912.95 1158.72C1913.24 1159.66 1913.71 1160.39 1914.37 1160.89C1915.04 1161.38 1915.94 1161.62 1917.07 1161.62C1918.03 1161.62 1918.82 1161.36 1919.44 1160.84C1920.08 1160.31 1920.55 1159.57 1920.86 1158.6C1921.17 1157.63 1921.33 1156.49 1921.33 1155.18C1921.33 1153.19 1920.97 1151.64 1920.26 1150.54C1919.56 1149.44 1918.48 1148.89 1917.02 1148.89ZM1929.32 1162.44C1929.32 1161.53 1929.55 1160.89 1930.02 1160.52C1930.5 1160.14 1931.08 1159.95 1931.76 1159.95C1932.44 1159.95 1933.01 1160.14 1933.49 1160.52C1933.98 1160.89 1934.23 1161.53 1934.23 1162.44C1934.23 1163.33 1933.98 1163.97 1933.49 1164.37C1933.01 1164.76 1932.44 1164.96 1931.76 1164.96C1931.08 1164.96 1930.5 1164.76 1930.02 1164.37C1929.55 1163.97 1929.32 1163.33 1929.32 1162.44Z" fill="#E17324"/>
<rect x="2004.01" y="619.155" width="71.1979" height="489.842" rx="7.11979" fill="#E17324" fill-opacity="0.5"/>
<path d="M2034.57 1152.28C2034.57 1154.16 2034.33 1155.87 2033.85 1157.42C2033.39 1158.95 2032.68 1160.27 2031.73 1161.39C2030.79 1162.49 2029.6 1163.34 2028.18 1163.94C2026.76 1164.54 2025.09 1164.84 2023.17 1164.84C2021.23 1164.84 2019.54 1164.54 2018.1 1163.94C2016.68 1163.34 2015.49 1162.48 2014.55 1161.37C2013.61 1160.26 2012.91 1158.93 2012.44 1157.38C2011.98 1155.84 2011.74 1154.12 2011.74 1152.24C2011.74 1149.73 2012.15 1147.54 2012.98 1145.67C2013.81 1143.79 2015.08 1142.33 2016.77 1141.3C2018.47 1140.25 2020.62 1139.73 2023.21 1139.73C2025.74 1139.73 2027.85 1140.24 2029.53 1141.28C2031.21 1142.31 2032.47 1143.77 2033.3 1145.65C2034.15 1147.52 2034.57 1149.73 2034.57 1152.28ZM2015.95 1152.28C2015.95 1154.16 2016.2 1155.79 2016.72 1157.17C2017.23 1158.53 2018.01 1159.59 2019.07 1160.34C2020.14 1161.07 2021.51 1161.44 2023.17 1161.44C2024.85 1161.44 2026.22 1161.07 2027.28 1160.34C2028.34 1159.59 2029.11 1158.53 2029.62 1157.17C2030.12 1155.79 2030.37 1154.16 2030.37 1152.28C2030.37 1149.42 2029.79 1147.18 2028.65 1145.57C2027.51 1143.94 2025.7 1143.13 2023.21 1143.13C2021.54 1143.13 2020.16 1143.5 2019.09 1144.23C2018.02 1144.97 2017.23 1146.02 2016.72 1147.39C2016.2 1148.74 2015.95 1150.37 2015.95 1152.28ZM2046.85 1164.84C2045.11 1164.84 2043.59 1164.5 2042.31 1163.82C2041.03 1163.15 2040.05 1162.1 2039.36 1160.7C2038.67 1159.3 2038.33 1157.52 2038.33 1155.36C2038.33 1153.12 2038.7 1151.28 2039.46 1149.86C2040.22 1148.43 2041.26 1147.38 2042.6 1146.7C2043.94 1146.02 2045.48 1145.68 2047.22 1145.68C2048.32 1145.68 2049.32 1145.8 2050.21 1146.02C2051.11 1146.23 2051.87 1146.49 2052.49 1146.8L2051.32 1149.94C2050.65 1149.66 2049.95 1149.43 2049.24 1149.24C2048.53 1149.05 2047.84 1148.96 2047.19 1148.96C2046.11 1148.96 2045.21 1149.19 2044.48 1149.67C2043.77 1150.15 2043.24 1150.86 2042.88 1151.81C2042.54 1152.75 2042.36 1153.93 2042.36 1155.33C2042.36 1156.69 2042.54 1157.83 2042.9 1158.77C2043.25 1159.69 2043.78 1160.39 2044.48 1160.87C2045.18 1161.34 2046.05 1161.57 2047.07 1161.57C2048.08 1161.57 2048.99 1161.45 2049.79 1161.2C2050.59 1160.96 2051.35 1160.64 2052.06 1160.25V1163.66C2051.36 1164.06 2050.61 1164.35 2049.81 1164.54C2049.01 1164.74 2048.02 1164.84 2046.85 1164.84ZM2063.27 1161.67C2063.78 1161.67 2064.29 1161.63 2064.79 1161.54C2065.29 1161.44 2065.75 1161.32 2066.16 1161.19V1164.16C2065.73 1164.35 2065.16 1164.51 2064.47 1164.64C2063.78 1164.77 2063.07 1164.84 2062.32 1164.84C2061.28 1164.84 2060.34 1164.67 2059.5 1164.32C2058.67 1163.97 2058.01 1163.36 2057.52 1162.51C2057.03 1161.65 2056.78 1160.46 2056.78 1158.95V1149.02H2054.26V1147.27L2056.97 1145.89L2058.25 1141.93H2060.72V1146.04H2066.01V1149.02H2060.72V1158.9C2060.72 1159.84 2060.95 1160.53 2061.42 1160.99C2061.89 1161.44 2062.51 1161.67 2063.27 1161.67ZM2069.35 1162.44C2069.35 1161.53 2069.58 1160.89 2070.05 1160.52C2070.53 1160.14 2071.1 1159.95 2071.78 1159.95C2072.46 1159.95 2073.04 1160.14 2073.52 1160.52C2074.01 1160.89 2074.25 1161.53 2074.25 1162.44C2074.25 1163.33 2074.01 1163.97 2073.52 1164.37C2073.04 1164.76 2072.46 1164.96 2071.78 1164.96C2071.1 1164.96 2070.53 1164.76 2070.05 1164.37C2069.58 1163.97 2069.35 1163.33 2069.35 1162.44Z" fill="#E17324"/>
<rect x="2146.41" y="483.879" width="71.1979" height="625.118" rx="7.11979" fill="#E17324" fill-opacity="0.5"/>
<path d="M2175.67 1164.51H2170.74L2158.79 1145.03H2158.64C2158.69 1145.69 2158.73 1146.39 2158.76 1147.12C2158.81 1147.85 2158.84 1148.61 2158.86 1149.39C2158.89 1150.17 2158.92 1150.96 2158.94 1151.76V1164.51H2155.31V1140.11H2160.2L2172.13 1159.45H2172.24C2172.22 1158.88 2172.19 1158.23 2172.16 1157.5C2172.13 1156.77 2172.09 1156.01 2172.06 1155.23C2172.04 1154.44 2172.02 1153.68 2172.01 1152.94V1140.11H2175.67V1164.51ZM2198.03 1155.23C2198.03 1156.77 2197.83 1158.13 2197.42 1159.32C2197.02 1160.51 2196.44 1161.52 2195.67 1162.34C2194.91 1163.15 2193.98 1163.77 2192.9 1164.21C2191.82 1164.63 2190.61 1164.84 2189.25 1164.84C2187.98 1164.84 2186.82 1164.63 2185.76 1164.21C2184.7 1163.77 2183.79 1163.15 2183.01 1162.34C2182.24 1161.52 2181.64 1160.51 2181.22 1159.32C2180.8 1158.13 2180.59 1156.77 2180.59 1155.23C2180.59 1153.19 2180.94 1151.47 2181.64 1150.06C2182.35 1148.63 2183.36 1147.55 2184.68 1146.8C2185.99 1146.06 2187.55 1145.68 2189.37 1145.68C2191.07 1145.68 2192.57 1146.06 2193.87 1146.8C2195.17 1147.55 2196.19 1148.63 2196.92 1150.06C2197.66 1151.48 2198.03 1153.21 2198.03 1155.23ZM2184.63 1155.23C2184.63 1156.58 2184.79 1157.73 2185.11 1158.68C2185.44 1159.64 2185.96 1160.37 2186.65 1160.89C2187.33 1161.39 2188.22 1161.64 2189.32 1161.64C2190.41 1161.64 2191.3 1161.39 2191.98 1160.89C2192.67 1160.37 2193.18 1159.64 2193.5 1158.68C2193.83 1157.73 2193.99 1156.58 2193.99 1155.23C2193.99 1153.88 2193.83 1152.74 2193.5 1151.81C2193.18 1150.86 2192.67 1150.15 2191.98 1149.66C2191.3 1149.16 2190.4 1148.91 2189.3 1148.91C2187.67 1148.91 2186.49 1149.45 2185.74 1150.54C2185 1151.63 2184.63 1153.19 2184.63 1155.23ZM2206.75 1164.51L2199.73 1146.04H2203.88L2207.69 1156.88C2207.93 1157.57 2208.15 1158.32 2208.35 1159.12C2208.56 1159.92 2208.69 1160.59 2208.77 1161.14H2208.91C2208.98 1160.57 2209.13 1159.89 2209.36 1159.1C2209.58 1158.3 2209.81 1157.56 2210.04 1156.88L2213.84 1146.04H2217.98L2210.96 1164.51H2206.75ZM2220.22 1162.44C2220.22 1161.53 2220.45 1160.89 2220.92 1160.52C2221.4 1160.14 2221.98 1159.95 2222.66 1159.95C2223.33 1159.95 2223.91 1160.14 2224.39 1160.52C2224.88 1160.89 2225.13 1161.53 2225.13 1162.44C2225.13 1163.33 2224.88 1163.97 2224.39 1164.37C2223.91 1164.76 2223.33 1164.96 2222.66 1164.96C2221.98 1164.96 2221.4 1164.76 2220.92 1164.37C2220.45 1163.97 2220.22 1163.33 2220.22 1162.44Z" fill="#E17324"/>
<rect x="2288.8" y="566.468" width="71.1979" height="542.528" rx="7.11979" fill="#E17324" fill-opacity="0.5"/>
<path d="M2317.51 1152.08C2317.51 1154.82 2317 1157.12 2315.98 1158.97C2314.95 1160.8 2313.47 1162.19 2311.52 1163.12C2309.57 1164.05 2307.23 1164.51 2304.48 1164.51H2297.7V1140.11H2305.21C2307.74 1140.11 2309.92 1140.57 2311.75 1141.48C2313.59 1142.38 2315.01 1143.72 2316.01 1145.5C2317.01 1147.27 2317.51 1149.46 2317.51 1152.08ZM2313.34 1152.19C2313.34 1150.19 2313.02 1148.54 2312.39 1147.25C2311.76 1145.96 2310.84 1145.01 2309.62 1144.38C2308.4 1143.75 2306.91 1143.43 2305.13 1143.43H2301.71V1161.15H2304.54C2307.49 1161.15 2309.7 1160.4 2311.15 1158.9C2312.61 1157.4 2313.34 1155.16 2313.34 1152.19ZM2329.73 1145.68C2331.37 1145.68 2332.78 1146.02 2333.96 1146.7C2335.14 1147.38 2336.05 1148.34 2336.68 1149.59C2337.32 1150.84 2337.63 1152.33 2337.63 1154.06V1156.16H2325.3C2325.35 1157.96 2325.83 1159.33 2326.74 1160.3C2327.66 1161.27 2328.95 1161.75 2330.61 1161.75C2331.79 1161.75 2332.85 1161.64 2333.78 1161.42C2334.73 1161.19 2335.7 1160.85 2336.7 1160.4V1163.59C2335.78 1164.02 2334.84 1164.34 2333.88 1164.54C2332.92 1164.74 2331.78 1164.84 2330.44 1164.84C2328.63 1164.84 2327.03 1164.49 2325.65 1163.79C2324.29 1163.08 2323.21 1162.02 2322.43 1160.62C2321.67 1159.22 2321.28 1157.48 2321.28 1155.4C2321.28 1153.33 2321.63 1151.57 2322.33 1150.12C2323.03 1148.68 2324.02 1147.58 2325.29 1146.82C2326.55 1146.06 2328.03 1145.68 2329.73 1145.68ZM2329.73 1148.64C2328.49 1148.64 2327.49 1149.04 2326.72 1149.84C2325.97 1150.64 2325.52 1151.81 2325.39 1153.36H2333.8C2333.79 1152.44 2333.63 1151.62 2333.33 1150.91C2333.04 1150.2 2332.6 1149.64 2331.99 1149.24C2331.41 1148.84 2330.65 1148.64 2329.73 1148.64ZM2349.5 1164.84C2347.75 1164.84 2346.24 1164.5 2344.96 1163.82C2343.68 1163.15 2342.7 1162.1 2342.01 1160.7C2341.32 1159.3 2340.97 1157.52 2340.97 1155.36C2340.97 1153.12 2341.35 1151.28 2342.11 1149.86C2342.86 1148.43 2343.91 1147.38 2345.24 1146.7C2346.59 1146.02 2348.13 1145.68 2349.87 1145.68C2350.97 1145.68 2351.96 1145.8 2352.85 1146.02C2353.75 1146.23 2354.52 1146.49 2355.14 1146.8L2353.97 1149.94C2353.29 1149.66 2352.6 1149.43 2351.89 1149.24C2351.17 1149.05 2350.49 1148.96 2349.83 1148.96C2348.75 1148.96 2347.85 1149.19 2347.13 1149.67C2346.42 1150.15 2345.88 1150.86 2345.53 1151.81C2345.18 1152.75 2345.01 1153.93 2345.01 1155.33C2345.01 1156.69 2345.19 1157.83 2345.54 1158.77C2345.9 1159.69 2346.43 1160.39 2347.13 1160.87C2347.83 1161.34 2348.69 1161.57 2349.72 1161.57C2350.73 1161.57 2351.64 1161.45 2352.44 1161.2C2353.24 1160.96 2353.99 1160.64 2354.71 1160.25V1163.66C2354 1164.06 2353.25 1164.35 2352.45 1164.54C2351.65 1164.74 2350.67 1164.84 2349.5 1164.84ZM2358.48 1162.44C2358.48 1161.53 2358.71 1160.89 2359.18 1160.52C2359.66 1160.14 2360.23 1159.95 2360.91 1159.95C2361.59 1159.95 2362.17 1160.14 2362.65 1160.52C2363.14 1160.89 2363.38 1161.53 2363.38 1162.44C2363.38 1163.33 2363.14 1163.97 2362.65 1164.37C2362.17 1164.76 2361.59 1164.96 2360.91 1164.96C2360.23 1164.96 2359.66 1164.76 2359.18 1164.37C2358.71 1163.97 2358.48 1163.33 2358.48 1162.44Z" fill="#E17324"/>
<path d="M255.541 631.558V626.301C253.622 626.268 251.786 626.101 250.034 625.801C248.299 625.5 246.88 625.108 245.779 624.624V620.569C246.93 621.103 248.407 621.571 250.209 621.971C252.011 622.372 253.789 622.588 255.541 622.622V611.608C253.338 610.991 251.511 610.29 250.059 609.506C248.624 608.705 247.548 607.729 246.83 606.577C246.113 605.426 245.754 604.033 245.754 602.397C245.754 600.695 246.154 599.243 246.955 598.042C247.773 596.824 248.916 595.873 250.384 595.188C251.853 594.504 253.572 594.112 255.541 594.012V589.682H258.594V593.962C260.38 594.012 262.007 594.212 263.475 594.563C264.944 594.896 266.304 595.33 267.555 595.864L266.254 599.343C265.119 598.893 263.893 598.509 262.574 598.192C261.256 597.875 259.929 597.658 258.594 597.541V608.48C260.831 609.13 262.699 609.823 264.201 610.557C265.72 611.291 266.863 612.201 267.63 613.285C268.398 614.37 268.782 615.772 268.782 617.491C268.782 619.927 267.889 621.896 266.104 623.398C264.318 624.883 261.815 625.784 258.594 626.101V631.558H255.541ZM258.594 622.397C260.647 622.196 262.174 621.704 263.175 620.92C264.193 620.119 264.702 619.068 264.702 617.766C264.702 616.831 264.502 616.064 264.101 615.463C263.717 614.862 263.083 614.345 262.199 613.911C261.314 613.461 260.113 613.035 258.594 612.635V622.397ZM255.541 607.428V597.641C254.289 597.725 253.238 597.958 252.387 598.342C251.536 598.726 250.893 599.227 250.46 599.844C250.042 600.461 249.834 601.196 249.834 602.047C249.834 603.031 250.017 603.857 250.384 604.525C250.768 605.176 251.377 605.735 252.212 606.202C253.063 606.652 254.172 607.061 255.541 607.428ZM289.908 628.579H285.853V602.647C285.853 601.663 285.853 600.82 285.853 600.119C285.869 599.402 285.886 598.751 285.903 598.167C285.936 597.566 285.978 596.957 286.028 596.34C285.511 596.874 285.027 597.333 284.576 597.716C284.126 598.084 283.567 598.542 282.899 599.093L278.719 602.447L276.541 599.619L286.453 591.984H289.908V628.579ZM310.383 622.622L310.708 623.198C310.408 624.416 310.024 625.717 309.557 627.102C309.106 628.487 308.605 629.872 308.055 631.257C307.521 632.659 306.978 633.969 306.428 635.187H303.324C303.674 633.852 304.017 632.442 304.35 630.957C304.684 629.489 304.984 628.037 305.251 626.602C305.535 625.15 305.76 623.823 305.927 622.622H310.383ZM328.605 606.202C331.091 606.202 333.252 606.627 335.088 607.478C336.923 608.313 338.342 609.531 339.343 611.133C340.361 612.735 340.87 614.679 340.87 616.965C340.87 619.468 340.327 621.629 339.243 623.448C338.158 625.25 336.598 626.643 334.562 627.628C332.526 628.596 330.09 629.08 327.253 629.08C325.351 629.08 323.582 628.913 321.947 628.579C320.311 628.245 318.935 627.745 317.817 627.077V623.122C319.035 623.857 320.512 624.441 322.247 624.875C323.983 625.308 325.668 625.525 327.303 625.525C329.156 625.525 330.774 625.233 332.159 624.649C333.561 624.049 334.646 623.147 335.413 621.946C336.197 620.728 336.59 619.201 336.59 617.365C336.59 614.929 335.839 613.052 334.337 611.734C332.852 610.399 330.499 609.731 327.278 609.731C326.244 609.731 325.109 609.815 323.874 609.981C322.639 610.148 321.621 610.332 320.82 610.532L318.718 609.155L320.119 591.984H338.317V595.789H323.674L322.748 606.828C323.382 606.694 324.199 606.561 325.201 606.427C326.202 606.277 327.337 606.202 328.605 606.202ZM370.556 610.232C370.556 613.202 370.331 615.855 369.88 618.191C369.43 620.528 368.72 622.505 367.753 624.124C366.785 625.742 365.533 626.977 363.998 627.828C362.463 628.663 360.619 629.08 358.466 629.08C355.746 629.08 353.494 628.337 351.708 626.852C349.939 625.367 348.613 623.223 347.728 620.419C346.86 617.599 346.427 614.203 346.427 610.232C346.427 606.327 346.819 602.973 347.603 600.169C348.404 597.349 349.689 595.188 351.458 593.687C353.227 592.168 355.563 591.409 358.466 591.409C361.22 591.409 363.489 592.16 365.275 593.662C367.06 595.147 368.387 597.299 369.254 600.119C370.122 602.923 370.556 606.294 370.556 610.232ZM350.607 610.232C350.607 613.636 350.865 616.473 351.383 618.742C351.9 621.012 352.734 622.714 353.886 623.848C355.054 624.966 356.581 625.525 358.466 625.525C360.352 625.525 361.87 624.966 363.022 623.848C364.19 622.73 365.033 621.037 365.55 618.767C366.084 616.498 366.351 613.653 366.351 610.232C366.351 606.878 366.092 604.074 365.575 601.821C365.058 599.552 364.223 597.85 363.072 596.715C361.92 595.564 360.385 594.988 358.466 594.988C356.547 594.988 355.012 595.564 353.861 596.715C352.709 597.85 351.875 599.552 351.358 601.821C350.857 604.074 350.607 606.878 350.607 610.232ZM399.892 610.232C399.892 613.202 399.666 615.855 399.216 618.191C398.765 620.528 398.056 622.505 397.088 624.124C396.12 625.742 394.869 626.977 393.334 627.828C391.799 628.663 389.955 629.08 387.802 629.08C385.082 629.08 382.829 628.337 381.044 626.852C379.275 625.367 377.948 623.223 377.064 620.419C376.196 617.599 375.762 614.203 375.762 610.232C375.762 606.327 376.154 602.973 376.939 600.169C377.74 597.349 379.025 595.188 380.793 593.687C382.562 592.168 384.898 591.409 387.802 591.409C390.555 591.409 392.825 592.16 394.61 593.662C396.396 595.147 397.722 597.299 398.59 600.119C399.458 602.923 399.892 606.294 399.892 610.232ZM379.942 610.232C379.942 613.636 380.201 616.473 380.718 618.742C381.236 621.012 382.07 622.714 383.221 623.848C384.39 624.966 385.916 625.525 387.802 625.525C389.688 625.525 391.206 624.966 392.358 623.848C393.526 622.73 394.368 621.037 394.886 618.767C395.42 616.498 395.687 613.653 395.687 610.232C395.687 606.878 395.428 604.074 394.911 601.821C394.393 599.552 393.559 597.85 392.408 596.715C391.256 595.564 389.721 594.988 387.802 594.988C385.883 594.988 384.348 595.564 383.196 596.715C382.045 597.85 381.211 599.552 380.693 601.821C380.193 604.074 379.942 606.878 379.942 610.232Z" fill="#E17324"/>
<path d="M255.541 810.976V805.72C253.622 805.686 251.786 805.52 250.034 805.219C248.299 804.919 246.88 804.527 245.779 804.043V799.988C246.93 800.522 248.407 800.989 250.209 801.39C252.011 801.79 253.789 802.007 255.541 802.04V791.027C253.338 790.409 251.511 789.709 250.059 788.924C248.624 788.123 247.548 787.147 246.83 785.996C246.113 784.844 245.754 783.451 245.754 781.816C245.754 780.114 246.154 778.662 246.955 777.46C247.773 776.242 248.916 775.291 250.384 774.607C251.853 773.923 253.572 773.531 255.541 773.43V769.1H258.594V773.38C260.38 773.43 262.007 773.631 263.475 773.981C264.944 774.315 266.304 774.749 267.555 775.283L266.254 778.762C265.119 778.311 263.893 777.928 262.574 777.611C261.256 777.293 259.929 777.077 258.594 776.96V787.898C260.831 788.549 262.699 789.241 264.201 789.976C265.72 790.71 266.863 791.619 267.63 792.704C268.398 793.789 268.782 795.19 268.782 796.909C268.782 799.345 267.889 801.314 266.104 802.816C264.318 804.301 261.815 805.202 258.594 805.52V810.976H255.541ZM258.594 801.815C260.647 801.615 262.174 801.123 263.175 800.338C264.193 799.537 264.702 798.486 264.702 797.184C264.702 796.25 264.502 795.482 264.101 794.882C263.717 794.281 263.083 793.764 262.199 793.33C261.314 792.879 260.113 792.454 258.594 792.053V801.815ZM255.541 786.847V777.06C254.289 777.143 253.238 777.377 252.387 777.761C251.536 778.144 250.893 778.645 250.46 779.263C250.042 779.88 249.834 780.614 249.834 781.465C249.834 782.45 250.017 783.276 250.384 783.943C250.768 784.594 251.377 785.153 252.212 785.62C253.063 786.071 254.172 786.48 255.541 786.847ZM289.908 807.998H285.853V782.066C285.853 781.081 285.853 780.239 285.853 779.538C285.869 778.82 285.886 778.17 285.903 777.585C285.936 776.985 285.978 776.376 286.028 775.758C285.511 776.292 285.027 776.751 284.576 777.135C284.126 777.502 283.567 777.961 282.899 778.512L278.719 781.866L276.541 779.037L286.453 771.403H289.908V807.998ZM310.383 802.04L310.708 802.616C310.408 803.834 310.024 805.136 309.557 806.521C309.106 807.906 308.605 809.291 308.055 810.676C307.521 812.078 306.978 813.387 306.428 814.606H303.324C303.674 813.271 304.017 811.861 304.35 810.375C304.684 808.907 304.984 807.455 305.251 806.02C305.535 804.568 305.76 803.242 305.927 802.04H310.383ZM341.22 789.65C341.22 792.62 340.995 795.274 340.544 797.61C340.094 799.946 339.385 801.923 338.417 803.542C337.449 805.161 336.197 806.396 334.662 807.247C333.127 808.081 331.283 808.498 329.13 808.498C326.41 808.498 324.158 807.756 322.372 806.27C320.603 804.785 319.277 802.641 318.392 799.838C317.525 797.018 317.091 793.622 317.091 789.65C317.091 785.745 317.483 782.391 318.267 779.588C319.068 776.768 320.353 774.607 322.122 773.105C323.891 771.587 326.227 770.827 329.13 770.827C331.884 770.827 334.153 771.578 335.939 773.08C337.724 774.565 339.051 776.718 339.919 779.538C340.786 782.341 341.22 785.712 341.22 789.65ZM321.271 789.65C321.271 793.054 321.53 795.891 322.047 798.161C322.564 800.43 323.398 802.132 324.55 803.267C325.718 804.385 327.245 804.944 329.13 804.944C331.016 804.944 332.535 804.385 333.686 803.267C334.854 802.149 335.697 800.455 336.214 798.186C336.748 795.916 337.015 793.071 337.015 789.65C337.015 786.296 336.756 783.493 336.239 781.24C335.722 778.971 334.887 777.268 333.736 776.134C332.585 774.982 331.049 774.407 329.13 774.407C327.211 774.407 325.676 774.982 324.525 776.134C323.373 777.268 322.539 778.971 322.022 781.24C321.521 783.493 321.271 786.296 321.271 789.65ZM370.556 789.65C370.556 792.62 370.331 795.274 369.88 797.61C369.43 799.946 368.72 801.923 367.753 803.542C366.785 805.161 365.533 806.396 363.998 807.247C362.463 808.081 360.619 808.498 358.466 808.498C355.746 808.498 353.494 807.756 351.708 806.27C349.939 804.785 348.613 802.641 347.728 799.838C346.86 797.018 346.427 793.622 346.427 789.65C346.427 785.745 346.819 782.391 347.603 779.588C348.404 776.768 349.689 774.607 351.458 773.105C353.227 771.587 355.563 770.827 358.466 770.827C361.22 770.827 363.489 771.578 365.275 773.08C367.06 774.565 368.387 776.718 369.254 779.538C370.122 782.341 370.556 785.712 370.556 789.65ZM350.607 789.65C350.607 793.054 350.865 795.891 351.383 798.161C351.9 800.43 352.734 802.132 353.886 803.267C355.054 804.385 356.581 804.944 358.466 804.944C360.352 804.944 361.87 804.385 363.022 803.267C364.19 802.149 365.033 800.455 365.55 798.186C366.084 795.916 366.351 793.071 366.351 789.65C366.351 786.296 366.092 783.493 365.575 781.24C365.058 778.971 364.223 777.268 363.072 776.134C361.92 774.982 360.385 774.407 358.466 774.407C356.547 774.407 355.012 774.982 353.861 776.134C352.709 777.268 351.875 778.971 351.358 781.24C350.857 783.493 350.607 786.296 350.607 789.65ZM399.892 789.65C399.892 792.62 399.666 795.274 399.216 797.61C398.765 799.946 398.056 801.923 397.088 803.542C396.12 805.161 394.869 806.396 393.334 807.247C391.799 808.081 389.955 808.498 387.802 808.498C385.082 808.498 382.829 807.756 381.044 806.27C379.275 804.785 377.948 802.641 377.064 799.838C376.196 797.018 375.762 793.622 375.762 789.65C375.762 785.745 376.154 782.391 376.939 779.588C377.74 776.768 379.025 774.607 380.793 773.105C382.562 771.587 384.898 770.827 387.802 770.827C390.555 770.827 392.825 771.578 394.61 773.08C396.396 774.565 397.722 776.718 398.59 779.538C399.458 782.341 399.892 785.712 399.892 789.65ZM379.942 789.65C379.942 793.054 380.201 795.891 380.718 798.161C381.236 800.43 382.07 802.132 383.221 803.267C384.39 804.385 385.916 804.944 387.802 804.944C389.688 804.944 391.206 804.385 392.358 803.267C393.526 802.149 394.368 800.455 394.886 798.186C395.42 795.916 395.687 793.071 395.687 789.65C395.687 786.296 395.428 783.493 394.911 781.24C394.393 778.971 393.559 777.268 392.408 776.134C391.256 774.982 389.721 774.407 387.802 774.407C385.883 774.407 384.348 774.982 383.196 776.134C382.045 777.268 381.211 778.971 380.693 781.24C380.193 783.493 379.942 786.296 379.942 789.65Z" fill="#E17324"/>
<path d="M255.541 473.498V468.242C253.622 468.208 251.786 468.042 250.034 467.741C248.299 467.441 246.88 467.049 245.779 466.565V462.51C246.93 463.044 248.407 463.511 250.209 463.911C252.011 464.312 253.789 464.529 255.541 464.562V453.549C253.338 452.931 251.511 452.231 250.059 451.446C248.624 450.645 247.548 449.669 246.83 448.518C246.113 447.366 245.754 445.973 245.754 444.338C245.754 442.636 246.154 441.184 246.955 439.982C247.773 438.764 248.916 437.813 250.384 437.129C251.853 436.445 253.572 436.053 255.541 435.952V431.622H258.594V435.902C260.38 435.952 262.007 436.153 263.475 436.503C264.944 436.837 266.304 437.271 267.555 437.805L266.254 441.284C265.119 440.833 263.893 440.45 262.574 440.132C261.256 439.815 259.929 439.599 258.594 439.482V450.42C260.831 451.071 262.699 451.763 264.201 452.498C265.72 453.232 266.863 454.141 267.63 455.226C268.398 456.311 268.782 457.712 268.782 459.431C268.782 461.867 267.889 463.836 266.104 465.338C264.318 466.823 261.815 467.724 258.594 468.042V473.498H255.541ZM258.594 464.337C260.647 464.137 262.174 463.644 263.175 462.86C264.193 462.059 264.702 461.008 264.702 459.706C264.702 458.772 264.502 458.004 264.101 457.404C263.717 456.803 263.083 456.286 262.199 455.852C261.314 455.401 260.113 454.976 258.594 454.575V464.337ZM255.541 449.369V439.582C254.289 439.665 253.238 439.899 252.387 440.283C251.536 440.666 250.893 441.167 250.46 441.784C250.042 442.402 249.834 443.136 249.834 443.987C249.834 444.972 250.017 445.798 250.384 446.465C250.768 447.116 251.377 447.675 252.212 448.142C253.063 448.593 254.172 449.002 255.541 449.369ZM298.418 470.52H274.439V467.04L284.226 457.103C286.045 455.268 287.571 453.632 288.806 452.197C290.058 450.762 291.009 449.352 291.66 447.967C292.311 446.565 292.636 445.03 292.636 443.361C292.636 441.292 292.019 439.715 290.784 438.631C289.566 437.529 287.955 436.979 285.953 436.979C284.201 436.979 282.649 437.279 281.297 437.88C279.946 438.48 278.56 439.332 277.142 440.433L274.914 437.629C275.882 436.812 276.934 436.086 278.068 435.452C279.22 434.818 280.446 434.317 281.748 433.95C283.066 433.583 284.468 433.399 285.953 433.399C288.206 433.399 290.15 433.791 291.785 434.576C293.42 435.36 294.68 436.478 295.565 437.93C296.466 439.382 296.916 441.109 296.916 443.111C296.916 445.047 296.532 446.849 295.765 448.518C294.997 450.17 293.921 451.813 292.536 453.449C291.151 455.067 289.532 456.786 287.68 458.605L279.72 466.54V466.715H298.418V470.52ZM310.383 464.562L310.708 465.138C310.408 466.356 310.024 467.658 309.557 469.043C309.106 470.428 308.605 471.813 308.055 473.198C307.521 474.6 306.978 475.909 306.428 477.128H303.324C303.674 475.793 304.017 474.383 304.35 472.897C304.684 471.429 304.984 469.977 305.251 468.542C305.535 467.09 305.76 465.764 305.927 464.562H310.383ZM341.22 452.172C341.22 455.142 340.995 457.796 340.544 460.132C340.094 462.468 339.385 464.445 338.417 466.064C337.449 467.683 336.197 468.918 334.662 469.769C333.127 470.603 331.283 471.02 329.13 471.02C326.41 471.02 324.158 470.278 322.372 468.792C320.603 467.307 319.277 465.163 318.392 462.36C317.525 459.539 317.091 456.144 317.091 452.172C317.091 448.267 317.483 444.913 318.267 442.11C319.068 439.29 320.353 437.129 322.122 435.627C323.891 434.108 326.227 433.349 329.13 433.349C331.884 433.349 334.153 434.1 335.939 435.602C337.724 437.087 339.051 439.24 339.919 442.06C340.786 444.863 341.22 448.234 341.22 452.172ZM321.271 452.172C321.271 455.576 321.53 458.413 322.047 460.683C322.564 462.952 323.398 464.654 324.55 465.789C325.718 466.907 327.245 467.466 329.13 467.466C331.016 467.466 332.535 466.907 333.686 465.789C334.854 464.671 335.697 462.977 336.214 460.708C336.748 458.438 337.015 455.593 337.015 452.172C337.015 448.818 336.756 446.015 336.239 443.762C335.722 441.492 334.887 439.79 333.736 438.656C332.585 437.504 331.049 436.929 329.13 436.929C327.211 436.929 325.676 437.504 324.525 438.656C323.373 439.79 322.539 441.492 322.022 443.762C321.521 446.015 321.271 448.818 321.271 452.172ZM370.556 452.172C370.556 455.142 370.331 457.796 369.88 460.132C369.43 462.468 368.72 464.445 367.753 466.064C366.785 467.683 365.533 468.918 363.998 469.769C362.463 470.603 360.619 471.02 358.466 471.02C355.746 471.02 353.494 470.278 351.708 468.792C349.939 467.307 348.613 465.163 347.728 462.36C346.86 459.539 346.427 456.144 346.427 452.172C346.427 448.267 346.819 444.913 347.603 442.11C348.404 439.29 349.689 437.129 351.458 435.627C353.227 434.108 355.563 433.349 358.466 433.349C361.22 433.349 363.489 434.1 365.275 435.602C367.06 437.087 368.387 439.24 369.254 442.06C370.122 444.863 370.556 448.234 370.556 452.172ZM350.607 452.172C350.607 455.576 350.865 458.413 351.383 460.683C351.9 462.952 352.734 464.654 353.886 465.789C355.054 466.907 356.581 467.466 358.466 467.466C360.352 467.466 361.87 466.907 363.022 465.789C364.19 464.671 365.033 462.977 365.55 460.708C366.084 458.438 366.351 455.593 366.351 452.172C366.351 448.818 366.092 446.015 365.575 443.762C365.058 441.492 364.223 439.79 363.072 438.656C361.92 437.504 360.385 436.929 358.466 436.929C356.547 436.929 355.012 437.504 353.861 438.656C352.709 439.79 351.875 441.492 351.358 443.762C350.857 446.015 350.607 448.818 350.607 452.172ZM399.892 452.172C399.892 455.142 399.666 457.796 399.216 460.132C398.765 462.468 398.056 464.445 397.088 466.064C396.12 467.683 394.869 468.918 393.334 469.769C391.799 470.603 389.955 471.02 387.802 471.02C385.082 471.02 382.829 470.278 381.044 468.792C379.275 467.307 377.948 465.163 377.064 462.36C376.196 459.539 375.762 456.144 375.762 452.172C375.762 448.267 376.154 444.913 376.939 442.11C377.74 439.29 379.025 437.129 380.793 435.627C382.562 434.108 384.898 433.349 387.802 433.349C390.555 433.349 392.825 434.1 394.61 435.602C396.396 437.087 397.722 439.24 398.59 442.06C399.458 444.863 399.892 448.234 399.892 452.172ZM379.942 452.172C379.942 455.576 380.201 458.413 380.718 460.683C381.236 462.952 382.07 464.654 383.221 465.789C384.39 466.907 385.916 467.466 387.802 467.466C389.688 467.466 391.206 466.907 392.358 465.789C393.526 464.671 394.368 462.977 394.886 460.708C395.42 458.438 395.687 455.593 395.687 452.172C395.687 448.818 395.428 446.015 394.911 443.762C394.393 441.492 393.559 439.79 392.408 438.656C391.256 437.504 389.721 436.929 387.802 436.929C385.883 436.929 384.348 437.504 383.196 438.656C382.045 439.79 381.211 441.492 380.693 443.762C380.193 446.015 379.942 448.818 379.942 452.172Z" fill="#E17324"/>
<path d="M492.48 1105.43V788.597M424.842 449.695H492.48V613.45M492.48 613.45H424.842M492.48 613.45V788.597M492.48 788.597H424.842" stroke="#E17324" stroke-width="4.27187"/>
<rect x="824.046" y="1281.3" width="185.115" height="79.4792" rx="7.11979" fill="#E17324"/>
<path d="M859.474 1333.54L870.239 1309.61H874.614L885.413 1333.54H880.765L871.504 1311.97H873.281L864.054 1333.54H859.474ZM864.43 1328L865.626 1324.51H878.544L879.74 1328H864.43ZM896.251 1333.77C894.337 1333.77 892.629 1333.38 891.125 1332.58C889.644 1331.76 888.482 1330.64 887.639 1329.23C886.796 1327.82 886.375 1326.21 886.375 1324.41C886.375 1322.59 886.796 1320.98 887.639 1319.59C888.482 1318.18 889.644 1317.07 891.125 1316.28C892.629 1315.48 894.337 1315.08 896.251 1315.08C898.028 1315.08 899.589 1315.45 900.933 1316.17C902.3 1316.88 903.337 1317.93 904.043 1319.32L900.762 1321.23C900.216 1320.37 899.543 1319.73 898.746 1319.32C897.971 1318.91 897.128 1318.7 896.217 1318.7C895.169 1318.7 894.224 1318.93 893.381 1319.39C892.538 1319.84 891.877 1320.5 891.398 1321.37C890.92 1322.21 890.681 1323.23 890.681 1324.41C890.681 1325.6 890.92 1326.62 891.398 1327.49C891.877 1328.33 892.538 1328.98 893.381 1329.43C894.224 1329.89 895.169 1330.12 896.217 1330.12C897.128 1330.12 897.971 1329.91 898.746 1329.5C899.543 1329.09 900.216 1328.45 900.762 1327.59L904.043 1329.5C903.337 1330.87 902.3 1331.93 900.933 1332.68C899.589 1333.41 898.028 1333.77 896.251 1333.77ZM914.839 1333.77C912.834 1333.77 911.285 1333.26 910.191 1332.24C909.097 1331.19 908.551 1329.65 908.551 1327.62V1311.25H912.822V1327.52C912.822 1328.39 913.039 1329.06 913.472 1329.54C913.927 1330.02 914.554 1330.25 915.351 1330.25C916.308 1330.25 917.106 1330 917.744 1329.5L918.94 1332.54C918.438 1332.95 917.823 1333.26 917.094 1333.47C916.365 1333.67 915.613 1333.77 914.839 1333.77ZM905.543 1318.84V1315.42H917.709V1318.84H905.543ZM930.177 1333.77C928.628 1333.77 927.261 1333.49 926.076 1332.92C924.892 1332.33 923.969 1331.44 923.308 1330.25C922.648 1329.05 922.317 1327.53 922.317 1325.71V1315.29H926.589V1325.13C926.589 1326.77 926.954 1328 927.683 1328.82C928.434 1329.62 929.494 1330.02 930.861 1330.02C931.863 1330.02 932.729 1329.81 933.458 1329.4C934.21 1328.99 934.791 1328.38 935.201 1327.56C935.634 1326.73 935.85 1325.72 935.85 1324.51V1315.29H940.122V1333.54H936.056V1328.61L936.773 1330.12C936.158 1331.3 935.258 1332.21 934.073 1332.85C932.889 1333.47 931.59 1333.77 930.177 1333.77ZM956.959 1333.54V1329.84L956.72 1329.06V1322.6C956.72 1321.35 956.344 1320.38 955.592 1319.69C954.84 1318.99 953.701 1318.64 952.175 1318.64C951.149 1318.64 950.136 1318.79 949.133 1319.11C948.153 1319.43 947.322 1319.88 946.638 1320.45L944.964 1317.34C945.943 1316.58 947.105 1316.03 948.45 1315.66C949.817 1315.27 951.229 1315.08 952.687 1315.08C955.33 1315.08 957.369 1315.72 958.805 1316.99C960.263 1318.25 960.992 1320.2 960.992 1322.84V1333.54H956.959ZM951.218 1333.77C949.851 1333.77 948.655 1333.55 947.629 1333.09C946.604 1332.61 945.807 1331.96 945.237 1331.14C944.69 1330.3 944.417 1329.35 944.417 1328.31C944.417 1327.28 944.656 1326.36 945.135 1325.54C945.636 1324.72 946.445 1324.07 947.561 1323.59C948.677 1323.11 950.158 1322.87 952.004 1322.87H957.301V1325.71H952.311C950.853 1325.71 949.874 1325.95 949.372 1326.43C948.871 1326.88 948.62 1327.45 948.62 1328.14C948.62 1328.91 948.928 1329.53 949.543 1329.98C950.158 1330.44 951.013 1330.66 952.106 1330.66C953.154 1330.66 954.088 1330.43 954.909 1329.95C955.752 1329.47 956.355 1328.76 956.72 1327.83L957.438 1330.39C957.027 1331.46 956.287 1332.29 955.216 1332.89C954.168 1333.48 952.835 1333.77 951.218 1333.77ZM966.474 1333.54V1308.18H970.746V1333.54H966.474Z" fill="white"/>
<rect x="1044.76" y="1281.3" width="227.833" height="79.4792" rx="7.11979" fill="#E17324" fill-opacity="0.5"/>
<path d="M1087.67 1319.56H1099.56V1323.21H1087.67V1319.56ZM1088.01 1329.81H1101.51V1333.54H1083.57V1309.61H1101.03V1313.34H1088.01V1329.81ZM1111.53 1333.77C1110 1333.77 1108.53 1333.58 1107.12 1333.19C1105.73 1332.78 1104.62 1332.29 1103.8 1331.72L1105.44 1328.48C1106.26 1329 1107.24 1329.43 1108.38 1329.78C1109.52 1330.12 1110.66 1330.29 1111.8 1330.29C1113.14 1330.29 1114.11 1330.11 1114.71 1329.74C1115.32 1329.38 1115.63 1328.89 1115.63 1328.27C1115.63 1327.77 1115.42 1327.4 1115.01 1327.14C1114.6 1326.87 1114.07 1326.67 1113.41 1326.53C1112.75 1326.39 1112.01 1326.27 1111.19 1326.15C1110.39 1326.04 1109.58 1325.89 1108.76 1325.71C1107.96 1325.5 1107.23 1325.22 1106.57 1324.86C1105.91 1324.47 1105.38 1323.96 1104.97 1323.32C1104.56 1322.68 1104.35 1321.84 1104.35 1320.79C1104.35 1319.63 1104.68 1318.62 1105.34 1317.78C1106 1316.92 1106.93 1316.25 1108.11 1315.8C1109.32 1315.32 1110.74 1315.08 1112.38 1315.08C1113.61 1315.08 1114.85 1315.22 1116.11 1315.49C1117.36 1315.76 1118.4 1316.15 1119.22 1316.65L1117.58 1319.9C1116.71 1319.38 1115.83 1319.02 1114.94 1318.84C1114.08 1318.64 1113.21 1318.53 1112.35 1318.53C1111.05 1318.53 1110.08 1318.73 1109.44 1319.11C1108.83 1319.5 1108.52 1319.99 1108.52 1320.58C1108.52 1321.13 1108.72 1321.54 1109.14 1321.81C1109.55 1322.09 1110.08 1322.3 1110.74 1322.46C1111.4 1322.62 1112.13 1322.76 1112.93 1322.87C1113.75 1322.96 1114.56 1323.11 1115.35 1323.32C1116.15 1323.52 1116.88 1323.81 1117.54 1324.17C1118.23 1324.51 1118.77 1325 1119.18 1325.64C1119.59 1326.28 1119.8 1327.11 1119.8 1328.14C1119.8 1329.28 1119.46 1330.27 1118.77 1331.11C1118.11 1331.95 1117.17 1332.61 1115.94 1333.09C1114.71 1333.55 1113.24 1333.77 1111.53 1333.77ZM1130.35 1333.77C1128.34 1333.77 1126.79 1333.26 1125.7 1332.24C1124.6 1331.19 1124.06 1329.65 1124.06 1327.62V1311.25H1128.33V1327.52C1128.33 1328.39 1128.55 1329.06 1128.98 1329.54C1129.43 1330.02 1130.06 1330.25 1130.86 1330.25C1131.82 1330.25 1132.61 1330 1133.25 1329.5L1134.45 1332.54C1133.95 1332.95 1133.33 1333.26 1132.6 1333.47C1131.87 1333.67 1131.12 1333.77 1130.35 1333.77ZM1121.05 1318.84V1315.42H1133.22V1318.84H1121.05ZM1137.96 1333.54V1315.29H1142.23V1333.54H1137.96ZM1140.11 1312.28C1139.32 1312.28 1138.66 1312.03 1138.13 1311.53C1137.63 1311.03 1137.38 1310.42 1137.38 1309.72C1137.38 1308.99 1137.63 1308.38 1138.13 1307.9C1138.66 1307.4 1139.32 1307.15 1140.11 1307.15C1140.91 1307.15 1141.56 1307.39 1142.06 1307.87C1142.59 1308.33 1142.85 1308.91 1142.85 1309.61C1142.85 1310.36 1142.6 1311 1142.1 1311.53C1141.59 1312.03 1140.93 1312.28 1140.11 1312.28ZM1170.87 1315.08C1172.33 1315.08 1173.62 1315.37 1174.74 1315.94C1175.87 1316.51 1176.76 1317.38 1177.4 1318.57C1178.04 1319.73 1178.36 1321.23 1178.36 1323.08V1333.54H1174.09V1323.62C1174.09 1322.01 1173.73 1320.8 1173.03 1320C1172.32 1319.2 1171.31 1318.81 1169.99 1318.81C1169.05 1318.81 1168.22 1319.01 1167.49 1319.42C1166.78 1319.83 1166.23 1320.44 1165.82 1321.23C1165.43 1322.03 1165.23 1323.04 1165.23 1324.27V1333.54H1160.96V1323.62C1160.96 1322.01 1160.61 1320.8 1159.9 1320C1159.2 1319.2 1158.18 1318.81 1156.86 1318.81C1155.93 1318.81 1155.1 1319.01 1154.37 1319.42C1153.66 1319.83 1153.1 1320.44 1152.69 1321.23C1152.31 1322.03 1152.11 1323.04 1152.11 1324.27V1333.54H1147.84V1315.29H1151.91V1320.14L1151.19 1318.7C1151.8 1317.52 1152.69 1316.62 1153.85 1316C1155.04 1315.39 1156.38 1315.08 1157.89 1315.08C1159.6 1315.08 1161.08 1315.5 1162.33 1316.35C1163.61 1317.19 1164.45 1318.46 1164.86 1320.17L1163.18 1319.59C1163.78 1318.23 1164.76 1317.13 1166.12 1316.31C1167.49 1315.49 1169.07 1315.08 1170.87 1315.08ZM1195.06 1333.54V1329.84L1194.82 1329.06V1322.6C1194.82 1321.35 1194.45 1320.38 1193.69 1319.69C1192.94 1318.99 1191.8 1318.64 1190.28 1318.64C1189.25 1318.64 1188.24 1318.79 1187.23 1319.11C1186.25 1319.43 1185.42 1319.88 1184.74 1320.45L1183.06 1317.34C1184.04 1316.58 1185.21 1316.03 1186.55 1315.66C1187.92 1315.27 1189.33 1315.08 1190.79 1315.08C1193.43 1315.08 1195.47 1315.72 1196.91 1316.99C1198.36 1318.25 1199.09 1320.2 1199.09 1322.84V1333.54H1195.06ZM1189.32 1333.77C1187.95 1333.77 1186.76 1333.55 1185.73 1333.09C1184.71 1332.61 1183.91 1331.96 1183.34 1331.14C1182.79 1330.3 1182.52 1329.35 1182.52 1328.31C1182.52 1327.28 1182.76 1326.36 1183.24 1325.54C1183.74 1324.72 1184.55 1324.07 1185.66 1323.59C1186.78 1323.11 1188.26 1322.87 1190.1 1322.87H1195.4V1325.71H1190.41C1188.95 1325.71 1187.97 1325.95 1187.47 1326.43C1186.97 1326.88 1186.72 1327.45 1186.72 1328.14C1186.72 1328.91 1187.03 1329.53 1187.64 1329.98C1188.26 1330.44 1189.11 1330.66 1190.21 1330.66C1191.26 1330.66 1192.19 1330.43 1193.01 1329.95C1193.85 1329.47 1194.46 1328.76 1194.82 1327.83L1195.54 1330.39C1195.13 1331.46 1194.39 1332.29 1193.32 1332.89C1192.27 1333.48 1190.94 1333.77 1189.32 1333.77ZM1211.44 1333.77C1209.44 1333.77 1207.89 1333.26 1206.8 1332.24C1205.7 1331.19 1205.16 1329.65 1205.16 1327.62V1311.25H1209.43V1327.52C1209.43 1328.39 1209.64 1329.06 1210.08 1329.54C1210.53 1330.02 1211.16 1330.25 1211.96 1330.25C1212.91 1330.25 1213.71 1330 1214.35 1329.5L1215.55 1332.54C1215.04 1332.95 1214.43 1333.26 1213.7 1333.47C1212.97 1333.67 1212.22 1333.77 1211.44 1333.77ZM1202.15 1318.84V1315.42H1214.32V1318.84H1202.15ZM1227.04 1333.77C1225.01 1333.77 1223.23 1333.38 1221.71 1332.58C1220.2 1331.76 1219.03 1330.64 1218.19 1329.23C1217.37 1327.82 1216.96 1326.21 1216.96 1324.41C1216.96 1322.59 1217.35 1320.98 1218.15 1319.59C1218.97 1318.18 1220.09 1317.07 1221.5 1316.28C1222.94 1315.48 1224.56 1315.08 1226.39 1315.08C1228.16 1315.08 1229.75 1315.47 1231.14 1316.24C1232.53 1317.02 1233.62 1318.11 1234.42 1319.52C1235.22 1320.94 1235.61 1322.6 1235.61 1324.51C1235.61 1324.7 1235.6 1324.9 1235.58 1325.13C1235.58 1325.36 1235.57 1325.57 1235.55 1325.78H1220.34V1322.94H1233.29L1231.62 1323.83C1231.64 1322.78 1231.42 1321.86 1230.97 1321.06C1230.51 1320.26 1229.88 1319.64 1229.09 1319.18C1228.31 1318.73 1227.41 1318.5 1226.39 1318.5C1225.34 1318.5 1224.42 1318.73 1223.62 1319.18C1222.84 1319.64 1222.23 1320.28 1221.77 1321.1C1221.34 1321.89 1221.12 1322.84 1221.12 1323.93V1324.62C1221.12 1325.71 1221.38 1326.68 1221.88 1327.52C1222.38 1328.36 1223.08 1329.01 1224 1329.47C1224.91 1329.92 1225.95 1330.15 1227.14 1330.15C1228.16 1330.15 1229.09 1329.99 1229.91 1329.67C1230.73 1329.35 1231.46 1328.85 1232.09 1328.17L1234.38 1330.8C1233.56 1331.76 1232.53 1332.5 1231.27 1333.02C1230.04 1333.52 1228.63 1333.77 1227.04 1333.77Z" fill="white"/>
<rect x="1343.79" y="1281.3" width="210.07" height="79.4792" rx="7.11979" fill="#E17324"/>
<path opacity="0.75" d="M1380.65 1333.54V1331.21L1390.39 1321.81C1391.26 1320.99 1391.9 1320.28 1392.31 1319.66C1392.74 1319.02 1393.03 1318.44 1393.16 1317.92C1393.32 1317.37 1393.4 1316.85 1393.4 1316.35C1393.4 1315.12 1392.97 1314.15 1392.1 1313.44C1391.24 1312.73 1389.97 1312.38 1388.31 1312.38C1387.03 1312.38 1385.88 1312.6 1384.86 1313.03C1383.83 1313.44 1382.94 1314.09 1382.19 1314.98L1379.87 1312.96C1380.78 1311.8 1382 1310.91 1383.52 1310.3C1385.07 1309.66 1386.77 1309.34 1388.62 1309.34C1390.28 1309.34 1391.73 1309.61 1392.96 1310.16C1394.19 1310.68 1395.13 1311.45 1395.79 1312.45C1396.48 1313.45 1396.82 1314.64 1396.82 1316C1396.82 1316.78 1396.72 1317.54 1396.51 1318.29C1396.31 1319.05 1395.92 1319.84 1395.35 1320.69C1394.78 1321.53 1393.96 1322.47 1392.89 1323.52L1384.21 1331.9L1383.39 1330.56H1397.84V1333.54H1380.65ZM1410.39 1333.81C1408.53 1333.81 1406.85 1333.33 1405.37 1332.37C1403.91 1331.42 1402.75 1330.03 1401.89 1328.2C1401.04 1326.38 1400.62 1324.17 1400.62 1321.57C1400.62 1318.98 1401.04 1316.77 1401.89 1314.94C1402.75 1313.12 1403.91 1311.73 1405.37 1310.78C1406.85 1309.82 1408.53 1309.34 1410.39 1309.34C1412.24 1309.34 1413.9 1309.82 1415.38 1310.78C1416.87 1311.73 1418.03 1313.12 1418.87 1314.94C1419.71 1316.77 1420.13 1318.98 1420.13 1321.57C1420.13 1324.17 1419.71 1326.38 1418.87 1328.2C1418.03 1330.03 1416.87 1331.42 1415.38 1332.37C1413.9 1333.33 1412.24 1333.81 1410.39 1333.81ZM1410.39 1330.77C1411.65 1330.77 1412.74 1330.43 1413.68 1329.74C1414.63 1329.06 1415.37 1328.03 1415.9 1326.67C1416.44 1325.3 1416.72 1323.6 1416.72 1321.57C1416.72 1319.55 1416.44 1317.85 1415.9 1316.48C1415.37 1315.12 1414.63 1314.09 1413.68 1313.41C1412.74 1312.72 1411.65 1312.38 1410.39 1312.38C1409.14 1312.38 1408.04 1312.72 1407.08 1313.41C1406.12 1314.09 1405.37 1315.12 1404.82 1316.48C1404.3 1317.85 1404.04 1319.55 1404.04 1321.57C1404.04 1323.6 1404.3 1325.3 1404.82 1326.67C1405.37 1328.03 1406.12 1329.06 1407.08 1329.74C1408.04 1330.43 1409.14 1330.77 1410.39 1330.77ZM1423.04 1333.54V1331.21L1432.78 1321.81C1433.64 1320.99 1434.28 1320.28 1434.69 1319.66C1435.13 1319.02 1435.41 1318.44 1435.55 1317.92C1435.71 1317.37 1435.79 1316.85 1435.79 1316.35C1435.79 1315.12 1435.35 1314.15 1434.49 1313.44C1433.62 1312.73 1432.36 1312.38 1430.69 1312.38C1429.42 1312.38 1428.27 1312.6 1427.24 1313.03C1426.22 1313.44 1425.33 1314.09 1424.58 1314.98L1422.25 1312.96C1423.16 1311.8 1424.38 1310.91 1425.91 1310.3C1427.46 1309.66 1429.16 1309.34 1431 1309.34C1432.67 1309.34 1434.11 1309.61 1435.34 1310.16C1436.57 1310.68 1437.52 1311.45 1438.18 1312.45C1438.86 1313.45 1439.2 1314.64 1439.2 1316C1439.2 1316.78 1439.1 1317.54 1438.9 1318.29C1438.69 1319.05 1438.3 1319.84 1437.73 1320.69C1437.16 1321.53 1436.34 1322.47 1435.27 1323.52L1426.59 1331.9L1425.77 1330.56H1440.23V1333.54H1423.04ZM1450.35 1333.81C1448.67 1333.81 1447.03 1333.55 1445.43 1333.02C1443.86 1332.5 1442.57 1331.79 1441.57 1330.9L1443.14 1328.2C1443.94 1328.96 1444.98 1329.57 1446.25 1330.05C1447.53 1330.53 1448.89 1330.77 1450.35 1330.77C1452.13 1330.77 1453.51 1330.39 1454.49 1329.64C1455.49 1328.87 1455.99 1327.83 1455.99 1326.53C1455.99 1325.28 1455.51 1324.27 1454.56 1323.52C1453.62 1322.75 1452.13 1322.36 1450.08 1322.36H1448.17V1319.97L1455.27 1311.22L1455.75 1312.59H1442.66V1309.61H1458.45V1311.94L1451.38 1320.65L1449.6 1319.59H1450.73C1453.62 1319.59 1455.79 1320.24 1457.22 1321.54C1458.68 1322.84 1459.41 1324.49 1459.41 1326.5C1459.41 1327.84 1459.08 1329.07 1458.42 1330.19C1457.76 1331.3 1456.75 1332.19 1455.41 1332.85C1454.09 1333.49 1452.4 1333.81 1450.35 1333.81Z" fill="white"/>
<path opacity="0.75" d="M1482.75 1309.25L1500.51 1332.82L1518.26 1309.25" stroke="white" stroke-width="3.54765"/>
<rect x="1589.46" y="1281.3" width="189.07" height="79.4792" rx="7.11979" fill="#E17324"/>
<path opacity="0.75" d="M1628.65 1333.54V1309.61H1639.38C1642.13 1309.61 1644.25 1310.17 1645.73 1311.29C1647.22 1312.38 1647.96 1313.89 1647.96 1315.8C1647.96 1317.1 1647.66 1318.19 1647.07 1319.08C1646.5 1319.97 1645.72 1320.65 1644.74 1321.13C1643.76 1321.61 1642.7 1321.85 1641.57 1321.85L1642.18 1320.82C1643.55 1320.82 1644.75 1321.06 1645.8 1321.54C1646.85 1322.02 1647.68 1322.72 1648.3 1323.66C1648.91 1324.57 1649.22 1325.71 1649.22 1327.08C1649.22 1329.13 1648.45 1330.72 1646.9 1331.86C1645.37 1332.98 1643.09 1333.54 1640.06 1333.54H1628.65ZM1632.06 1330.77H1639.92C1641.82 1330.77 1643.26 1330.45 1644.26 1329.81C1645.27 1329.17 1645.77 1328.17 1645.77 1326.8C1645.77 1325.41 1645.27 1324.4 1644.26 1323.76C1643.26 1323.12 1641.82 1322.8 1639.92 1322.8H1631.76V1320.04H1639.07C1640.8 1320.04 1642.15 1319.72 1643.1 1319.08C1644.06 1318.44 1644.54 1317.48 1644.54 1316.21C1644.54 1314.93 1644.06 1313.98 1643.1 1313.34C1642.15 1312.7 1640.8 1312.38 1639.07 1312.38H1632.06V1330.77ZM1665.28 1333.54V1329.71L1665.11 1328.99V1322.46C1665.11 1321.07 1664.7 1320 1663.88 1319.25C1663.08 1318.48 1661.87 1318.09 1660.25 1318.09C1659.18 1318.09 1658.13 1318.27 1657.11 1318.64C1656.08 1318.98 1655.22 1319.44 1654.51 1320.04L1653.14 1317.58C1654.08 1316.82 1655.2 1316.25 1656.49 1315.87C1657.82 1315.46 1659.19 1315.25 1660.63 1315.25C1663.11 1315.25 1665.03 1315.86 1666.37 1317.06C1667.71 1318.27 1668.39 1320.12 1668.39 1322.6V1333.54H1665.28ZM1659.33 1333.74C1657.99 1333.74 1656.8 1333.51 1655.78 1333.06C1654.77 1332.6 1654 1331.97 1653.45 1331.18C1652.91 1330.36 1652.63 1329.43 1652.63 1328.41C1652.63 1327.43 1652.86 1326.54 1653.32 1325.74C1653.79 1324.95 1654.56 1324.31 1655.61 1323.83C1656.68 1323.35 1658.11 1323.11 1659.91 1323.11H1665.65V1325.47H1660.05C1658.41 1325.47 1657.3 1325.74 1656.73 1326.29C1656.16 1326.84 1655.88 1327.5 1655.88 1328.27C1655.88 1329.16 1656.23 1329.88 1656.94 1330.43C1657.64 1330.95 1658.62 1331.21 1659.88 1331.21C1661.11 1331.21 1662.18 1330.94 1663.09 1330.39C1664.02 1329.84 1664.7 1329.05 1665.11 1328L1665.76 1330.25C1665.32 1331.33 1664.56 1332.18 1663.47 1332.82C1662.37 1333.43 1660.99 1333.74 1659.33 1333.74ZM1674.46 1333.54V1315.42H1677.6V1320.34L1677.29 1319.11C1677.8 1317.86 1678.64 1316.9 1679.82 1316.24C1681.01 1315.58 1682.47 1315.25 1684.2 1315.25V1318.43C1684.06 1318.41 1683.92 1318.4 1683.79 1318.4C1683.67 1318.4 1683.56 1318.4 1683.45 1318.4C1681.69 1318.4 1680.3 1318.92 1679.28 1319.97C1678.25 1321.02 1677.74 1322.53 1677.74 1324.51V1333.54H1674.46Z" fill="white"/>
<path opacity="0.75" d="M1707.42 1309.25L1725.17 1332.82L1742.93 1309.25" stroke="white" stroke-width="3.54765"/>
<rect x="102.679" y="103.025" width="2397.22" height="1326.4" rx="68.6979" stroke="#E17324" stroke-opacity="0.25" stroke-width="5" shape-rendering="crispEdges"/>
</g>
<defs>
<filter id="filter0_d_162_648" x="0.179199" y="0.524902" width="2602.22" height="1531.4" filterUnits="userSpaceOnUse" color-interpolation-filters="sRGB">
<feFlood flood-opacity="0" result="BackgroundImageFix"/>
<feColorMatrix in="SourceAlpha" type="matrix" values="0 0 0 0 0 0 0 0 0 0 0 0 0 0 0 0 0 0 127 0" result="hardAlpha"/>
<feOffset/>
<feGaussianBlur stdDeviation="50"/>
<feComposite in2="hardAlpha" operator="out"/>
<feColorMatrix type="matrix" values="0 0 0 0 0.179167 0 0 0 0 0.179167 0 0 0 0 0.179167 0 0 0 0.35 0"/>
<feBlend mode="normal" in2="BackgroundImageFix" result="effect1_dropShadow_162_648"/>
<feBlend mode="normal" in="SourceGraphic" in2="effect1_dropShadow_162_648" result="shape"/>
</filter>
</defs>
</svg>
