<svg width="343" height="600" viewBox="0 0 343 600" fill="none" xmlns="http://www.w3.org/2000/svg">
<path fill-rule="evenodd" clip-rule="evenodd" d="M154.636 0.877441H195.364V72.4823C216.506 73.4867 237.506 76.77 258.364 82.332C283.818 89.1199 305.879 98.8774 324.545 111.605L303.545 162.514C284.455 149.787 264.303 140.665 243.091 135.15C226.807 130.591 210.898 127.781 195.364 126.722V275.651C209.152 278.97 222.939 282.622 236.727 286.605C256.242 292.12 273.849 299.332 289.545 308.241C305.667 317.15 318.606 329.029 328.364 343.877C338.121 358.726 343 377.817 343 401.15C343 423.635 336.849 444.635 324.545 464.15C312.242 483.241 293.152 498.726 267.273 510.605C247.429 519.535 223.459 524.984 195.364 526.952V599.059H154.636V527.409C126.43 526.059 99.279 521.094 73.1818 512.514C42.2121 501.908 17.8182 488.332 0 471.787L23.5455 422.15C40.5152 436.999 62.1515 449.302 88.4546 459.059C109.816 466.984 131.876 471.69 154.636 473.179V325.922C142.001 322.848 129.273 319.5 116.455 315.877C97.3636 309.938 79.7576 302.514 63.6364 293.605C47.9394 284.696 35.2121 272.817 25.4545 257.968C15.697 242.696 10.8182 223.18 10.8182 199.423C10.8182 176.514 16.7576 155.514 28.6364 136.423C40.9394 116.908 59.6061 101.423 84.6364 89.9684C104.03 80.9182 127.363 75.3155 154.636 73.1605V0.877441ZM269.182 440.605C261.545 450.787 249.667 458.847 233.545 464.787C222.933 468.697 210.205 471.32 195.364 472.655V335.71C206.411 338.742 216.805 342.101 226.545 345.787C242.667 351.302 255.606 358.726 265.364 368.059C275.545 377.393 280.636 389.696 280.636 404.968C280.636 418.12 276.818 429.999 269.182 440.605ZM84 161.241C91.6364 150.635 103.515 142.15 119.636 135.787C129.601 131.853 141.268 129.135 154.636 127.633V265.426C144.852 262.644 135.519 259.734 126.636 256.696C110.939 251.181 98 243.756 87.8182 234.423C78.0606 225.09 73.1818 212.574 73.1818 196.877C73.1818 183.726 76.7879 171.847 84 161.241Z" fill="white" fill-opacity="0.75"/>
</svg>
